G04*
G04 #@! TF.GenerationSoftware,Altium Limited,Altium Designer,19.0.10 (269)*
G04*
G04 Layer_Physical_Order=2*
G04 Layer_Color=36540*
%FSLAX25Y25*%
%MOIN*%
G70*
G01*
G75*
%ADD132C,0.05512*%
%ADD136C,0.02362*%
%ADD137C,0.19685*%
G36*
X373012Y336595D02*
X373012Y1003D01*
X154164D01*
X154164Y24606D01*
X154164Y24606D01*
Y24607D01*
X154151Y24708D01*
X154159Y24810D01*
X154128Y25355D01*
X154081Y25599D01*
X154065Y25848D01*
X153945Y26451D01*
X153832Y26783D01*
X153741Y27122D01*
X153445Y27839D01*
X153269Y28142D01*
X153114Y28457D01*
X152683Y29102D01*
X152452Y29365D01*
X152239Y29643D01*
X151691Y30192D01*
X151412Y30405D01*
X151149Y30636D01*
X150504Y31067D01*
X150189Y31222D01*
X149886Y31398D01*
X149169Y31694D01*
X148831Y31785D01*
X148499Y31898D01*
X147738Y32049D01*
X147388Y32072D01*
X147040Y32117D01*
X146653Y32117D01*
X128937Y32117D01*
X128937Y32117D01*
X128549D01*
X128202Y32071D01*
X127852Y32048D01*
X127091Y31897D01*
X126760Y31784D01*
X126421Y31694D01*
X125704Y31397D01*
X125401Y31222D01*
X125087Y31067D01*
X124442Y30636D01*
X124178Y30405D01*
X123900Y30191D01*
X123352Y29643D01*
X123138Y29365D01*
X122907Y29101D01*
X122476Y28457D01*
X122321Y28142D01*
X122146Y27839D01*
X121850Y27122D01*
X121759Y26784D01*
X121646Y26452D01*
X121495Y25691D01*
X121472Y25342D01*
X121426Y24994D01*
X121426Y13386D01*
X102756D01*
Y26772D01*
X96457Y33071D01*
X96457Y64961D01*
X102362Y70866D01*
X122047Y70866D01*
X129921Y78740D01*
X129921Y87795D01*
X126378Y91339D01*
Y101969D01*
X124964D01*
X124899Y102065D01*
X124313Y102456D01*
X123622Y102594D01*
X122931Y102456D01*
X122345Y102065D01*
X121953Y101479D01*
X121816Y100787D01*
X121953Y100096D01*
X122345Y99510D01*
X122931Y99119D01*
X123622Y98981D01*
X123819Y99020D01*
X124409Y98536D01*
X124409Y90945D01*
X127953Y87402D01*
X127953Y79724D01*
X121063Y72835D01*
X101378D01*
X94488Y65945D01*
Y33858D01*
X57970Y33858D01*
X57618Y34333D01*
X57740Y34736D01*
X57892Y36279D01*
X57740Y37823D01*
X57290Y39307D01*
X56559Y40675D01*
X55575Y41874D01*
X54376Y42858D01*
X53008Y43589D01*
X51524Y44040D01*
X49980Y44192D01*
X48437Y44040D01*
X46953Y43589D01*
X45585Y42858D01*
X44386Y41874D01*
X44183Y41864D01*
X43701Y42329D01*
Y121194D01*
X44257Y121393D01*
X44386Y121236D01*
X45585Y120252D01*
X46953Y119521D01*
X48437Y119071D01*
X49980Y118919D01*
X51524Y119071D01*
X53008Y119521D01*
X54376Y120252D01*
X55575Y121236D01*
X56559Y122435D01*
X57290Y123803D01*
X57740Y125287D01*
X57892Y126831D01*
X57740Y128374D01*
X57290Y129859D01*
X56559Y131226D01*
X55575Y132425D01*
X54376Y133409D01*
X53008Y134141D01*
X51524Y134591D01*
X49980Y134743D01*
X48437Y134591D01*
X46953Y134141D01*
X45585Y133409D01*
X44386Y132425D01*
X44257Y132269D01*
X43701Y132467D01*
Y165748D01*
X37008Y172441D01*
Y174213D01*
X89567Y174213D01*
X90551D01*
X94488Y170276D01*
Y161417D01*
X90551Y157480D01*
Y142717D01*
X78740Y130905D01*
Y116142D01*
X80709Y114173D01*
X86614D01*
X88583Y116142D01*
X107283Y116142D01*
X108268Y115157D01*
Y111221D01*
X109646Y109843D01*
X111327D01*
X111812Y109252D01*
X111773Y109055D01*
X111925Y108287D01*
X112360Y107636D01*
X113012Y107201D01*
X113779Y107048D01*
X114548Y107201D01*
X115199Y107636D01*
X115634Y108287D01*
X115787Y109055D01*
X116311Y109444D01*
X116910Y109563D01*
X117561Y109998D01*
X117996Y110649D01*
X118149Y111417D01*
X117996Y112185D01*
X117561Y112836D01*
X117353Y112975D01*
X117279Y113735D01*
X122835Y119291D01*
Y121686D01*
X123228Y122008D01*
X123996Y122161D01*
X124647Y122596D01*
X125082Y123247D01*
X125235Y124015D01*
X125082Y124784D01*
X124647Y125435D01*
X123996Y125870D01*
X123875Y125894D01*
X123703Y126459D01*
X124803Y127559D01*
X126378Y127559D01*
Y129921D01*
X124803Y129921D01*
X120866Y125984D01*
X120866Y120079D01*
X112598Y111811D01*
X110236Y111811D01*
X110236Y116142D01*
X108268Y118110D01*
X87598Y118110D01*
X85630Y116142D01*
X81693D01*
X80709Y117126D01*
Y129921D01*
X92520Y141732D01*
Y156496D01*
X96457Y160433D01*
Y171260D01*
X91535Y176181D01*
X89567Y176181D01*
X37008Y176181D01*
Y185827D01*
X37008D01*
Y205479D01*
X37598Y205658D01*
X37790Y205372D01*
X38441Y204937D01*
X39209Y204784D01*
X39977Y204937D01*
X40628Y205372D01*
X41063Y206023D01*
X41216Y206791D01*
X41063Y207559D01*
X40628Y208210D01*
X39977Y208646D01*
X39209Y208798D01*
X38441Y208646D01*
X37790Y208210D01*
X37598Y207924D01*
X37008Y208103D01*
Y214961D01*
X37008D01*
Y224410D01*
X32283Y229134D01*
X1003Y229134D01*
Y317126D01*
X110236D01*
Y336595D01*
X373012Y336595D01*
D02*
G37*
G36*
X147802Y28392D02*
X148519Y28095D01*
X149163Y27665D01*
X149712Y27116D01*
X150143Y26471D01*
X150439Y25755D01*
X150559Y25151D01*
X150591Y24607D01*
Y24606D01*
X150591D01*
X150591Y24606D01*
X150591Y1003D01*
X125000D01*
X125000Y13766D01*
X125000Y24994D01*
X125151Y25755D01*
X125448Y26471D01*
X125879Y27116D01*
X126427Y27664D01*
X127072Y28095D01*
X127789Y28392D01*
X128549Y28543D01*
X128937D01*
X128937Y28543D01*
X146653Y28543D01*
X147041Y28543D01*
X147802Y28392D01*
D02*
G37*
%LPC*%
G36*
X127165Y318736D02*
X126474Y318598D01*
X125888Y318206D01*
X125496Y317620D01*
X125359Y316929D01*
X125496Y316238D01*
X125888Y315652D01*
X126474Y315260D01*
X127165Y315123D01*
X127857Y315260D01*
X128443Y315652D01*
X128834Y316238D01*
X128972Y316929D01*
X128834Y317620D01*
X128443Y318206D01*
X127857Y318598D01*
X127165Y318736D01*
D02*
G37*
G36*
X275590Y328773D02*
X274240Y328641D01*
X272941Y328246D01*
X271744Y327607D01*
X270695Y326746D01*
X269834Y325697D01*
X269194Y324500D01*
X268800Y323201D01*
X268668Y321850D01*
X268800Y320500D01*
X269194Y319201D01*
X269834Y318004D01*
X270695Y316955D01*
X271744Y316094D01*
X272941Y315454D01*
X274240Y315060D01*
X275590Y314927D01*
X276941Y315060D01*
X278240Y315454D01*
X279437Y316094D01*
X280486Y316955D01*
X281347Y318004D01*
X281987Y319201D01*
X282381Y320500D01*
X282514Y321850D01*
X282381Y323201D01*
X281987Y324500D01*
X281347Y325697D01*
X280486Y326746D01*
X279437Y327607D01*
X278240Y328246D01*
X276941Y328641D01*
X275590Y328773D01*
D02*
G37*
G36*
X137795D02*
X136445Y328641D01*
X135146Y328246D01*
X133949Y327607D01*
X132900Y326746D01*
X132039Y325697D01*
X131399Y324500D01*
X131005Y323201D01*
X130872Y321850D01*
X131005Y320500D01*
X131399Y319201D01*
X132039Y318004D01*
X132900Y316955D01*
X133949Y316094D01*
X135146Y315454D01*
X136445Y315060D01*
X137795Y314927D01*
X139146Y315060D01*
X140445Y315454D01*
X141642Y316094D01*
X142691Y316955D01*
X143552Y318004D01*
X144191Y319201D01*
X144585Y320500D01*
X144718Y321850D01*
X144585Y323201D01*
X144191Y324500D01*
X143552Y325697D01*
X142691Y326746D01*
X141642Y327607D01*
X140445Y328246D01*
X139146Y328641D01*
X137795Y328773D01*
D02*
G37*
G36*
X151575Y313625D02*
X150730Y313456D01*
X150013Y312978D01*
X149535Y312262D01*
X149367Y311417D01*
X149535Y310572D01*
X149698Y310328D01*
X150005Y309842D01*
X149698Y309356D01*
X149535Y309112D01*
X149367Y308267D01*
X149535Y307422D01*
X150013Y306706D01*
X150730Y306227D01*
X151575Y306059D01*
X152419Y306227D01*
X153136Y306706D01*
X153614Y307422D01*
X153782Y308267D01*
X153614Y309112D01*
X153451Y309356D01*
X153144Y309842D01*
X153451Y310328D01*
X153614Y310572D01*
X153782Y311417D01*
X153614Y312262D01*
X153136Y312978D01*
X152419Y313456D01*
X151575Y313625D01*
D02*
G37*
G36*
X118898Y305350D02*
X118206Y305212D01*
X117620Y304821D01*
X117618Y304817D01*
X117028D01*
X117025Y304821D01*
X116439Y305212D01*
X115748Y305350D01*
X115057Y305212D01*
X114471Y304821D01*
X114079Y304235D01*
X113942Y303543D01*
X114079Y302852D01*
X114471Y302266D01*
X115057Y301874D01*
X115748Y301737D01*
X116439Y301874D01*
X117025Y302266D01*
X117028Y302269D01*
X117618D01*
X117620Y302266D01*
X118206Y301874D01*
X118898Y301737D01*
X119589Y301874D01*
X120175Y302266D01*
X120566Y302852D01*
X120704Y303543D01*
X120566Y304235D01*
X120175Y304821D01*
X119589Y305212D01*
X118898Y305350D01*
D02*
G37*
G36*
X140500Y307806D02*
X139809Y307669D01*
X139223Y307277D01*
X138831Y306691D01*
X138694Y306000D01*
X138831Y305309D01*
X139223Y304723D01*
X139809Y304331D01*
X140500Y304194D01*
X141191Y304331D01*
X141777Y304723D01*
X142169Y305309D01*
X142306Y306000D01*
X142169Y306691D01*
X141777Y307277D01*
X141191Y307669D01*
X140500Y307806D01*
D02*
G37*
G36*
X111417Y307712D02*
X110726Y307574D01*
X110140Y307183D01*
X109748Y306597D01*
X109611Y305906D01*
X109748Y305214D01*
X110140Y304628D01*
X110726Y304237D01*
X111417Y304099D01*
X112109Y304237D01*
X112695Y304628D01*
X113086Y305214D01*
X113224Y305906D01*
X113086Y306597D01*
X112695Y307183D01*
X112109Y307574D01*
X111417Y307712D01*
D02*
G37*
G36*
X354331Y311058D02*
X353303Y310922D01*
X352345Y310526D01*
X351523Y309894D01*
X350892Y309072D01*
X350495Y308114D01*
X350360Y307087D01*
X350495Y306059D01*
X350892Y305101D01*
X351523Y304279D01*
X352345Y303648D01*
X353303Y303251D01*
X354331Y303116D01*
X355359Y303251D01*
X356316Y303648D01*
X357139Y304279D01*
X357770Y305101D01*
X358166Y306059D01*
X358302Y307087D01*
X358166Y308114D01*
X357770Y309072D01*
X357139Y309894D01*
X356316Y310526D01*
X355359Y310922D01*
X354331Y311058D01*
D02*
G37*
G36*
X336614Y311256D02*
X335535Y311114D01*
X334529Y310698D01*
X333666Y310035D01*
X333003Y309171D01*
X332587Y308166D01*
X332445Y307087D01*
X332587Y306008D01*
X333003Y305002D01*
X333666Y304138D01*
X334529Y303476D01*
X335535Y303059D01*
X336614Y302917D01*
X337693Y303059D01*
X338699Y303476D01*
X339563Y304138D01*
X340225Y305002D01*
X340642Y306008D01*
X340784Y307087D01*
X340642Y308166D01*
X340225Y309171D01*
X339563Y310035D01*
X338699Y310698D01*
X337693Y311114D01*
X336614Y311256D01*
D02*
G37*
G36*
X63779Y310082D02*
X62935Y309914D01*
X62218Y309435D01*
X61740Y308719D01*
X61572Y307874D01*
X61740Y307029D01*
X62218Y306313D01*
Y306286D01*
X61740Y305569D01*
X61572Y304724D01*
X61740Y303879D01*
X62218Y303163D01*
X62935Y302685D01*
X63779Y302517D01*
X64624Y302685D01*
X65341Y303163D01*
X65819Y303879D01*
X65987Y304724D01*
X65819Y305569D01*
X65341Y306286D01*
Y306313D01*
X65819Y307029D01*
X65987Y307874D01*
X65819Y308719D01*
X65341Y309435D01*
X64624Y309914D01*
X63779Y310082D01*
D02*
G37*
G36*
X102756Y307712D02*
X102065Y307574D01*
X101479Y307183D01*
X101087Y306597D01*
X100952Y305919D01*
X100812Y305374D01*
X100787Y305350D01*
X100096Y305212D01*
X99510Y304821D01*
X99119Y304235D01*
X98981Y303543D01*
X99119Y302852D01*
X99510Y302266D01*
X100096Y301874D01*
X100787Y301737D01*
X101479Y301874D01*
X102065Y302266D01*
X102456Y302852D01*
X102591Y303530D01*
X102732Y304075D01*
X102756Y304099D01*
X103447Y304237D01*
X104033Y304628D01*
X104425Y305214D01*
X104562Y305906D01*
X104425Y306597D01*
X104033Y307183D01*
X103447Y307574D01*
X102756Y307712D01*
D02*
G37*
G36*
X144095Y299050D02*
X143403Y298913D01*
X142817Y298521D01*
X142815Y298518D01*
X142224D01*
X142222Y298521D01*
X141636Y298913D01*
X140945Y299050D01*
X140254Y298913D01*
X139668Y298521D01*
X139276Y297935D01*
X139138Y297244D01*
X139276Y296553D01*
X139668Y295967D01*
X140254Y295575D01*
X140945Y295438D01*
X141636Y295575D01*
X142222Y295967D01*
X142224Y295970D01*
X142815D01*
X142817Y295967D01*
X143403Y295575D01*
X144095Y295438D01*
X144786Y295575D01*
X145372Y295967D01*
X145763Y296553D01*
X145901Y297244D01*
X145763Y297935D01*
X145372Y298521D01*
X144786Y298913D01*
X144095Y299050D01*
D02*
G37*
G36*
X114173Y297475D02*
X113482Y297338D01*
X112896Y296946D01*
X112504Y296360D01*
X112466Y296170D01*
X112203Y295691D01*
X111825Y295742D01*
X111500Y295806D01*
X110809Y295669D01*
X110223Y295277D01*
X109831Y294691D01*
X109694Y294000D01*
X109831Y293309D01*
X110223Y292723D01*
X110809Y292331D01*
X111500Y292194D01*
X112191Y292331D01*
X112777Y292723D01*
X113169Y293309D01*
X113207Y293498D01*
X113470Y293978D01*
X113848Y293927D01*
X114173Y293862D01*
X114864Y294000D01*
X115450Y294391D01*
X115842Y294977D01*
X115979Y295669D01*
X115842Y296360D01*
X115450Y296946D01*
X114864Y297338D01*
X114173Y297475D01*
D02*
G37*
G36*
X102756Y301413D02*
X102065Y301275D01*
X101479Y300884D01*
X101087Y300298D01*
X100952Y299620D01*
X100812Y299075D01*
X100787Y299050D01*
X100096Y298913D01*
X99510Y298521D01*
X99119Y297935D01*
X98981Y297244D01*
X99119Y296553D01*
X99510Y295967D01*
X100096Y295575D01*
X100787Y295438D01*
X101479Y295575D01*
X102065Y295967D01*
X102456Y296553D01*
X102591Y297231D01*
X102732Y297776D01*
X102756Y297800D01*
X103447Y297937D01*
X104033Y298329D01*
X104425Y298915D01*
X104562Y299606D01*
X104425Y300298D01*
X104033Y300884D01*
X103447Y301275D01*
X102756Y301413D01*
D02*
G37*
G36*
X125500Y298306D02*
X124809Y298169D01*
X124223Y297777D01*
X123831Y297191D01*
X123694Y296500D01*
X123831Y295809D01*
X124223Y295223D01*
X124809Y294831D01*
X125500Y294694D01*
X126191Y294831D01*
X126777Y295223D01*
X127169Y295809D01*
X127306Y296500D01*
X127169Y297191D01*
X126777Y297777D01*
X126191Y298169D01*
X125500Y298306D01*
D02*
G37*
G36*
X130315Y297082D02*
X129624Y296944D01*
X129038Y296553D01*
X128646Y295967D01*
X128509Y295276D01*
X128646Y294584D01*
X129038Y293998D01*
X129624Y293607D01*
X130315Y293469D01*
X131006Y293607D01*
X131592Y293998D01*
X131984Y294584D01*
X132121Y295276D01*
X131984Y295967D01*
X131592Y296553D01*
X131006Y296944D01*
X130315Y297082D01*
D02*
G37*
G36*
X102362Y293932D02*
X101671Y293795D01*
X101085Y293403D01*
X100693Y292817D01*
X100556Y292126D01*
X100693Y291435D01*
X101085Y290849D01*
X101671Y290457D01*
X102362Y290320D01*
X103053Y290457D01*
X103639Y290849D01*
X104031Y291435D01*
X104169Y292126D01*
X104031Y292817D01*
X103639Y293403D01*
X103053Y293795D01*
X102362Y293932D01*
D02*
G37*
G36*
X200787Y290192D02*
X200096Y290055D01*
X199510Y289663D01*
X199112D01*
X198526Y290055D01*
X197835Y290192D01*
X197143Y290055D01*
X196557Y289663D01*
X196166Y289077D01*
X196028Y288386D01*
X196166Y287695D01*
X196557Y287109D01*
Y286710D01*
X196166Y286124D01*
X196028Y285433D01*
X196166Y284742D01*
X196557Y284156D01*
X197143Y283764D01*
X197835Y283627D01*
X198526Y283764D01*
X199112Y284156D01*
X199510D01*
X200096Y283764D01*
X200787Y283627D01*
X201479Y283764D01*
X202065Y284156D01*
X202456Y284742D01*
X202594Y285433D01*
X202456Y286124D01*
X202065Y286710D01*
Y287109D01*
X202456Y287695D01*
X202594Y288386D01*
X202456Y289077D01*
X202065Y289663D01*
X201479Y290055D01*
X200787Y290192D01*
D02*
G37*
G36*
X163189Y299410D02*
X151772D01*
Y288386D01*
X163189D01*
Y299410D01*
D02*
G37*
G36*
X102371Y289611D02*
X101680Y289473D01*
X101094Y289082D01*
X100703Y288496D01*
X100565Y287804D01*
X100703Y287113D01*
X101094Y286527D01*
X101680Y286136D01*
X102371Y285998D01*
X103063Y286136D01*
X103649Y286527D01*
X104040Y287113D01*
X104178Y287804D01*
X104040Y288496D01*
X103649Y289082D01*
X103063Y289473D01*
X102371Y289611D01*
D02*
G37*
G36*
X90551Y289601D02*
X89860Y289464D01*
X89274Y289072D01*
X88882Y288486D01*
X88745Y287795D01*
X88882Y287104D01*
X88418Y286735D01*
X88285Y286708D01*
X87699Y286317D01*
X87308Y285731D01*
X87170Y285039D01*
X87308Y284348D01*
X87699Y283762D01*
X88285Y283370D01*
X88976Y283233D01*
X89668Y283370D01*
X90254Y283762D01*
X90645Y284348D01*
X90783Y285039D01*
X90645Y285731D01*
X91109Y286099D01*
X91242Y286126D01*
X91828Y286517D01*
X92220Y287103D01*
X92357Y287795D01*
X92220Y288486D01*
X91828Y289072D01*
X91242Y289464D01*
X90551Y289601D01*
D02*
G37*
G36*
X97244D02*
X96553Y289464D01*
X95967Y289072D01*
X95575Y288486D01*
X95438Y287795D01*
X95575Y287104D01*
X95112Y286734D01*
X94978Y286708D01*
X94392Y286316D01*
X94000Y285730D01*
X93863Y285039D01*
X94000Y284348D01*
X94392Y283762D01*
X94978Y283370D01*
X95669Y283232D01*
X96360Y283370D01*
X96946Y283762D01*
X97338Y284348D01*
X97475Y285039D01*
X97338Y285730D01*
X97802Y286099D01*
X97935Y286126D01*
X98521Y286517D01*
X98913Y287103D01*
X99050Y287795D01*
X98913Y288486D01*
X98521Y289072D01*
X97935Y289464D01*
X97244Y289601D01*
D02*
G37*
G36*
X84646Y289602D02*
X83954Y289464D01*
X83368Y289073D01*
X82977Y288487D01*
X82839Y287795D01*
X82928Y287348D01*
X82962Y287091D01*
X82528Y286713D01*
X82309Y286669D01*
X81723Y286277D01*
X81331Y285691D01*
X81194Y285000D01*
X81331Y284309D01*
X81723Y283723D01*
X82309Y283331D01*
X83000Y283194D01*
X83691Y283331D01*
X84277Y283723D01*
X84669Y284309D01*
X84806Y285000D01*
X84718Y285447D01*
X84683Y285704D01*
X85118Y286083D01*
X85337Y286126D01*
X85923Y286518D01*
X86314Y287104D01*
X86452Y287795D01*
X86314Y288487D01*
X85923Y289073D01*
X85337Y289464D01*
X84646Y289602D01*
D02*
G37*
G36*
X52756Y284877D02*
X52065Y284740D01*
X51479Y284348D01*
X51087Y283762D01*
X50950Y283071D01*
X51087Y282380D01*
X51479Y281794D01*
X52065Y281402D01*
X52756Y281264D01*
X53447Y281402D01*
X54033Y281794D01*
X54425Y282380D01*
X54562Y283071D01*
X54425Y283762D01*
X54033Y284348D01*
X53447Y284740D01*
X52756Y284877D01*
D02*
G37*
G36*
X111024Y287239D02*
X110332Y287102D01*
X109746Y286710D01*
X109355Y286124D01*
X109217Y285433D01*
X109355Y284742D01*
X109746Y284156D01*
Y283730D01*
X109355Y283144D01*
X109217Y282453D01*
X109355Y281762D01*
X109746Y281175D01*
X110332Y280784D01*
X111024Y280646D01*
X111715Y280784D01*
X112301Y281175D01*
X112692Y281762D01*
X112830Y282453D01*
X112692Y283144D01*
X112301Y283730D01*
Y284156D01*
X112692Y284742D01*
X112830Y285433D01*
X112692Y286124D01*
X112301Y286710D01*
X111715Y287102D01*
X111024Y287239D01*
D02*
G37*
G36*
X69685Y281334D02*
X68994Y281196D01*
X68408Y280805D01*
X68016Y280219D01*
X67879Y279528D01*
X68016Y278836D01*
X68408Y278250D01*
X68994Y277859D01*
X69685Y277721D01*
X70376Y277859D01*
X70962Y278250D01*
X71354Y278836D01*
X71491Y279528D01*
X71354Y280219D01*
X70962Y280805D01*
X70376Y281196D01*
X69685Y281334D01*
D02*
G37*
G36*
X101476Y278972D02*
X100785Y278834D01*
X100199Y278443D01*
X99808Y277857D01*
X99670Y277165D01*
X99808Y276474D01*
X100199Y275888D01*
X100785Y275497D01*
X101476Y275359D01*
X102168Y275497D01*
X102754Y275888D01*
X103145Y276474D01*
X103283Y277165D01*
X103145Y277857D01*
X102754Y278443D01*
X102168Y278834D01*
X101476Y278972D01*
D02*
G37*
G36*
X185039Y281722D02*
X184166Y281607D01*
X183352Y281270D01*
X182653Y280733D01*
X182116Y280034D01*
X181779Y279220D01*
X181664Y278346D01*
X181779Y277473D01*
X182116Y276659D01*
X182653Y275960D01*
X183352Y275423D01*
X184166Y275086D01*
X185039Y274971D01*
X185913Y275086D01*
X186727Y275423D01*
X187426Y275960D01*
X187962Y276659D01*
X188300Y277473D01*
X188415Y278346D01*
X188300Y279220D01*
X187962Y280034D01*
X187426Y280733D01*
X186727Y281270D01*
X185913Y281607D01*
X185039Y281722D01*
D02*
G37*
G36*
X127953D02*
X127079Y281607D01*
X126265Y281270D01*
X125566Y280733D01*
X125030Y280034D01*
X124692Y279220D01*
X124577Y278346D01*
X124692Y277473D01*
X125030Y276659D01*
X125566Y275960D01*
X126265Y275423D01*
X127079Y275086D01*
X127953Y274971D01*
X128826Y275086D01*
X129640Y275423D01*
X130340Y275960D01*
X130876Y276659D01*
X131213Y277473D01*
X131328Y278346D01*
X131213Y279220D01*
X130876Y280034D01*
X130340Y280733D01*
X129640Y281270D01*
X128826Y281607D01*
X127953Y281722D01*
D02*
G37*
G36*
X96457Y278578D02*
X95765Y278440D01*
X95179Y278049D01*
X94788Y277463D01*
X94650Y276772D01*
X94788Y276080D01*
X95179Y275494D01*
X95765Y275103D01*
X96457Y274965D01*
X97148Y275103D01*
X97734Y275494D01*
X98125Y276080D01*
X98263Y276772D01*
X98125Y277463D01*
X97734Y278049D01*
X97148Y278440D01*
X96457Y278578D01*
D02*
G37*
G36*
X79134Y278184D02*
X78443Y278047D01*
X77857Y277655D01*
X77465Y277069D01*
X77328Y276378D01*
X77465Y275687D01*
X77857Y275101D01*
X78443Y274709D01*
X79134Y274572D01*
X79825Y274709D01*
X80411Y275101D01*
X80803Y275687D01*
X80940Y276378D01*
X80803Y277069D01*
X80411Y277655D01*
X79825Y278047D01*
X79134Y278184D01*
D02*
G37*
G36*
X81496Y274247D02*
X80805Y274110D01*
X80219Y273718D01*
X79827Y273132D01*
X79690Y272441D01*
X79827Y271750D01*
X80219Y271164D01*
X80805Y270772D01*
X81496Y270635D01*
X82187Y270772D01*
X82773Y271164D01*
X83165Y271750D01*
X83302Y272441D01*
X83165Y273132D01*
X82773Y273718D01*
X82187Y274110D01*
X81496Y274247D01*
D02*
G37*
G36*
X91732Y273853D02*
X91041Y273716D01*
X90455Y273324D01*
X90063Y272738D01*
X89926Y272047D01*
X90063Y271355D01*
X90455Y270769D01*
X90458Y270767D01*
Y270177D01*
X90455Y270174D01*
X90063Y269588D01*
X89926Y268897D01*
X90063Y268206D01*
X90455Y267620D01*
X91041Y267228D01*
X91732Y267091D01*
X92423Y267228D01*
X93009Y267620D01*
X93401Y268206D01*
X93538Y268897D01*
X93401Y269588D01*
X93009Y270174D01*
X93006Y270177D01*
Y270767D01*
X93009Y270769D01*
X93401Y271355D01*
X93538Y272047D01*
X93401Y272738D01*
X93009Y273324D01*
X92423Y273716D01*
X91732Y273853D01*
D02*
G37*
G36*
X105905Y270704D02*
X105214Y270567D01*
X104628Y270175D01*
X104237Y269589D01*
X104099Y268898D01*
X104237Y268206D01*
X104628Y267620D01*
X105214Y267229D01*
X105905Y267091D01*
X106597Y267229D01*
X107183Y267620D01*
X107704Y267337D01*
X107778Y267226D01*
X108364Y266834D01*
X109055Y266697D01*
X109746Y266834D01*
X110332Y267226D01*
X110724Y267812D01*
X110861Y268503D01*
X110724Y269195D01*
X110332Y269781D01*
X109746Y270172D01*
X109055Y270310D01*
X108364Y270172D01*
X107778Y269781D01*
X107257Y270064D01*
X107183Y270175D01*
X106597Y270567D01*
X105905Y270704D01*
D02*
G37*
G36*
X127953Y272078D02*
X127028Y271956D01*
X126166Y271599D01*
X125741Y271273D01*
X128231Y268782D01*
X130722Y266292D01*
X131048Y266717D01*
X131405Y267579D01*
X131527Y268504D01*
X131405Y269429D01*
X131048Y270291D01*
X130480Y271031D01*
X129740Y271599D01*
X128878Y271956D01*
X127953Y272078D01*
D02*
G37*
G36*
X103543Y266767D02*
X102852Y266629D01*
X102266Y266237D01*
X102022Y265872D01*
X101841Y265655D01*
X101284Y265709D01*
X101085Y265842D01*
X100393Y265979D01*
X99702Y265842D01*
X99116Y265450D01*
X98725Y264864D01*
X98587Y264173D01*
X98725Y263481D01*
X99116Y262895D01*
X99702Y262504D01*
X100393Y262366D01*
X101085Y262504D01*
X101671Y262895D01*
X101915Y263261D01*
X102096Y263478D01*
X102653Y263424D01*
X102852Y263291D01*
X103543Y263154D01*
X104234Y263291D01*
X104820Y263683D01*
X105212Y264269D01*
X105350Y264960D01*
X105212Y265651D01*
X104820Y266237D01*
X104234Y266629D01*
X103543Y266767D01*
D02*
G37*
G36*
X125184Y270716D02*
X124858Y270291D01*
X124501Y269429D01*
X124379Y268504D01*
X124501Y267579D01*
X124858Y266717D01*
X125426Y265977D01*
X126166Y265409D01*
X127028Y265052D01*
X127953Y264930D01*
X128878Y265052D01*
X129740Y265409D01*
X130165Y265735D01*
X127674Y268226D01*
X125184Y270716D01*
D02*
G37*
G36*
X85039Y270704D02*
X84348Y270567D01*
X83762Y270175D01*
X83371Y269589D01*
X83233Y268898D01*
X83371Y268206D01*
X83762Y267620D01*
X83765Y267618D01*
Y267028D01*
X83762Y267025D01*
X83371Y266439D01*
X83233Y265748D01*
X83371Y265057D01*
X83762Y264471D01*
X84348Y264079D01*
X85039Y263942D01*
X85731Y264079D01*
X86317Y264471D01*
X86708Y265057D01*
X86846Y265748D01*
X86708Y266439D01*
X86317Y267025D01*
X86313Y267028D01*
Y267618D01*
X86317Y267620D01*
X86708Y268206D01*
X86846Y268898D01*
X86708Y269589D01*
X86317Y270175D01*
X85731Y270567D01*
X85039Y270704D01*
D02*
G37*
G36*
X76378Y262830D02*
X75687Y262692D01*
X75101Y262301D01*
X74709Y261715D01*
X74572Y261024D01*
X74709Y260332D01*
X75101Y259746D01*
X75687Y259355D01*
X76378Y259217D01*
X77069Y259355D01*
X77655Y259746D01*
X78047Y260332D01*
X78184Y261024D01*
X78047Y261715D01*
X77655Y262301D01*
X77069Y262692D01*
X76378Y262830D01*
D02*
G37*
G36*
X108268Y263582D02*
X107500Y263429D01*
X106849Y262994D01*
X106413Y262343D01*
X106261Y261575D01*
X106413Y260807D01*
X106849Y260156D01*
Y260041D01*
X106413Y259390D01*
X106261Y258622D01*
X106413Y257854D01*
X106849Y257203D01*
X107500Y256768D01*
X108268Y256615D01*
X109036Y256768D01*
X109687Y257203D01*
X110122Y257854D01*
X110275Y258622D01*
X110122Y259390D01*
X109687Y260041D01*
Y260156D01*
X110122Y260807D01*
X110275Y261575D01*
X110122Y262343D01*
X109687Y262994D01*
X109036Y263429D01*
X108268Y263582D01*
D02*
G37*
G36*
X185039Y262235D02*
X184114Y262113D01*
X183252Y261756D01*
X182827Y261430D01*
X185318Y258940D01*
X187808Y256449D01*
X188134Y256874D01*
X188491Y257736D01*
X188613Y258661D01*
X188491Y259586D01*
X188134Y260448D01*
X187566Y261189D01*
X186826Y261756D01*
X185964Y262113D01*
X185039Y262235D01*
D02*
G37*
G36*
X127953Y262037D02*
X127079Y261922D01*
X126265Y261584D01*
X125566Y261048D01*
X125030Y260349D01*
X124692Y259535D01*
X124577Y258661D01*
X124692Y257788D01*
X125030Y256974D01*
X125566Y256275D01*
X126265Y255738D01*
X127079Y255401D01*
X127953Y255286D01*
X128826Y255401D01*
X129640Y255738D01*
X130340Y256275D01*
X130876Y256974D01*
X131213Y257788D01*
X131328Y258661D01*
X131213Y259535D01*
X130876Y260349D01*
X130340Y261048D01*
X129640Y261584D01*
X128826Y261922D01*
X127953Y262037D01*
D02*
G37*
G36*
X182271Y260874D02*
X181944Y260448D01*
X181587Y259586D01*
X181465Y258661D01*
X181587Y257736D01*
X181944Y256874D01*
X182512Y256134D01*
X183252Y255566D01*
X184114Y255209D01*
X185039Y255088D01*
X185964Y255209D01*
X186826Y255566D01*
X187251Y255893D01*
X184761Y258383D01*
X182271Y260874D01*
D02*
G37*
G36*
X91339Y251806D02*
X90647Y251669D01*
X90061Y251277D01*
X89670Y250691D01*
X89532Y250000D01*
X89670Y249309D01*
X90061Y248723D01*
X90647Y248331D01*
X91339Y248194D01*
X92030Y248331D01*
X92616Y248723D01*
X93007Y249309D01*
X93145Y250000D01*
X93007Y250691D01*
X92616Y251277D01*
X92030Y251669D01*
X91339Y251806D01*
D02*
G37*
G36*
X85000Y251306D02*
X84309Y251169D01*
X83723Y250777D01*
X83331Y250191D01*
X83194Y249500D01*
X83331Y248809D01*
X83723Y248223D01*
X84309Y247831D01*
X85000Y247694D01*
X85691Y247831D01*
X86277Y248223D01*
X86669Y248809D01*
X86806Y249500D01*
X86669Y250191D01*
X86277Y250777D01*
X85691Y251169D01*
X85000Y251306D01*
D02*
G37*
G36*
X66929Y247869D02*
X66238Y247732D01*
X65652Y247340D01*
X65260Y246754D01*
X65123Y246063D01*
X65260Y245372D01*
X65652Y244786D01*
X66238Y244394D01*
X66929Y244257D01*
X67620Y244394D01*
X68206Y244786D01*
X68598Y245372D01*
X68735Y246063D01*
X68598Y246754D01*
X68206Y247340D01*
X67620Y247732D01*
X66929Y247869D01*
D02*
G37*
G36*
X72047Y249842D02*
X71279Y249689D01*
X70628Y249254D01*
X70193Y248603D01*
X70040Y247835D01*
X70193Y247067D01*
X70628Y246415D01*
X71279Y245980D01*
X72047Y245828D01*
X72493Y245314D01*
X72555Y245000D01*
X72990Y244349D01*
X73641Y243913D01*
X74410Y243761D01*
X75178Y243913D01*
X75829Y244349D01*
X76264Y245000D01*
X76416Y245768D01*
X76264Y246536D01*
X75829Y247187D01*
X75178Y247622D01*
X74410Y247775D01*
X73964Y248288D01*
X73901Y248603D01*
X73466Y249254D01*
X72815Y249689D01*
X72047Y249842D01*
D02*
G37*
G36*
X163189Y248622D02*
X151772D01*
Y237598D01*
X163189D01*
Y248622D01*
D02*
G37*
G36*
X89370Y240783D02*
X88679Y240645D01*
X88093Y240254D01*
X87701Y239668D01*
X87564Y238976D01*
X87701Y238285D01*
X88093Y237699D01*
X88679Y237308D01*
X89370Y237170D01*
X90061Y237308D01*
X90647Y237699D01*
X91039Y238285D01*
X91176Y238976D01*
X91039Y239668D01*
X90647Y240254D01*
X90061Y240645D01*
X89370Y240783D01*
D02*
G37*
G36*
X123228Y234484D02*
X122537Y234346D01*
X121951Y233955D01*
X121560Y233368D01*
X121422Y232677D01*
X121560Y231986D01*
X121951Y231400D01*
X122537Y231008D01*
X123228Y230871D01*
X123920Y231008D01*
X124506Y231400D01*
X124897Y231986D01*
X125035Y232677D01*
X124897Y233368D01*
X124506Y233955D01*
X123920Y234346D01*
X123228Y234484D01*
D02*
G37*
G36*
X134646Y232515D02*
X133954Y232378D01*
X133368Y231986D01*
X132977Y231400D01*
X132839Y230709D01*
X132977Y230017D01*
X133368Y229431D01*
X133954Y229040D01*
X134646Y228902D01*
X135337Y229040D01*
X135923Y229431D01*
X136314Y230017D01*
X136452Y230709D01*
X136314Y231400D01*
X135923Y231986D01*
X135337Y232378D01*
X134646Y232515D01*
D02*
G37*
G36*
X166339Y228184D02*
X165647Y228047D01*
X165277Y227799D01*
X164862Y227702D01*
X164447Y227799D01*
X164077Y228047D01*
X163386Y228184D01*
X162695Y228047D01*
X162109Y227655D01*
X161717Y227069D01*
X161580Y226378D01*
X161717Y225687D01*
X161964Y225316D01*
X162062Y224902D01*
X161964Y224487D01*
X161717Y224116D01*
X161580Y223425D01*
X161717Y222734D01*
X162109Y222148D01*
X162695Y221756D01*
X163386Y221619D01*
X164077Y221756D01*
X164447Y222004D01*
X164862Y222101D01*
X165277Y222004D01*
X165647Y221756D01*
X166339Y221619D01*
X167030Y221756D01*
X167616Y222148D01*
X168007Y222734D01*
X168145Y223425D01*
X168007Y224116D01*
X167760Y224487D01*
X167663Y224902D01*
X167760Y225316D01*
X168007Y225687D01*
X168145Y226378D01*
X168007Y227069D01*
X167616Y227655D01*
X167030Y228047D01*
X166339Y228184D01*
D02*
G37*
G36*
X53937Y228578D02*
X53246Y228440D01*
X52660Y228049D01*
X52268Y227463D01*
X52131Y226772D01*
X52268Y226080D01*
X52660Y225494D01*
X53246Y225103D01*
X53937Y224965D01*
X54628Y225103D01*
X55214Y225494D01*
X55606Y226080D01*
X55743Y226772D01*
X55606Y227463D01*
X55214Y228049D01*
X54628Y228440D01*
X53937Y228578D01*
D02*
G37*
G36*
X146457Y227397D02*
X145765Y227259D01*
X145179Y226868D01*
X144788Y226282D01*
X144650Y225590D01*
X144788Y224899D01*
X145179Y224313D01*
X145765Y223922D01*
X146457Y223784D01*
X147148Y223922D01*
X147734Y224313D01*
X148126Y224899D01*
X148263Y225590D01*
X148126Y226282D01*
X147734Y226868D01*
X147148Y227259D01*
X146457Y227397D01*
D02*
G37*
G36*
X185039Y235270D02*
X183689Y235137D01*
X182390Y234743D01*
X181193Y234103D01*
X180144Y233242D01*
X179283Y232193D01*
X178643Y230996D01*
X178249Y229697D01*
X178116Y228346D01*
X178249Y226996D01*
X178643Y225697D01*
X179283Y224500D01*
X180144Y223451D01*
X181193Y222590D01*
X182390Y221950D01*
X183689Y221556D01*
X185039Y221423D01*
X186390Y221556D01*
X187689Y221950D01*
X188886Y222590D01*
X189935Y223451D01*
X190796Y224500D01*
X191436Y225697D01*
X191829Y226996D01*
X191963Y228346D01*
X191829Y229697D01*
X191436Y230996D01*
X190796Y232193D01*
X189935Y233242D01*
X188886Y234103D01*
X187689Y234743D01*
X186390Y235137D01*
X185039Y235270D01*
D02*
G37*
G36*
X131496Y222279D02*
X130805Y222141D01*
X130219Y221750D01*
X129827Y221164D01*
X129690Y220472D01*
X129827Y219781D01*
X130219Y219195D01*
X130805Y218804D01*
X131496Y218666D01*
X132187Y218804D01*
X132773Y219195D01*
X133165Y219781D01*
X133302Y220472D01*
X133165Y221164D01*
X132773Y221750D01*
X132187Y222141D01*
X131496Y222279D01*
D02*
G37*
G36*
X63779Y216767D02*
X63088Y216630D01*
X62502Y216238D01*
X62111Y215652D01*
X61973Y214961D01*
X62111Y214269D01*
X62502Y213683D01*
X63088Y213292D01*
X63779Y213154D01*
X64471Y213292D01*
X65057Y213683D01*
X65448Y214269D01*
X65586Y214961D01*
X65448Y215652D01*
X65057Y216238D01*
X64471Y216630D01*
X63779Y216767D01*
D02*
G37*
G36*
X39500Y214806D02*
X38809Y214669D01*
X38223Y214277D01*
X37831Y213691D01*
X37694Y213000D01*
X37831Y212309D01*
X38223Y211723D01*
X38809Y211331D01*
X39500Y211194D01*
X40191Y211331D01*
X40777Y211723D01*
X41169Y212309D01*
X41306Y213000D01*
X41169Y213691D01*
X40777Y214277D01*
X40191Y214669D01*
X39500Y214806D01*
D02*
G37*
G36*
X133858Y212830D02*
X133167Y212692D01*
X132581Y212301D01*
X132189Y211715D01*
X132052Y211024D01*
X132189Y210332D01*
X132581Y209746D01*
X133167Y209355D01*
X133858Y209217D01*
X134549Y209355D01*
X135136Y209746D01*
X135527Y210332D01*
X135665Y211024D01*
X135527Y211715D01*
X135136Y212301D01*
X134549Y212692D01*
X133858Y212830D01*
D02*
G37*
G36*
X146850Y209287D02*
X146159Y209149D01*
X145573Y208758D01*
X145182Y208172D01*
X145044Y207480D01*
X145182Y206789D01*
X145573Y206203D01*
X146159Y205812D01*
X146850Y205674D01*
X147542Y205812D01*
X148128Y206203D01*
X148519Y206789D01*
X148657Y207480D01*
X148519Y208172D01*
X148128Y208758D01*
X147542Y209149D01*
X146850Y209287D01*
D02*
G37*
G36*
X140551D02*
X139860Y209149D01*
X139274Y208758D01*
X138882Y208172D01*
X138745Y207480D01*
X138882Y206789D01*
X139274Y206203D01*
X139860Y205812D01*
X140551Y205674D01*
X141242Y205812D01*
X141829Y206203D01*
X142220Y206789D01*
X142358Y207480D01*
X142220Y208172D01*
X141829Y208758D01*
X141242Y209149D01*
X140551Y209287D01*
D02*
G37*
G36*
X44587Y209192D02*
X43819Y209039D01*
X43167Y208604D01*
X42732Y207953D01*
X42579Y207185D01*
X42732Y206417D01*
X43167Y205766D01*
X43819Y205331D01*
X44587Y205178D01*
X45355Y205331D01*
X46006Y205766D01*
X46441Y206417D01*
X46594Y207185D01*
X46441Y207953D01*
X46006Y208604D01*
X45355Y209039D01*
X44587Y209192D01*
D02*
G37*
G36*
X63779Y206531D02*
X63088Y206393D01*
X62502Y206002D01*
X62111Y205416D01*
X61973Y204724D01*
X62111Y204033D01*
X62502Y203447D01*
X63088Y203056D01*
X63779Y202918D01*
X64471Y203056D01*
X65057Y203447D01*
X65448Y204033D01*
X65586Y204724D01*
X65448Y205416D01*
X65057Y206002D01*
X64471Y206393D01*
X63779Y206531D01*
D02*
G37*
G36*
X131496Y202988D02*
X130805Y202850D01*
X130219Y202458D01*
X129827Y201872D01*
X129690Y201181D01*
X129827Y200490D01*
X130219Y199904D01*
X130805Y199512D01*
X131496Y199375D01*
X132187Y199512D01*
X132773Y199904D01*
X133165Y200490D01*
X133302Y201181D01*
X133165Y201872D01*
X132773Y202458D01*
X132187Y202850D01*
X131496Y202988D01*
D02*
G37*
G36*
X153150Y193539D02*
X152458Y193401D01*
X151969Y193074D01*
X151479Y193401D01*
X150787Y193539D01*
X150096Y193401D01*
X149510Y193010D01*
X149118Y192423D01*
X148981Y191732D01*
X149118Y191041D01*
X149446Y190551D01*
X149118Y190061D01*
X148981Y189370D01*
X149118Y188679D01*
X149510Y188093D01*
X150096Y187701D01*
X150787Y187564D01*
X151479Y187701D01*
X151969Y188029D01*
X152458Y187701D01*
X153150Y187564D01*
X153841Y187701D01*
X154427Y188093D01*
X154818Y188679D01*
X154956Y189370D01*
X154818Y190061D01*
X154491Y190551D01*
X154818Y191041D01*
X154956Y191732D01*
X154818Y192423D01*
X154427Y193010D01*
X153841Y193401D01*
X153150Y193539D01*
D02*
G37*
G36*
X271654Y174050D02*
X270962Y173913D01*
X270592Y173666D01*
X270177Y173568D01*
X269762Y173666D01*
X269392Y173913D01*
X268701Y174050D01*
X268009Y173913D01*
X267424Y173521D01*
X267025D01*
X266439Y173913D01*
X265748Y174050D01*
X265057Y173913D01*
X264686Y173666D01*
X264272Y173568D01*
X263857Y173666D01*
X263487Y173913D01*
X262795Y174050D01*
X262104Y173913D01*
X261518Y173521D01*
X261120D01*
X260534Y173913D01*
X259842Y174050D01*
X259151Y173913D01*
X258565Y173521D01*
X258174Y172935D01*
X258036Y172244D01*
X258174Y171553D01*
X258421Y171183D01*
X258519Y170768D01*
X258421Y170353D01*
X258174Y169983D01*
X258036Y169291D01*
X258174Y168600D01*
X258565Y168014D01*
X259151Y167622D01*
X259842Y167485D01*
X260534Y167622D01*
X261120Y168014D01*
X261518D01*
X262104Y167622D01*
X262795Y167485D01*
X263487Y167622D01*
X263857Y167870D01*
X264272Y167967D01*
X264686Y167870D01*
X265057Y167622D01*
X265748Y167485D01*
X266439Y167622D01*
X267025Y168014D01*
X267424D01*
X268009Y167622D01*
X268701Y167485D01*
X269392Y167622D01*
X269762Y167870D01*
X270177Y167967D01*
X270592Y167870D01*
X270962Y167622D01*
X271654Y167485D01*
X272345Y167622D01*
X272931Y168014D01*
X273322Y168600D01*
X273460Y169291D01*
X273322Y169983D01*
X273075Y170353D01*
X272978Y170768D01*
X273075Y171183D01*
X273322Y171553D01*
X273460Y172244D01*
X273322Y172935D01*
X272931Y173521D01*
X272345Y173913D01*
X271654Y174050D01*
D02*
G37*
G36*
X137205Y166373D02*
X136513Y166236D01*
X136024Y165909D01*
X135534Y166236D01*
X134843Y166373D01*
X134151Y166236D01*
X133661Y165909D01*
X133172Y166236D01*
X132480Y166373D01*
X131789Y166236D01*
X131203Y165844D01*
X130812Y165258D01*
X130674Y164567D01*
X130812Y163876D01*
X131203Y163290D01*
X131789Y162898D01*
X132480Y162761D01*
X133172Y162898D01*
X133661Y163225D01*
X134151Y162898D01*
X134843Y162761D01*
X135534Y162898D01*
X136024Y163225D01*
X136513Y162898D01*
X137205Y162761D01*
X137896Y162898D01*
X138482Y163290D01*
X138874Y163876D01*
X139011Y164567D01*
X138874Y165258D01*
X138482Y165844D01*
X137896Y166236D01*
X137205Y166373D01*
D02*
G37*
G36*
X185039Y160074D02*
X184348Y159937D01*
X183762Y159545D01*
X183370Y158959D01*
X183344Y158825D01*
X182975Y158362D01*
X182283Y158499D01*
X181592Y158362D01*
X181006Y157970D01*
X180615Y157384D01*
X180477Y156693D01*
X180615Y156002D01*
X181006Y155416D01*
X181592Y155024D01*
X182283Y154887D01*
X182975Y155024D01*
X183561Y155416D01*
X183952Y156002D01*
X183979Y156135D01*
X184348Y156599D01*
X185039Y156461D01*
X185731Y156599D01*
X186317Y156990D01*
X186708Y157577D01*
X186846Y158268D01*
X186708Y158959D01*
X186317Y159545D01*
X185731Y159937D01*
X185039Y160074D01*
D02*
G37*
G36*
X52480Y163160D02*
X51245Y163039D01*
X50058Y162679D01*
X48964Y162094D01*
X48004Y161307D01*
X47217Y160347D01*
X46632Y159253D01*
X46272Y158066D01*
X46151Y156831D01*
X46272Y155596D01*
X46632Y154408D01*
X47217Y153314D01*
X48004Y152355D01*
X48964Y151568D01*
X50058Y150983D01*
X51245Y150623D01*
X52480Y150501D01*
X53715Y150623D01*
X54903Y150983D01*
X55997Y151568D01*
X56956Y152355D01*
X57743Y153314D01*
X58328Y154408D01*
X58688Y155596D01*
X58810Y156831D01*
X58688Y158066D01*
X58328Y159253D01*
X57743Y160347D01*
X56956Y161307D01*
X55997Y162094D01*
X54903Y162679D01*
X53715Y163039D01*
X52480Y163160D01*
D02*
G37*
G36*
X119291Y148657D02*
X118600Y148519D01*
X118014Y148128D01*
X117622Y147542D01*
X117485Y146850D01*
X117622Y146159D01*
X118014Y145573D01*
X118600Y145182D01*
X119291Y145044D01*
X119983Y145182D01*
X120352Y144718D01*
X120378Y144584D01*
X120770Y143998D01*
X121356Y143607D01*
X122047Y143469D01*
X122739Y143607D01*
X123325Y143998D01*
X123716Y144584D01*
X123854Y145276D01*
X123716Y145967D01*
X123325Y146553D01*
X122739Y146944D01*
X122047Y147082D01*
X121356Y146944D01*
X120987Y147408D01*
X120960Y147542D01*
X120569Y148128D01*
X119983Y148519D01*
X119291Y148657D01*
D02*
G37*
G36*
X67500Y147192D02*
X66113Y147009D01*
X64820Y146473D01*
X63709Y145621D01*
X62857Y144511D01*
X62322Y143218D01*
X62139Y141831D01*
X62322Y140443D01*
X62857Y139150D01*
X63709Y138040D01*
X64820Y137188D01*
X66113Y136653D01*
X67500Y136470D01*
X68888Y136653D01*
X70180Y137188D01*
X71291Y138040D01*
X72143Y139150D01*
X72678Y140443D01*
X72861Y141831D01*
X72678Y143218D01*
X72143Y144511D01*
X71291Y145621D01*
X70180Y146473D01*
X68888Y147009D01*
X67500Y147192D01*
D02*
G37*
G36*
X186024Y134090D02*
X185332Y133952D01*
X184843Y133625D01*
X184353Y133952D01*
X183661Y134090D01*
X182970Y133952D01*
X182384Y133561D01*
X181993Y132975D01*
X181855Y132283D01*
X181985Y131629D01*
X181789Y131590D01*
X181203Y131199D01*
X180812Y130613D01*
X180674Y129921D01*
X180812Y129230D01*
X181203Y128644D01*
X181789Y128252D01*
X182480Y128115D01*
X183172Y128252D01*
X183661Y128580D01*
X184151Y128252D01*
X184843Y128115D01*
X185534Y128252D01*
X186120Y128644D01*
X186511Y129230D01*
X186649Y129921D01*
X186519Y130576D01*
X186715Y130615D01*
X187301Y131006D01*
X187692Y131592D01*
X187830Y132283D01*
X187692Y132975D01*
X187301Y133561D01*
X186715Y133952D01*
X186024Y134090D01*
D02*
G37*
G36*
X101968Y136452D02*
X101277Y136314D01*
X100691Y135923D01*
X100299Y135337D01*
X100162Y134645D01*
X100299Y133954D01*
X100691Y133368D01*
X101277Y132976D01*
X101968Y132839D01*
X102660Y132976D01*
X103246Y133368D01*
X103637Y133954D01*
X103775Y134645D01*
X103637Y135337D01*
X103246Y135923D01*
X102660Y136314D01*
X101968Y136452D01*
D02*
G37*
G36*
X95669D02*
X94978Y136314D01*
X94392Y135923D01*
X94000Y135337D01*
X93863Y134645D01*
X94000Y133954D01*
X94392Y133368D01*
X94978Y132976D01*
X95669Y132839D01*
X96360Y132976D01*
X96946Y133368D01*
X97338Y133954D01*
X97475Y134645D01*
X97338Y135337D01*
X96946Y135923D01*
X96360Y136314D01*
X95669Y136452D01*
D02*
G37*
G36*
X122047Y134484D02*
X121356Y134346D01*
X120770Y133955D01*
X120378Y133368D01*
X120241Y132677D01*
X120378Y131986D01*
X120770Y131400D01*
X121356Y131008D01*
X122047Y130871D01*
X122739Y131008D01*
X123325Y131400D01*
X123716Y131986D01*
X123854Y132677D01*
X123716Y133368D01*
X123325Y133955D01*
X122739Y134346D01*
X122047Y134484D01*
D02*
G37*
G36*
X271654Y130743D02*
X270962Y130606D01*
X270592Y130359D01*
X270177Y130261D01*
X269762Y130359D01*
X269392Y130606D01*
X268701Y130743D01*
X268009Y130606D01*
X267424Y130214D01*
X267025D01*
X266439Y130606D01*
X265748Y130743D01*
X265057Y130606D01*
X264686Y130359D01*
X264272Y130261D01*
X263857Y130359D01*
X263487Y130606D01*
X262795Y130743D01*
X262104Y130606D01*
X261518Y130214D01*
X261120D01*
X260534Y130606D01*
X259842Y130743D01*
X259151Y130606D01*
X258565Y130214D01*
X258174Y129628D01*
X258036Y128937D01*
X258174Y128246D01*
X258421Y127875D01*
X258519Y127461D01*
X258421Y127046D01*
X258174Y126675D01*
X258036Y125984D01*
X258174Y125293D01*
X258565Y124707D01*
X259151Y124315D01*
X259842Y124178D01*
X260534Y124315D01*
X261120Y124707D01*
X261518D01*
X262104Y124315D01*
X262795Y124178D01*
X263487Y124315D01*
X263857Y124563D01*
X264272Y124660D01*
X264686Y124563D01*
X265057Y124315D01*
X265748Y124178D01*
X266439Y124315D01*
X267025Y124707D01*
X267424D01*
X268009Y124315D01*
X268701Y124178D01*
X269392Y124315D01*
X269762Y124563D01*
X270177Y124660D01*
X270592Y124563D01*
X270962Y124315D01*
X271654Y124178D01*
X272345Y124315D01*
X272931Y124707D01*
X273322Y125293D01*
X273460Y125984D01*
X273322Y126675D01*
X273075Y127046D01*
X272978Y127461D01*
X273075Y127875D01*
X273322Y128246D01*
X273460Y128937D01*
X273322Y129628D01*
X272931Y130214D01*
X272345Y130606D01*
X271654Y130743D01*
D02*
G37*
G36*
X88976Y131334D02*
X88285Y131196D01*
X87699Y130805D01*
X87308Y130219D01*
X87170Y129528D01*
X87308Y128836D01*
X87699Y128250D01*
X88285Y127859D01*
X88976Y127721D01*
X89668Y127859D01*
X90254Y128250D01*
X90645Y128836D01*
X90783Y129528D01*
X90645Y130219D01*
X90254Y130805D01*
X89668Y131196D01*
X88976Y131334D01*
D02*
G37*
G36*
X111811Y127791D02*
X111120Y127653D01*
X110534Y127261D01*
X110142Y126675D01*
X110005Y125984D01*
X110142Y125293D01*
X110534Y124707D01*
X111120Y124315D01*
X111811Y124178D01*
X112502Y124315D01*
X113088Y124707D01*
X113480Y125293D01*
X113617Y125984D01*
X113480Y126675D01*
X113088Y127261D01*
X112502Y127653D01*
X111811Y127791D01*
D02*
G37*
G36*
X187205Y121688D02*
X186513Y121551D01*
X186024Y121223D01*
X185534Y121551D01*
X184843Y121688D01*
X184151Y121551D01*
X183661Y121223D01*
X183172Y121551D01*
X182480Y121688D01*
X181789Y121551D01*
X181203Y121159D01*
X180812Y120573D01*
X180674Y119882D01*
X180812Y119191D01*
X181203Y118605D01*
X181789Y118213D01*
X182480Y118076D01*
X183172Y118213D01*
X183661Y118540D01*
X184151Y118213D01*
X184843Y118076D01*
X185534Y118213D01*
X186024Y118540D01*
X186513Y118213D01*
X187205Y118076D01*
X187896Y118213D01*
X188482Y118605D01*
X188874Y119191D01*
X189011Y119882D01*
X188874Y120573D01*
X188482Y121159D01*
X187896Y121551D01*
X187205Y121688D01*
D02*
G37*
G36*
X98854Y124444D02*
X98163Y124307D01*
X97577Y123915D01*
X97185Y123329D01*
X97048Y122638D01*
X97185Y121947D01*
X97577Y121361D01*
X98163Y120969D01*
X98854Y120831D01*
X99546Y120969D01*
X99936Y121230D01*
X100674Y121189D01*
X100691Y121163D01*
X101277Y120772D01*
X101968Y120634D01*
X102660Y120772D01*
X103246Y121163D01*
X103637Y121749D01*
X103775Y122441D01*
X103637Y123132D01*
X103246Y123718D01*
X102660Y124110D01*
X101968Y124247D01*
X101277Y124110D01*
X100886Y123848D01*
X100149Y123889D01*
X100132Y123915D01*
X99546Y124307D01*
X98854Y124444D01*
D02*
G37*
G36*
X143701Y120310D02*
X143009Y120173D01*
X142423Y119781D01*
X142032Y119195D01*
X141894Y118504D01*
X142032Y117813D01*
X142423Y117227D01*
X143009Y116835D01*
X143701Y116698D01*
X144392Y116835D01*
X144978Y117227D01*
X145370Y117813D01*
X145507Y118504D01*
X145370Y119195D01*
X144978Y119781D01*
X144392Y120173D01*
X143701Y120310D01*
D02*
G37*
G36*
X126378Y120117D02*
X125610Y119965D01*
X124959Y119529D01*
X124524Y118878D01*
X124371Y118110D01*
X124524Y117342D01*
X124959Y116691D01*
X125610Y116256D01*
X126378Y116103D01*
X127146Y116256D01*
X127797Y116691D01*
X128232Y117342D01*
X128385Y118110D01*
X128232Y118878D01*
X127797Y119529D01*
X127146Y119965D01*
X126378Y120117D01*
D02*
G37*
G36*
X134645Y118342D02*
X133954Y118204D01*
X133368Y117813D01*
X132976Y117227D01*
X132839Y116535D01*
X132976Y115844D01*
X133368Y115258D01*
X133954Y114866D01*
X134645Y114729D01*
X135337Y114866D01*
X135923Y115258D01*
X136314Y115844D01*
X136452Y116535D01*
X136314Y117227D01*
X135923Y117813D01*
X135337Y118204D01*
X134645Y118342D01*
D02*
G37*
G36*
X187205Y114208D02*
X186513Y114070D01*
X186024Y113743D01*
X185534Y114070D01*
X184843Y114208D01*
X184151Y114070D01*
X183661Y113743D01*
X183172Y114070D01*
X182480Y114208D01*
X181789Y114070D01*
X181203Y113679D01*
X180812Y113093D01*
X180674Y112402D01*
X180812Y111710D01*
X181203Y111124D01*
X181789Y110733D01*
X182480Y110595D01*
X183172Y110733D01*
X183661Y111060D01*
X184151Y110733D01*
X184843Y110595D01*
X185534Y110733D01*
X186024Y111060D01*
X186513Y110733D01*
X187205Y110595D01*
X187896Y110733D01*
X188482Y111124D01*
X188874Y111710D01*
X189011Y112402D01*
X188874Y113093D01*
X188482Y113679D01*
X187896Y114070D01*
X187205Y114208D01*
D02*
G37*
G36*
X271654Y108106D02*
X270962Y107968D01*
X270376Y107577D01*
X269978D01*
X269392Y107968D01*
X268701Y108106D01*
X268009Y107968D01*
X267639Y107721D01*
X267224Y107623D01*
X266810Y107721D01*
X266439Y107968D01*
X265748Y108106D01*
X265057Y107968D01*
X264471Y107577D01*
X264073D01*
X263487Y107968D01*
X262795Y108106D01*
X262104Y107968D01*
X261734Y107721D01*
X261319Y107623D01*
X260904Y107721D01*
X260534Y107968D01*
X259842Y108106D01*
X259151Y107968D01*
X258565Y107577D01*
X258174Y106991D01*
X258036Y106299D01*
X258174Y105608D01*
X258421Y105238D01*
X258519Y104823D01*
X258421Y104408D01*
X258174Y104038D01*
X258036Y103347D01*
X258174Y102655D01*
X258565Y102069D01*
X259151Y101678D01*
X259842Y101540D01*
X260534Y101678D01*
X260904Y101925D01*
X261319Y102022D01*
X261734Y101925D01*
X262104Y101678D01*
X262795Y101540D01*
X263487Y101678D01*
X264073Y102069D01*
X264471D01*
X265057Y101678D01*
X265748Y101540D01*
X266439Y101678D01*
X266810Y101925D01*
X267224Y102022D01*
X267639Y101925D01*
X268009Y101678D01*
X268701Y101540D01*
X269392Y101678D01*
X269978Y102069D01*
X270376D01*
X270962Y101678D01*
X271654Y101540D01*
X272345Y101678D01*
X272931Y102069D01*
X273322Y102655D01*
X273460Y103347D01*
X273322Y104038D01*
X273075Y104408D01*
X272978Y104823D01*
X273075Y105238D01*
X273322Y105608D01*
X273460Y106299D01*
X273322Y106991D01*
X272931Y107577D01*
X272345Y107968D01*
X271654Y108106D01*
D02*
G37*
G36*
X184843Y104169D02*
X184151Y104031D01*
X183661Y103704D01*
X183172Y104031D01*
X182480Y104169D01*
X181789Y104031D01*
X181203Y103639D01*
X180812Y103053D01*
X180674Y102362D01*
X180812Y101671D01*
X181203Y101085D01*
X181789Y100693D01*
X181985Y100654D01*
X181855Y100000D01*
X181993Y99309D01*
X182384Y98723D01*
X182970Y98331D01*
X183661Y98194D01*
X184353Y98331D01*
X184843Y98658D01*
X185332Y98331D01*
X186024Y98194D01*
X186715Y98331D01*
X187301Y98723D01*
X187692Y99309D01*
X187830Y100000D01*
X187692Y100691D01*
X187301Y101277D01*
X186715Y101669D01*
X186519Y101708D01*
X186649Y102362D01*
X186511Y103053D01*
X186120Y103639D01*
X185534Y104031D01*
X184843Y104169D01*
D02*
G37*
G36*
X122834Y110668D02*
X122066Y110515D01*
X121415Y110080D01*
X120980Y109429D01*
X120827Y108661D01*
X120980Y107893D01*
X121231Y107518D01*
X121367Y107087D01*
X121231Y106655D01*
X120980Y106280D01*
X120828Y105512D01*
X120980Y104744D01*
X121415Y104093D01*
X122067Y103657D01*
X122835Y103505D01*
X123603Y103657D01*
X124254Y104093D01*
X124689Y104744D01*
X124842Y105512D01*
X124689Y106280D01*
X124438Y106655D01*
X124303Y107086D01*
X124438Y107518D01*
X124689Y107893D01*
X124841Y108661D01*
X124689Y109429D01*
X124254Y110080D01*
X123602Y110515D01*
X122834Y110668D01*
D02*
G37*
G36*
X129528Y102594D02*
X128836Y102456D01*
X128250Y102065D01*
X127859Y101479D01*
X127721Y100787D01*
X127859Y100096D01*
X128250Y99510D01*
X128836Y99119D01*
X129528Y98981D01*
X130219Y99119D01*
X130805Y99510D01*
X131196Y100096D01*
X131334Y100787D01*
X131196Y101479D01*
X130805Y102065D01*
X130219Y102456D01*
X129528Y102594D01*
D02*
G37*
G36*
X137008Y97082D02*
X136317Y96944D01*
X135731Y96553D01*
X135339Y95967D01*
X135202Y95276D01*
X135339Y94584D01*
X135731Y93998D01*
X136317Y93607D01*
X137008Y93469D01*
X137699Y93607D01*
X138285Y93998D01*
X138677Y94584D01*
X138814Y95276D01*
X138677Y95967D01*
X138285Y96553D01*
X137699Y96944D01*
X137008Y97082D01*
D02*
G37*
G36*
X114567Y95113D02*
X113876Y94976D01*
X113290Y94584D01*
X112898Y93998D01*
X112761Y93307D01*
X112898Y92616D01*
X113290Y92030D01*
X113876Y91638D01*
X114567Y91501D01*
X115258Y91638D01*
X115844Y92030D01*
X116236Y92616D01*
X116373Y93307D01*
X116236Y93998D01*
X115844Y94584D01*
X115258Y94976D01*
X114567Y95113D01*
D02*
G37*
G36*
X111024Y84090D02*
X110332Y83952D01*
X109746Y83561D01*
X109355Y82975D01*
X109217Y82284D01*
X109355Y81592D01*
X109746Y81006D01*
X110332Y80615D01*
X111024Y80477D01*
X111715Y80615D01*
X112301Y81006D01*
X112692Y81592D01*
X112830Y82284D01*
X112692Y82975D01*
X112301Y83561D01*
X111715Y83952D01*
X111024Y84090D01*
D02*
G37*
G36*
X94500Y80956D02*
X93809Y80818D01*
X93223Y80427D01*
X92831Y79841D01*
X92694Y79150D01*
X92831Y78458D01*
X93223Y77872D01*
X93809Y77481D01*
X94500Y77343D01*
X95191Y77481D01*
X95777Y77872D01*
X96169Y78458D01*
X96306Y79150D01*
X96169Y79841D01*
X95777Y80427D01*
X95191Y80818D01*
X94500Y80956D01*
D02*
G37*
G36*
X182283Y77790D02*
X181592Y77653D01*
X181006Y77261D01*
X180614Y76675D01*
X180477Y75984D01*
X180614Y75293D01*
X181006Y74707D01*
X181592Y74315D01*
X182283Y74178D01*
X182974Y74315D01*
X183344Y73852D01*
X183370Y73718D01*
X183762Y73132D01*
X184348Y72741D01*
X185039Y72603D01*
X185731Y72741D01*
X186317Y73132D01*
X186708Y73718D01*
X186846Y74410D01*
X186708Y75101D01*
X186317Y75687D01*
X185731Y76078D01*
X185039Y76216D01*
X184348Y76078D01*
X183979Y76542D01*
X183952Y76675D01*
X183560Y77261D01*
X182974Y77653D01*
X182283Y77790D01*
D02*
G37*
G36*
X271654Y64798D02*
X270962Y64661D01*
X270592Y64414D01*
X270177Y64316D01*
X269762Y64414D01*
X269392Y64661D01*
X268701Y64798D01*
X268009Y64661D01*
X267639Y64414D01*
X267224Y64316D01*
X266810Y64414D01*
X266439Y64661D01*
X265748Y64798D01*
X265057Y64661D01*
X264686Y64414D01*
X264272Y64316D01*
X263857Y64414D01*
X263487Y64661D01*
X262795Y64798D01*
X262104Y64661D01*
X261734Y64414D01*
X261319Y64316D01*
X260904Y64414D01*
X260534Y64661D01*
X259842Y64798D01*
X259151Y64661D01*
X258565Y64269D01*
X258174Y63683D01*
X258036Y62992D01*
X258174Y62301D01*
X258421Y61931D01*
X258519Y61516D01*
X258421Y61101D01*
X258174Y60731D01*
X258036Y60039D01*
X258174Y59348D01*
X258565Y58762D01*
X259151Y58371D01*
X259842Y58233D01*
X260534Y58371D01*
X260904Y58618D01*
X261319Y58715D01*
X261734Y58618D01*
X262104Y58371D01*
X262795Y58233D01*
X263487Y58371D01*
X263857Y58618D01*
X264272Y58715D01*
X264686Y58618D01*
X265057Y58371D01*
X265748Y58233D01*
X266439Y58371D01*
X266810Y58618D01*
X267224Y58715D01*
X267639Y58618D01*
X268009Y58371D01*
X268701Y58233D01*
X269392Y58371D01*
X269762Y58618D01*
X270177Y58715D01*
X270592Y58618D01*
X270962Y58371D01*
X271654Y58233D01*
X272345Y58371D01*
X272931Y58762D01*
X273322Y59348D01*
X273460Y60039D01*
X273322Y60731D01*
X273075Y61101D01*
X272978Y61516D01*
X273075Y61931D01*
X273322Y62301D01*
X273460Y62992D01*
X273322Y63683D01*
X272931Y64269D01*
X272345Y64661D01*
X271654Y64798D01*
D02*
G37*
G36*
X52480Y72609D02*
X51245Y72488D01*
X50058Y72127D01*
X48964Y71543D01*
X48004Y70755D01*
X47217Y69796D01*
X46632Y68702D01*
X46272Y67514D01*
X46151Y66280D01*
X46272Y65045D01*
X46632Y63857D01*
X47217Y62763D01*
X48004Y61804D01*
X48964Y61017D01*
X50058Y60432D01*
X51245Y60071D01*
X52480Y59950D01*
X53715Y60071D01*
X54903Y60432D01*
X55997Y61017D01*
X56956Y61804D01*
X57743Y62763D01*
X58328Y63857D01*
X58688Y65045D01*
X58810Y66280D01*
X58688Y67514D01*
X58328Y68702D01*
X57743Y69796D01*
X56956Y70755D01*
X55997Y71543D01*
X54903Y72127D01*
X53715Y72488D01*
X52480Y72609D01*
D02*
G37*
G36*
X67500Y56640D02*
X66113Y56458D01*
X64820Y55922D01*
X63709Y55070D01*
X62857Y53960D01*
X62322Y52667D01*
X62139Y51279D01*
X62322Y49892D01*
X62857Y48599D01*
X63709Y47489D01*
X64820Y46637D01*
X66113Y46101D01*
X67500Y45919D01*
X68888Y46101D01*
X70180Y46637D01*
X71291Y47489D01*
X72143Y48599D01*
X72678Y49892D01*
X72861Y51279D01*
X72678Y52667D01*
X72143Y53960D01*
X71291Y55070D01*
X70180Y55922D01*
X68888Y56458D01*
X67500Y56640D01*
D02*
G37*
G36*
X275590Y22671D02*
X274240Y22538D01*
X272941Y22144D01*
X271744Y21504D01*
X270695Y20643D01*
X269834Y19594D01*
X269194Y18397D01*
X268800Y17099D01*
X268668Y15748D01*
X268800Y14397D01*
X269194Y13099D01*
X269834Y11902D01*
X270695Y10853D01*
X271744Y9992D01*
X272941Y9352D01*
X274240Y8958D01*
X275590Y8825D01*
X276941Y8958D01*
X278240Y9352D01*
X279437Y9992D01*
X280486Y10853D01*
X281347Y11902D01*
X281987Y13099D01*
X282381Y14397D01*
X282514Y15748D01*
X282381Y17099D01*
X281987Y18397D01*
X281347Y19594D01*
X280486Y20643D01*
X279437Y21504D01*
X278240Y22144D01*
X276941Y22538D01*
X275590Y22671D01*
D02*
G37*
%LPD*%
D132*
X127953Y268504D02*
D03*
X185039Y258661D02*
D03*
D136*
X70866Y35433D02*
D03*
X165748Y116142D02*
D03*
X170866D02*
D03*
X160630D02*
D03*
X155512D02*
D03*
X170866Y111024D02*
D03*
X165748D02*
D03*
X160630D02*
D03*
X155512D02*
D03*
Y105905D02*
D03*
X160630D02*
D03*
X165748D02*
D03*
X170866D02*
D03*
X155512Y121260D02*
D03*
X160630D02*
D03*
X165748D02*
D03*
X170866D02*
D03*
Y126378D02*
D03*
X165748D02*
D03*
X160630D02*
D03*
X155512D02*
D03*
X106398Y111260D02*
D03*
X102402Y115256D02*
D03*
X92480D02*
D03*
X97441D02*
D03*
X88484Y111260D02*
D03*
Y106299D02*
D03*
Y101339D02*
D03*
X92480Y97342D02*
D03*
X102402D02*
D03*
X97441D02*
D03*
X106398Y101339D02*
D03*
Y106299D02*
D03*
X102402Y111260D02*
D03*
X97441D02*
D03*
X92480D02*
D03*
Y106299D02*
D03*
X102402Y101339D02*
D03*
X92480D02*
D03*
X97441D02*
D03*
X102402Y106299D02*
D03*
X97441D02*
D03*
X151969Y218110D02*
D03*
X148819D02*
D03*
X145669D02*
D03*
Y214961D02*
D03*
X151969D02*
D03*
X148819D02*
D03*
X100394Y88976D02*
D03*
X97638D02*
D03*
X151969Y236221D02*
D03*
X100394Y65945D02*
D03*
X126969Y113189D02*
D03*
X235433Y285433D02*
D03*
X240158Y258268D02*
D03*
X241732Y260630D02*
D03*
X248819Y264567D02*
D03*
Y256693D02*
D03*
X244488Y253937D02*
D03*
X277559Y237008D02*
D03*
X283465Y227559D02*
D03*
X277559Y215748D02*
D03*
X315748Y68504D02*
D03*
Y77165D02*
D03*
Y163779D02*
D03*
Y155118D02*
D03*
X320472Y163386D02*
D03*
Y155512D02*
D03*
Y76772D02*
D03*
Y68898D02*
D03*
X98425Y291339D02*
D03*
X90551D02*
D03*
X82677D02*
D03*
X98425Y299213D02*
D03*
X90551D02*
D03*
X82677D02*
D03*
X98425Y307087D02*
D03*
X90551D02*
D03*
X82677D02*
D03*
X163386Y216929D02*
D03*
X117913Y232579D02*
D03*
X114075Y228543D02*
D03*
Y206496D02*
D03*
X82677Y181102D02*
D03*
X59055D02*
D03*
X39370D02*
D03*
X3937Y236221D02*
D03*
Y248031D02*
D03*
Y259842D02*
D03*
Y271654D02*
D03*
Y283465D02*
D03*
Y295276D02*
D03*
Y307087D02*
D03*
X275590Y334646D02*
D03*
X255906D02*
D03*
X236221D02*
D03*
X216535D02*
D03*
X196850D02*
D03*
X177165D02*
D03*
X157480D02*
D03*
X137795D02*
D03*
X118110D02*
D03*
X129528Y314173D02*
D03*
X66732Y296949D02*
D03*
X58563Y290354D02*
D03*
X62598Y286417D02*
D03*
X58563Y282480D02*
D03*
X60827Y277362D02*
D03*
X51968Y273031D02*
D03*
X59744Y265256D02*
D03*
X60039Y242618D02*
D03*
X64272Y237795D02*
D03*
X64370Y231102D02*
D03*
X60039Y226279D02*
D03*
X48031Y225984D02*
D03*
X52067Y222638D02*
D03*
Y217717D02*
D03*
X55315Y213681D02*
D03*
X64961Y194095D02*
D03*
X61614Y190551D02*
D03*
X57284Y190453D02*
D03*
X46457Y186614D02*
D03*
X40551Y186516D02*
D03*
X360236Y44291D02*
D03*
X344488Y45276D02*
D03*
X359252Y100394D02*
D03*
X344488D02*
D03*
X351575Y114567D02*
D03*
Y117717D02*
D03*
X344488Y131890D02*
D03*
X359252D02*
D03*
X366142Y196850D02*
D03*
X360236Y185039D02*
D03*
X344488Y187008D02*
D03*
X291929Y308071D02*
D03*
X294291Y303150D02*
D03*
X297244D02*
D03*
X306102D02*
D03*
X303150D02*
D03*
X300197D02*
D03*
X294094Y298031D02*
D03*
X364173Y243110D02*
D03*
X368110Y236221D02*
D03*
Y261811D02*
D03*
X364173Y254921D02*
D03*
X283465Y299213D02*
D03*
X271654D02*
D03*
X277559Y310039D02*
D03*
Y288386D02*
D03*
X218898Y294094D02*
D03*
X217520Y279528D02*
D03*
X214961Y287008D02*
D03*
X222835D02*
D03*
X248031Y219488D02*
D03*
Y226378D02*
D03*
X251969Y223425D02*
D03*
X221457Y220472D02*
D03*
X231299Y204724D02*
D03*
X211614D02*
D03*
X223425Y188976D02*
D03*
X219488Y11811D02*
D03*
X221358Y43307D02*
D03*
X212598Y27756D02*
D03*
X230315D02*
D03*
X4921Y315945D02*
D03*
X14764D02*
D03*
X24606D02*
D03*
X34449D02*
D03*
X44291D02*
D03*
X54134D02*
D03*
X63976D02*
D03*
X63484Y300394D02*
D03*
Y312205D02*
D03*
X134843Y171260D02*
D03*
X140748Y182087D02*
D03*
X134843Y192913D02*
D03*
X128937Y182087D02*
D03*
X187008Y140157D02*
D03*
X191732Y144882D02*
D03*
X196850Y140157D02*
D03*
X232677Y145669D02*
D03*
Y87402D02*
D03*
X187008Y92126D02*
D03*
X196850D02*
D03*
X191929Y87795D02*
D03*
X132677Y87402D02*
D03*
X93701Y70866D02*
D03*
X80709Y103543D02*
D03*
X92913Y53150D02*
D03*
Y36614D02*
D03*
X111417Y18110D02*
D03*
X117028Y23425D02*
D03*
X107185Y27362D02*
D03*
X107283Y18504D02*
D03*
X366142Y318898D02*
D03*
Y295275D02*
D03*
Y271654D02*
D03*
Y177165D02*
D03*
Y129921D02*
D03*
Y106299D02*
D03*
Y35433D02*
D03*
X354331Y318898D02*
D03*
X360236Y307086D02*
D03*
X354331Y295275D02*
D03*
X360236Y236220D02*
D03*
Y188976D02*
D03*
Y141732D02*
D03*
Y118110D02*
D03*
Y94488D02*
D03*
Y47244D02*
D03*
X342520Y318898D02*
D03*
X348425Y307086D02*
D03*
X342520Y295275D02*
D03*
Y271654D02*
D03*
Y177165D02*
D03*
Y106299D02*
D03*
Y35433D02*
D03*
X330709Y318898D02*
D03*
Y295275D02*
D03*
Y271654D02*
D03*
X336614Y259842D02*
D03*
X330709Y248031D02*
D03*
X336614Y236220D02*
D03*
X324803Y307086D02*
D03*
X318898Y295275D02*
D03*
Y271654D02*
D03*
X324803Y259842D02*
D03*
X318898Y248031D02*
D03*
X324803Y236220D02*
D03*
X312992D02*
D03*
Y70866D02*
D03*
X301181Y283465D02*
D03*
Y236220D02*
D03*
X295275Y153543D02*
D03*
X301181Y70866D02*
D03*
X283465Y318898D02*
D03*
X289370Y307086D02*
D03*
X283465Y295275D02*
D03*
X289370Y283465D02*
D03*
Y236220D02*
D03*
X283465Y224409D02*
D03*
Y200787D02*
D03*
Y177165D02*
D03*
X289370Y165354D02*
D03*
X283465Y153543D02*
D03*
Y129921D02*
D03*
X289370Y118110D02*
D03*
X283465Y106299D02*
D03*
Y82677D02*
D03*
X289370Y70866D02*
D03*
X283465Y59055D02*
D03*
Y35433D02*
D03*
Y11811D02*
D03*
X271654Y295275D02*
D03*
X277559Y283465D02*
D03*
Y212598D02*
D03*
X271654Y200787D02*
D03*
X277559Y188976D02*
D03*
Y165354D02*
D03*
X271654Y153543D02*
D03*
X277559Y141732D02*
D03*
Y118110D02*
D03*
Y94488D02*
D03*
X271654Y82677D02*
D03*
X277559Y70866D02*
D03*
Y47244D02*
D03*
X271654Y35433D02*
D03*
X277559Y23622D02*
D03*
X259842Y318898D02*
D03*
X265748Y307086D02*
D03*
X259842Y295275D02*
D03*
X265748Y283465D02*
D03*
X259842Y200787D02*
D03*
Y35433D02*
D03*
X265748Y23622D02*
D03*
X259842Y11811D02*
D03*
X248031Y318898D02*
D03*
X253937Y307086D02*
D03*
X248031Y295275D02*
D03*
X253937Y283465D02*
D03*
X248031Y271654D02*
D03*
Y59055D02*
D03*
X253937Y47244D02*
D03*
X248031Y35433D02*
D03*
X253937Y23622D02*
D03*
X248031Y11811D02*
D03*
X236220Y318898D02*
D03*
X242126Y307086D02*
D03*
X236220Y295275D02*
D03*
X242126Y283465D02*
D03*
Y236220D02*
D03*
Y212598D02*
D03*
X236220Y59055D02*
D03*
X242126Y47244D02*
D03*
X236220Y35433D02*
D03*
X242126Y23622D02*
D03*
X236220Y11811D02*
D03*
X224409Y318898D02*
D03*
X230315Y307086D02*
D03*
X224409Y295275D02*
D03*
X230315Y283465D02*
D03*
Y188976D02*
D03*
X224409Y177165D02*
D03*
Y59055D02*
D03*
X230315Y47244D02*
D03*
X224409Y11811D02*
D03*
X218504Y307086D02*
D03*
X212598Y295275D02*
D03*
Y271654D02*
D03*
Y248031D02*
D03*
X218504Y236220D02*
D03*
Y188976D02*
D03*
X212598Y177165D02*
D03*
Y59055D02*
D03*
X218504Y47244D02*
D03*
X212598Y11811D02*
D03*
X200787Y295275D02*
D03*
X206693Y236220D02*
D03*
X200787Y224409D02*
D03*
X206693Y212598D02*
D03*
X200787Y200787D02*
D03*
X206693Y188976D02*
D03*
X200787Y177165D02*
D03*
X206693Y165354D02*
D03*
X200787Y153543D02*
D03*
Y82677D02*
D03*
X206693Y70866D02*
D03*
X200787Y59055D02*
D03*
X206693Y47244D02*
D03*
X200787Y35433D02*
D03*
X206693Y23622D02*
D03*
X200787Y11811D02*
D03*
X188976Y318898D02*
D03*
X194882Y307086D02*
D03*
X188976Y295275D02*
D03*
Y271654D02*
D03*
Y248031D02*
D03*
X194882Y212598D02*
D03*
X188976Y200787D02*
D03*
X194882Y188976D02*
D03*
X188976Y177165D02*
D03*
X194882Y165354D02*
D03*
X188976Y153543D02*
D03*
Y82677D02*
D03*
X194882Y70866D02*
D03*
X188976Y59055D02*
D03*
X194882Y47244D02*
D03*
X188976Y35433D02*
D03*
X194882Y23622D02*
D03*
X188976Y11811D02*
D03*
X177165Y318898D02*
D03*
X183071Y307086D02*
D03*
X177165Y295275D02*
D03*
X183071Y236220D02*
D03*
X177165Y224409D02*
D03*
X183071Y212598D02*
D03*
X177165Y200787D02*
D03*
X183071Y47244D02*
D03*
X177165Y35433D02*
D03*
X183071Y23622D02*
D03*
X177165Y11811D02*
D03*
X165354Y318898D02*
D03*
Y295275D02*
D03*
X171260Y283465D02*
D03*
X165354Y271654D02*
D03*
X171260Y259842D02*
D03*
X165354Y248031D02*
D03*
Y200787D02*
D03*
X171260Y47244D02*
D03*
X165354Y35433D02*
D03*
X171260Y23622D02*
D03*
X165354Y11811D02*
D03*
X153543Y318898D02*
D03*
X159449Y283465D02*
D03*
X153543Y271654D02*
D03*
X159449Y259842D02*
D03*
Y236220D02*
D03*
Y47244D02*
D03*
X153543Y35433D02*
D03*
X159449Y23622D02*
D03*
X147638Y283465D02*
D03*
X141732Y271654D02*
D03*
X147638Y259842D02*
D03*
X141732Y248031D02*
D03*
X147638Y236220D02*
D03*
Y165354D02*
D03*
X141732Y153543D02*
D03*
X147638Y47244D02*
D03*
X141732Y35433D02*
D03*
X129921Y318898D02*
D03*
X135827Y236220D02*
D03*
Y47244D02*
D03*
X129921Y35433D02*
D03*
X118110Y200787D02*
D03*
X124016Y188976D02*
D03*
Y70866D02*
D03*
X118110Y59055D02*
D03*
X124016Y47244D02*
D03*
X118110Y35433D02*
D03*
X112205Y212598D02*
D03*
X106299Y59055D02*
D03*
X112205Y47244D02*
D03*
X106299Y35433D02*
D03*
X94488Y295275D02*
D03*
Y177165D02*
D03*
Y153543D02*
D03*
X100394Y47244D02*
D03*
X82677Y295275D02*
D03*
X76772Y212598D02*
D03*
X70866Y200787D02*
D03*
X76772Y188976D02*
D03*
Y141732D02*
D03*
X70866Y129921D02*
D03*
Y106299D02*
D03*
Y82677D02*
D03*
X76772Y70866D02*
D03*
X59055Y295275D02*
D03*
Y271654D02*
D03*
X64961Y188976D02*
D03*
Y165354D02*
D03*
X59055Y129921D02*
D03*
X64961Y118110D02*
D03*
X59055Y106299D02*
D03*
X64961Y94488D02*
D03*
X59055Y82677D02*
D03*
X64961Y70866D02*
D03*
X59055Y59055D02*
D03*
X53150Y307086D02*
D03*
Y188976D02*
D03*
Y165354D02*
D03*
Y141732D02*
D03*
Y118110D02*
D03*
X47244Y106299D02*
D03*
X53150Y94488D02*
D03*
X47244Y82677D02*
D03*
Y59055D02*
D03*
X53150Y47244D02*
D03*
X29528Y307086D02*
D03*
X23622Y295275D02*
D03*
X29528Y283465D02*
D03*
X23622Y271654D02*
D03*
X29528Y259842D02*
D03*
X23622Y248031D02*
D03*
X29528Y236220D02*
D03*
X17717Y307086D02*
D03*
X11811Y295275D02*
D03*
X17717Y283465D02*
D03*
X11811Y271654D02*
D03*
X17717Y259842D02*
D03*
X11811Y248031D02*
D03*
X17717Y236220D02*
D03*
X50098Y277658D02*
D03*
X86614Y88976D02*
D03*
X88583Y270866D02*
D03*
X113779Y97638D02*
D03*
X129921Y139370D02*
D03*
X78740Y304724D02*
D03*
Y295276D02*
D03*
X69685Y315945D02*
D03*
X79921Y314173D02*
D03*
X111417Y317323D02*
D03*
X326378Y159449D02*
D03*
X312340Y151814D02*
D03*
X308009D02*
D03*
X303678D02*
D03*
X299385Y151248D02*
D03*
X295581Y149177D02*
D03*
X292754Y145896D02*
D03*
X291273Y141826D02*
D03*
X291099Y137499D02*
D03*
Y133168D02*
D03*
X291122Y128838D02*
D03*
X292283Y124666D02*
D03*
X294851Y121178D02*
D03*
X298479Y118813D02*
D03*
X302706Y117871D02*
D03*
X307036D02*
D03*
X311367D02*
D03*
X315698D02*
D03*
X320028D02*
D03*
X324359D02*
D03*
X328690Y117871D02*
D03*
X332955Y118624D02*
D03*
X336685Y120824D02*
D03*
X339375Y124218D02*
D03*
X340711Y128337D02*
D03*
X340790Y132667D02*
D03*
X340790Y136998D02*
D03*
X341641Y141244D02*
D03*
X344626Y144382D02*
D03*
X348819Y145669D02*
D03*
X353150D02*
D03*
X357874D02*
D03*
X361820Y145430D02*
D03*
X366041Y146397D02*
D03*
X369181Y149380D02*
D03*
X370318Y153559D02*
D03*
Y157889D02*
D03*
Y162220D02*
D03*
X370239Y166550D02*
D03*
X368471Y170503D02*
D03*
X364936Y173005D02*
D03*
X360630Y173468D02*
D03*
X356299D02*
D03*
X351968D02*
D03*
X347638D02*
D03*
X343307D02*
D03*
X338976D02*
D03*
X323516Y114412D02*
D03*
X319185D02*
D03*
X314854Y114412D02*
D03*
X310524D02*
D03*
X306193D02*
D03*
X301862Y114370D02*
D03*
X297707Y113151D02*
D03*
X294266Y110521D02*
D03*
X291966Y106851D02*
D03*
X291099Y102608D02*
D03*
X291099Y98278D02*
D03*
Y93947D02*
D03*
X291438Y89630D02*
D03*
X293224Y85684D02*
D03*
X296281Y82616D02*
D03*
X300219Y80816D02*
D03*
X304536Y80469D02*
D03*
X308867D02*
D03*
X326378Y72835D02*
D03*
X338936Y58816D02*
D03*
X343267D02*
D03*
X347638Y59055D02*
D03*
X351969D02*
D03*
X356299D02*
D03*
X360590Y58816D02*
D03*
X364897Y59263D02*
D03*
X368447Y61744D02*
D03*
X370231Y65690D02*
D03*
X370318Y70020D02*
D03*
Y74351D02*
D03*
Y78682D02*
D03*
X369205Y82867D02*
D03*
X366084Y85869D02*
D03*
X361867Y86853D02*
D03*
X357874Y86614D02*
D03*
X353150D02*
D03*
X348819D02*
D03*
X344666Y87875D02*
D03*
X341660Y90993D02*
D03*
X340790Y95235D02*
D03*
X340790Y99566D02*
D03*
X340721Y103896D02*
D03*
X339401Y108021D02*
D03*
X336721Y111423D02*
D03*
X333001Y113640D02*
D03*
X328740Y114412D02*
D03*
X309482Y65200D02*
D03*
X305151D02*
D03*
X300826Y64979D02*
D03*
X296788Y63413D02*
D03*
X293551Y60536D02*
D03*
X291527Y56708D02*
D03*
X290942Y52417D02*
D03*
Y48086D02*
D03*
Y43755D02*
D03*
Y39424D02*
D03*
Y35094D02*
D03*
Y30763D02*
D03*
Y26432D02*
D03*
Y22102D02*
D03*
Y17771D02*
D03*
X291175Y13446D02*
D03*
X292770Y9420D02*
D03*
X295677Y6211D02*
D03*
X299526Y4226D02*
D03*
X303825Y3698D02*
D03*
X308155D02*
D03*
X312486D02*
D03*
X316817D02*
D03*
X321147D02*
D03*
X325478D02*
D03*
X329809D02*
D03*
X334140D02*
D03*
X338470D02*
D03*
X342801D02*
D03*
X347132D02*
D03*
X351462D02*
D03*
X355793D02*
D03*
X360124D02*
D03*
X364443Y4011D02*
D03*
X368131Y6281D02*
D03*
X370140Y10118D02*
D03*
X370318Y14445D02*
D03*
X370318Y18776D02*
D03*
Y23106D02*
D03*
X369416Y27342D02*
D03*
X366470Y30516D02*
D03*
X362314Y31733D02*
D03*
X358268Y31496D02*
D03*
X353543D02*
D03*
X349213D02*
D03*
X344991Y31735D02*
D03*
X340770Y32706D02*
D03*
X337742Y35802D02*
D03*
X336853Y40040D02*
D03*
X336853Y44371D02*
D03*
X336697Y48699D02*
D03*
X335651Y52901D02*
D03*
X333679Y56757D02*
D03*
X330883Y60064D02*
D03*
X327409Y62650D02*
D03*
X297921Y227438D02*
D03*
X294390Y224931D02*
D03*
X291967Y221341D02*
D03*
X290960Y217129D02*
D03*
X290942Y212799D02*
D03*
Y208468D02*
D03*
Y204137D02*
D03*
Y199806D02*
D03*
Y195476D02*
D03*
Y191145D02*
D03*
Y186814D02*
D03*
Y182484D02*
D03*
X290993Y178153D02*
D03*
X292157Y173982D02*
D03*
X294700Y170477D02*
D03*
X298309Y168083D02*
D03*
X302526Y167099D02*
D03*
X306857Y167084D02*
D03*
X311188D02*
D03*
X327999Y169991D02*
D03*
X331377Y172701D02*
D03*
X334050Y176108D02*
D03*
X335881Y180033D02*
D03*
X336774Y184270D02*
D03*
X336853Y188600D02*
D03*
X336854Y192931D02*
D03*
X338094Y197080D02*
D03*
X341390Y199890D02*
D03*
X345276Y200787D02*
D03*
X350000D02*
D03*
X354331D02*
D03*
X358662Y200548D02*
D03*
X362993Y200595D02*
D03*
X367038Y202143D02*
D03*
X369701Y205558D02*
D03*
X370318Y209844D02*
D03*
Y214175D02*
D03*
X370318Y218506D02*
D03*
X369960Y222822D02*
D03*
X367652Y226486D02*
D03*
X363783Y228431D02*
D03*
X359455Y228586D02*
D03*
X355124D02*
D03*
X350794D02*
D03*
X346463D02*
D03*
X342132D02*
D03*
X337801D02*
D03*
X333471D02*
D03*
X329140Y228586D02*
D03*
X324809D02*
D03*
X320479D02*
D03*
X316148D02*
D03*
X311817D02*
D03*
X307487D02*
D03*
X303156D02*
D03*
X88189Y123228D02*
D03*
X139764Y211024D02*
D03*
X111417Y322441D02*
D03*
X120866Y219291D02*
D03*
X99000Y134500D02*
D03*
X99213Y125591D02*
D03*
X112992Y140157D02*
D03*
X185827Y116142D02*
D03*
X156693Y202756D02*
D03*
X111024Y278740D02*
D03*
X121260Y301575D02*
D03*
X79528Y285827D02*
D03*
X69685Y282677D02*
D03*
X112598Y268504D02*
D03*
X100000Y285433D02*
D03*
X130976Y19685D02*
D03*
X133858Y22567D02*
D03*
X137795Y23622D02*
D03*
X141732Y22567D02*
D03*
X144521Y19640D02*
D03*
X145669Y15748D02*
D03*
X144614Y11811D02*
D03*
X141732Y8929D02*
D03*
X133858D02*
D03*
X137795Y7874D02*
D03*
X130976Y11811D02*
D03*
X129921Y15748D02*
D03*
X155500Y100810D02*
D03*
Y95691D02*
D03*
X141732Y150000D02*
D03*
X232677Y152362D02*
D03*
Y79921D02*
D03*
X183071Y116142D02*
D03*
X137205Y82185D02*
D03*
X141240Y78150D02*
D03*
X129909Y59865D02*
D03*
X135028Y64983D02*
D03*
X140146Y70101D02*
D03*
X145264Y75219D02*
D03*
X145276Y82185D02*
D03*
X137795Y98819D02*
D03*
X34547Y308268D02*
D03*
Y253150D02*
D03*
Y244882D02*
D03*
Y247638D02*
D03*
Y250394D02*
D03*
Y264173D02*
D03*
Y266929D02*
D03*
Y277953D02*
D03*
Y280709D02*
D03*
X150787Y207480D02*
D03*
X181091Y70101D02*
D03*
X129909Y54747D02*
D03*
X135028Y59865D02*
D03*
X181091Y54747D02*
D03*
X175972D02*
D03*
X170854D02*
D03*
X165736D02*
D03*
X160618D02*
D03*
X155500D02*
D03*
X150382D02*
D03*
X145264D02*
D03*
X140146D02*
D03*
X135028D02*
D03*
X181091Y59865D02*
D03*
X175972D02*
D03*
X170854D02*
D03*
X165736D02*
D03*
X160618D02*
D03*
X140146D02*
D03*
X145264D02*
D03*
X150382D02*
D03*
X155500D02*
D03*
Y177581D02*
D03*
X160618D02*
D03*
X165736D02*
D03*
X170854D02*
D03*
X175972D02*
D03*
X181091D02*
D03*
X140146Y64983D02*
D03*
X145264D02*
D03*
Y70101D02*
D03*
X150382Y75219D02*
D03*
Y80337D02*
D03*
Y85455D02*
D03*
Y64983D02*
D03*
X155500D02*
D03*
X160618D02*
D03*
X165736D02*
D03*
X170854D02*
D03*
X175972D02*
D03*
X181091D02*
D03*
X175972Y70101D02*
D03*
X170854D02*
D03*
X165736D02*
D03*
X160618D02*
D03*
X150382D02*
D03*
X155500D02*
D03*
Y172463D02*
D03*
X160618D02*
D03*
X165736D02*
D03*
X170854D02*
D03*
X175972D02*
D03*
X181091D02*
D03*
Y167345D02*
D03*
X175972D02*
D03*
X170854D02*
D03*
X165736D02*
D03*
X160618D02*
D03*
X155500D02*
D03*
Y162227D02*
D03*
X160618D02*
D03*
X165736D02*
D03*
X170854D02*
D03*
X175972D02*
D03*
X170854Y75219D02*
D03*
X165736D02*
D03*
X160618D02*
D03*
X155500D02*
D03*
Y80337D02*
D03*
X160618D02*
D03*
X165736D02*
D03*
X170854D02*
D03*
Y85455D02*
D03*
X165736D02*
D03*
X160618D02*
D03*
X155500D02*
D03*
Y157109D02*
D03*
X160618D02*
D03*
X165736D02*
D03*
X170854D02*
D03*
Y151991D02*
D03*
X165736D02*
D03*
X160618D02*
D03*
X155500D02*
D03*
Y146872D02*
D03*
X160618D02*
D03*
X165736D02*
D03*
X170854D02*
D03*
Y141754D02*
D03*
X165736D02*
D03*
X160618D02*
D03*
X155500D02*
D03*
Y136636D02*
D03*
X160618D02*
D03*
X165736D02*
D03*
X170854D02*
D03*
Y90573D02*
D03*
X165736D02*
D03*
X160618D02*
D03*
X155500D02*
D03*
X160618Y95691D02*
D03*
X165736D02*
D03*
X170854D02*
D03*
Y100810D02*
D03*
X165736D02*
D03*
X160618D02*
D03*
X170854Y131518D02*
D03*
X165736D02*
D03*
X160618D02*
D03*
X155500D02*
D03*
X101181Y267323D02*
D03*
X57087Y251969D02*
D03*
X112992Y119685D02*
D03*
X57087Y248031D02*
D03*
X113779Y278740D02*
D03*
X88000Y43000D02*
D03*
X84000D02*
D03*
X87795Y168504D02*
D03*
X83858D02*
D03*
X114567Y81398D02*
D03*
X119685Y76968D02*
D03*
X124803Y81201D02*
D03*
X100492Y78740D02*
D03*
X83071Y83465D02*
D03*
X87500Y78642D02*
D03*
X111417Y327559D02*
D03*
Y332677D02*
D03*
X101181Y314173D02*
D03*
X94488D02*
D03*
X87008D02*
D03*
X69685Y301575D02*
D03*
Y288976D02*
D03*
X34547Y242126D02*
D03*
Y283465D02*
D03*
Y228937D02*
D03*
Y231693D02*
D03*
X50098Y244882D02*
D03*
Y247638D02*
D03*
Y250394D02*
D03*
Y253150D02*
D03*
Y308268D02*
D03*
X34547Y288976D02*
D03*
X50098Y280217D02*
D03*
X134252Y113386D02*
D03*
X144882Y146850D02*
D03*
D137*
X137795Y15748D02*
D03*
M02*
