G04*
G04 #@! TF.GenerationSoftware,Altium Limited,Altium Designer,19.0.10 (269)*
G04*
G04 Layer_Color=8388736*
%FSLAX25Y25*%
%MOIN*%
G70*
G01*
G75*
%ADD61R,0.11024X0.09449*%
%ADD65C,0.07874*%
%ADD66R,0.03354X0.01780*%
%ADD67R,0.08591X0.05087*%
%ADD68R,0.03354X0.02764*%
%ADD69R,0.03158X0.05323*%
G04:AMPARAMS|DCode=70|XSize=49.29mil|YSize=80.79mil|CornerRadius=0mil|HoleSize=0mil|Usage=FLASHONLY|Rotation=180.000|XOffset=0mil|YOffset=0mil|HoleType=Round|Shape=RoundedRectangle|*
%AMROUNDEDRECTD70*
21,1,0.04929,0.08079,0,0,180.0*
21,1,0.04929,0.08079,0,0,180.0*
1,1,0.00000,-0.02465,0.04039*
1,1,0.00000,0.02465,0.04039*
1,1,0.00000,0.02465,-0.04039*
1,1,0.00000,-0.02465,-0.04039*
%
%ADD70ROUNDEDRECTD70*%
%ADD71R,0.07685X0.06504*%
%ADD72R,0.02756X0.03150*%
%ADD73R,0.03150X0.02756*%
%ADD74R,0.10236X0.24016*%
%ADD75R,0.08472X0.04535*%
%ADD76R,0.10236X0.03937*%
%ADD77R,0.03937X0.10236*%
%ADD78R,0.05906X0.04724*%
%ADD79R,0.04724X0.05906*%
%ADD80R,0.04134X0.04134*%
%ADD81R,0.04134X0.04134*%
%ADD82R,0.24221X0.08472*%
%ADD83R,0.16740X0.14378*%
%ADD84R,0.12016X0.21858*%
G04:AMPARAMS|DCode=85|XSize=147.72mil|YSize=399.69mil|CornerRadius=38.42mil|HoleSize=0mil|Usage=FLASHONLY|Rotation=0.000|XOffset=0mil|YOffset=0mil|HoleType=Round|Shape=RoundedRectangle|*
%AMROUNDEDRECTD85*
21,1,0.14772,0.32284,0,0,0.0*
21,1,0.07087,0.39969,0,0,0.0*
1,1,0.07685,0.03543,-0.16142*
1,1,0.07685,-0.03543,-0.16142*
1,1,0.07685,-0.03543,0.16142*
1,1,0.07685,0.03543,0.16142*
%
%ADD85ROUNDEDRECTD85*%
%ADD86R,0.02961X0.05323*%
G04:AMPARAMS|DCode=87|XSize=200.87mil|YSize=327.24mil|CornerRadius=0mil|HoleSize=0mil|Usage=FLASHONLY|Rotation=0.000|XOffset=0mil|YOffset=0mil|HoleType=Round|Shape=RoundedRectangle|*
%AMROUNDEDRECTD87*
21,1,0.20087,0.32724,0,0,0.0*
21,1,0.20087,0.32724,0,0,0.0*
1,1,0.00000,0.10043,-0.16362*
1,1,0.00000,-0.10043,-0.16362*
1,1,0.00000,-0.10043,0.16362*
1,1,0.00000,0.10043,0.16362*
%
%ADD87ROUNDEDRECTD87*%
G04:AMPARAMS|DCode=88|XSize=21.73mil|YSize=63.07mil|CornerRadius=3.54mil|HoleSize=0mil|Usage=FLASHONLY|Rotation=90.000|XOffset=0mil|YOffset=0mil|HoleType=Round|Shape=RoundedRectangle|*
%AMROUNDEDRECTD88*
21,1,0.02173,0.05598,0,0,90.0*
21,1,0.01465,0.06307,0,0,90.0*
1,1,0.00709,0.02799,0.00732*
1,1,0.00709,0.02799,-0.00732*
1,1,0.00709,-0.02799,-0.00732*
1,1,0.00709,-0.02799,0.00732*
%
%ADD88ROUNDEDRECTD88*%
%ADD89R,0.04535X0.04535*%
%ADD90R,0.02961X0.04535*%
G04:AMPARAMS|DCode=91|XSize=15.43mil|YSize=29.61mil|CornerRadius=4.41mil|HoleSize=0mil|Usage=FLASHONLY|Rotation=90.000|XOffset=0mil|YOffset=0mil|HoleType=Round|Shape=RoundedRectangle|*
%AMROUNDEDRECTD91*
21,1,0.01543,0.02079,0,0,90.0*
21,1,0.00661,0.02961,0,0,90.0*
1,1,0.00882,0.01039,0.00331*
1,1,0.00882,0.01039,-0.00331*
1,1,0.00882,-0.01039,-0.00331*
1,1,0.00882,-0.01039,0.00331*
%
%ADD91ROUNDEDRECTD91*%
G04:AMPARAMS|DCode=92|XSize=15.43mil|YSize=29.61mil|CornerRadius=4.41mil|HoleSize=0mil|Usage=FLASHONLY|Rotation=0.000|XOffset=0mil|YOffset=0mil|HoleType=Round|Shape=RoundedRectangle|*
%AMROUNDEDRECTD92*
21,1,0.01543,0.02079,0,0,0.0*
21,1,0.00661,0.02961,0,0,0.0*
1,1,0.00882,0.00331,-0.01039*
1,1,0.00882,-0.00331,-0.01039*
1,1,0.00882,-0.00331,0.01039*
1,1,0.00882,0.00331,0.01039*
%
%ADD92ROUNDEDRECTD92*%
G04:AMPARAMS|DCode=93|XSize=208.74mil|YSize=208.74mil|CornerRadius=5.02mil|HoleSize=0mil|Usage=FLASHONLY|Rotation=0.000|XOffset=0mil|YOffset=0mil|HoleType=Round|Shape=RoundedRectangle|*
%AMROUNDEDRECTD93*
21,1,0.20874,0.19870,0,0,0.0*
21,1,0.19870,0.20874,0,0,0.0*
1,1,0.01004,0.09935,-0.09935*
1,1,0.01004,-0.09935,-0.09935*
1,1,0.01004,-0.09935,0.09935*
1,1,0.01004,0.09935,0.09935*
%
%ADD93ROUNDEDRECTD93*%
%ADD94R,0.09850X0.06819*%
%ADD95R,0.01780X0.03354*%
%ADD96R,0.03197X0.04535*%
G04:AMPARAMS|DCode=97|XSize=25.67mil|YSize=25.67mil|CornerRadius=0mil|HoleSize=0mil|Usage=FLASHONLY|Rotation=180.000|XOffset=0mil|YOffset=0mil|HoleType=Round|Shape=RoundedRectangle|*
%AMROUNDEDRECTD97*
21,1,0.02567,0.02567,0,0,180.0*
21,1,0.02567,0.02567,0,0,180.0*
1,1,0.00000,-0.01284,0.01284*
1,1,0.00000,0.01284,0.01284*
1,1,0.00000,0.01284,-0.01284*
1,1,0.00000,-0.01284,-0.01284*
%
%ADD97ROUNDEDRECTD97*%
%ADD98R,0.02567X0.02567*%
G04:AMPARAMS|DCode=99|XSize=25.67mil|YSize=25.67mil|CornerRadius=0mil|HoleSize=0mil|Usage=FLASHONLY|Rotation=90.000|XOffset=0mil|YOffset=0mil|HoleType=Round|Shape=RoundedRectangle|*
%AMROUNDEDRECTD99*
21,1,0.02567,0.02567,0,0,90.0*
21,1,0.02567,0.02567,0,0,90.0*
1,1,0.00000,0.01284,0.01284*
1,1,0.00000,0.01284,-0.01284*
1,1,0.00000,-0.01284,-0.01284*
1,1,0.00000,-0.01284,0.01284*
%
%ADD99ROUNDEDRECTD99*%
%ADD100R,0.12409X0.02173*%
%ADD101R,0.08079X0.17134*%
%ADD102R,0.14378X0.26189*%
%ADD103R,0.02244X0.01221*%
%ADD104R,0.04142X0.05323*%
%ADD105R,0.04142X0.05323*%
G04:AMPARAMS|DCode=106|XSize=242.21mil|YSize=399.69mil|CornerRadius=62.05mil|HoleSize=0mil|Usage=FLASHONLY|Rotation=90.000|XOffset=0mil|YOffset=0mil|HoleType=Round|Shape=RoundedRectangle|*
%AMROUNDEDRECTD106*
21,1,0.24221,0.27559,0,0,90.0*
21,1,0.11811,0.39969,0,0,90.0*
1,1,0.12409,0.13780,0.05906*
1,1,0.12409,0.13780,-0.05906*
1,1,0.12409,-0.13780,-0.05906*
1,1,0.12409,-0.13780,0.05906*
%
%ADD106ROUNDEDRECTD106*%
%ADD107C,0.03551*%
%ADD108R,0.01976X0.03748*%
%ADD109R,0.02961X0.10835*%
%ADD110R,0.19102X0.18315*%
%ADD111O,0.03158X0.04339*%
%ADD112C,0.03158*%
%ADD113O,0.06110X0.03748*%
%ADD114R,0.10835X0.10441*%
%ADD115C,0.06110*%
%ADD116O,0.01772X0.03937*%
%ADD117C,0.07291*%
%ADD118C,0.09260*%
%ADD119C,0.13197*%
%ADD120C,0.02961*%
%ADD121C,0.20284*%
G36*
X229022Y125390D02*
X229090Y125382D01*
X229174Y125356D01*
X229251Y125331D01*
X229318Y125289D01*
X229377Y125230D01*
X229386Y125221D01*
X229394Y125196D01*
X229411Y125162D01*
X229428Y125111D01*
X229436Y125044D01*
X229445Y124959D01*
X229428Y124866D01*
X229403Y124756D01*
Y124748D01*
X229394Y124739D01*
X229386Y124714D01*
X229369Y124680D01*
X229327Y124596D01*
X229259Y124486D01*
X229174Y124359D01*
X229056Y124224D01*
X228913Y124089D01*
X228744Y123953D01*
X228735D01*
X228718Y123937D01*
X228693Y123920D01*
X228659Y123903D01*
X228608Y123878D01*
X228549Y123844D01*
X228482Y123810D01*
X228414Y123776D01*
X228237Y123708D01*
X228042Y123641D01*
X227822Y123582D01*
X227577Y123539D01*
X227569Y123531D01*
X227561Y123506D01*
X227535Y123472D01*
X227510Y123413D01*
X227476Y123354D01*
X227434Y123277D01*
X227392Y123193D01*
X227341Y123108D01*
X227223Y122906D01*
X227104Y122703D01*
X226969Y122492D01*
X226842Y122297D01*
Y122289D01*
X226825Y122272D01*
X226809Y122247D01*
X226783Y122213D01*
X226716Y122120D01*
X226623Y122002D01*
X226521Y121858D01*
X226395Y121706D01*
X226268Y121545D01*
X226124Y121393D01*
X226132Y121385D01*
X226158Y121359D01*
X226192Y121326D01*
X226251Y121275D01*
X226310Y121224D01*
X226386Y121165D01*
X226479Y121114D01*
X226572Y121064D01*
X226580Y121055D01*
X226623Y121047D01*
X226673Y121021D01*
X226749Y120996D01*
X226834Y120979D01*
X226927Y120954D01*
X227037Y120937D01*
X227147Y120928D01*
X226885Y120506D01*
X226783D01*
X226716Y120514D01*
X226623Y120523D01*
X226513Y120531D01*
X226395Y120557D01*
X226276Y120582D01*
X226158Y120616D01*
X226141Y120624D01*
X226107Y120641D01*
X226048Y120667D01*
X225980Y120709D01*
X225896Y120759D01*
X225803Y120819D01*
X225710Y120895D01*
X225617Y120979D01*
X225600Y120971D01*
X225558Y120937D01*
X225499Y120895D01*
X225406Y120844D01*
X225304Y120785D01*
X225186Y120717D01*
X225059Y120658D01*
X224916Y120607D01*
X224899Y120599D01*
X224848Y120590D01*
X224772Y120573D01*
X224671Y120548D01*
X224552Y120523D01*
X224417Y120506D01*
X224265Y120498D01*
X224113Y120489D01*
X224028D01*
X223936Y120498D01*
X223826Y120514D01*
X223699Y120540D01*
X223572Y120582D01*
X223462Y120633D01*
X223361Y120700D01*
X223353Y120709D01*
X223327Y120742D01*
X223302Y120785D01*
X223268Y120852D01*
X223243Y120937D01*
X223234Y121038D01*
X223243Y121157D01*
X223276Y121292D01*
Y121300D01*
X223285Y121309D01*
X223302Y121359D01*
X223336Y121427D01*
X223386Y121520D01*
X223454Y121621D01*
X223538Y121731D01*
X223648Y121833D01*
X223775Y121934D01*
X223783D01*
X223792Y121942D01*
X223843Y121976D01*
X223919Y122019D01*
X224028Y122069D01*
X224155Y122111D01*
X224299Y122154D01*
X224459Y122187D01*
X224628Y122196D01*
X224679D01*
X224730Y122187D01*
X224806Y122179D01*
X224890Y122171D01*
X224983Y122154D01*
X225076Y122120D01*
X225178Y122086D01*
X225186Y122078D01*
X225220Y122069D01*
X225279Y122044D01*
X225338Y122010D01*
X225414Y121968D01*
X225499Y121917D01*
X225583Y121858D01*
X225668Y121790D01*
X225676Y121799D01*
X225702Y121841D01*
X225744Y121892D01*
X225803Y121976D01*
X225871Y122069D01*
X225947Y122179D01*
X226040Y122314D01*
X226132Y122458D01*
Y122466D01*
X226141Y122475D01*
X226158Y122500D01*
X226183Y122534D01*
X226209Y122576D01*
X226242Y122627D01*
X226318Y122754D01*
X226411Y122906D01*
X226530Y123100D01*
X226656Y123311D01*
X226800Y123556D01*
X226783D01*
X226741Y123565D01*
X226673Y123582D01*
X226597Y123607D01*
X226513Y123632D01*
X226428Y123675D01*
X226352Y123717D01*
X226285Y123776D01*
X226276Y123784D01*
X226268Y123810D01*
X226242Y123844D01*
X226225Y123894D01*
X226209Y123962D01*
Y124038D01*
X226217Y124123D01*
X226242Y124224D01*
Y124232D01*
X226259Y124258D01*
X226268Y124292D01*
X226293Y124342D01*
X226352Y124444D01*
X226437Y124545D01*
X226445Y124554D01*
X226462Y124562D01*
X226487Y124587D01*
X226521Y124613D01*
X226614Y124663D01*
X226665Y124680D01*
X226724Y124689D01*
Y124680D01*
X226716Y124646D01*
Y124604D01*
Y124545D01*
Y124486D01*
X226724Y124418D01*
X226741Y124359D01*
X226775Y124300D01*
X226783Y124292D01*
X226800Y124275D01*
X226825Y124249D01*
X226868Y124224D01*
X226918Y124190D01*
X226986Y124156D01*
X227062Y124131D01*
X227155Y124106D01*
X227163Y124114D01*
X227172Y124131D01*
X227197Y124165D01*
X227223Y124207D01*
X227265Y124258D01*
X227307Y124325D01*
X227417Y124460D01*
X227544Y124613D01*
X227687Y124773D01*
X227839Y124925D01*
X228008Y125060D01*
X228017D01*
X228025Y125077D01*
X228051Y125094D01*
X228084Y125111D01*
X228177Y125170D01*
X228287Y125230D01*
X228422Y125289D01*
X228575Y125348D01*
X228735Y125382D01*
X228904Y125399D01*
X228963D01*
X229022Y125390D01*
D02*
G37*
G36*
X233053Y125415D02*
X233104Y125399D01*
X233112Y125390D01*
X233129Y125382D01*
X233138Y125356D01*
Y125322D01*
Y125314D01*
X233129Y125297D01*
X233112Y125272D01*
X233078Y125230D01*
X233070Y125221D01*
X233036Y125179D01*
X233011Y125145D01*
X232977Y125111D01*
X232935Y125060D01*
X232884Y125001D01*
X232892D01*
X232901Y124993D01*
X232952Y124976D01*
X233028Y124934D01*
X233112Y124883D01*
X233205Y124807D01*
X233298Y124714D01*
X233374Y124596D01*
X233425Y124460D01*
Y124452D01*
X233433Y124444D01*
Y124418D01*
X233442Y124393D01*
X233450Y124300D01*
X233459Y124190D01*
Y124038D01*
X233442Y123869D01*
X233400Y123675D01*
X233340Y123455D01*
Y123447D01*
X233332Y123430D01*
X233324Y123404D01*
X233307Y123371D01*
X233290Y123328D01*
X233264Y123277D01*
X233214Y123151D01*
X233138Y122999D01*
X233045Y122821D01*
X232935Y122627D01*
X232808Y122424D01*
Y122416D01*
X232791Y122399D01*
X232774Y122373D01*
X232740Y122331D01*
X232707Y122280D01*
X232673Y122221D01*
X232571Y122086D01*
X232445Y121925D01*
X232310Y121756D01*
X232157Y121579D01*
X231988Y121402D01*
X231980Y121393D01*
X231972Y121385D01*
X231946Y121359D01*
X231912Y121334D01*
X231828Y121249D01*
X231710Y121157D01*
X231574Y121047D01*
X231422Y120937D01*
X231253Y120827D01*
X231076Y120734D01*
X231067D01*
X231059Y120726D01*
X231033Y120717D01*
X230991Y120700D01*
X230898Y120658D01*
X230780Y120624D01*
X230645Y120582D01*
X230484Y120540D01*
X230315Y120514D01*
X230146Y120506D01*
X230079D01*
X230028Y120514D01*
X229969D01*
X229901Y120523D01*
X229758Y120548D01*
X229749D01*
X229724Y120557D01*
X229690Y120565D01*
X229639Y120573D01*
X229580Y120590D01*
X229521Y120616D01*
X229377Y120675D01*
X229369Y120667D01*
X229344Y120650D01*
X229293Y120624D01*
X229234Y120599D01*
X229166Y120565D01*
X229082Y120531D01*
X228904Y120464D01*
X228896D01*
X228862Y120447D01*
X228811Y120438D01*
X228752Y120421D01*
X228676Y120405D01*
X228591Y120396D01*
X228414Y120379D01*
X228372D01*
X228321Y120388D01*
X228254D01*
X228118Y120421D01*
X228059Y120438D01*
X228008Y120472D01*
X228000Y120481D01*
X227992Y120489D01*
X227975Y120514D01*
X227958Y120540D01*
X227941Y120582D01*
X227932Y120624D01*
Y120683D01*
X227949Y120742D01*
Y120751D01*
X227966Y120776D01*
X227983Y120810D01*
X228008Y120861D01*
X228051Y120912D01*
X228101Y120962D01*
X228161Y121013D01*
X228237Y121055D01*
X228245Y121064D01*
X228279Y121072D01*
X228329Y121089D01*
X228389Y121114D01*
X228473Y121131D01*
X228566Y121148D01*
X228676Y121157D01*
X228794Y121165D01*
X228862D01*
X228921Y121157D01*
X228997Y121148D01*
X229014D01*
X229065Y121140D01*
X229132Y121131D01*
X229225Y121106D01*
X229234Y121123D01*
X229251Y121140D01*
X229268Y121165D01*
X229293Y121199D01*
X229327Y121241D01*
X229369Y121300D01*
X229420Y121376D01*
X229487Y121461D01*
X229555Y121562D01*
X229639Y121680D01*
X229732Y121816D01*
X229842Y121968D01*
X229960Y122137D01*
X230096Y122331D01*
X230248Y122542D01*
X230256Y122559D01*
X230290Y122593D01*
X230332Y122661D01*
X230391Y122745D01*
X230467Y122847D01*
X230560Y122965D01*
X230653Y123100D01*
X230772Y123252D01*
X230890Y123404D01*
X231017Y123573D01*
X231295Y123920D01*
X231583Y124266D01*
X231878Y124604D01*
X231811D01*
X231752Y124596D01*
X231676Y124579D01*
X231574Y124562D01*
X231465Y124528D01*
X231338Y124486D01*
X231194Y124427D01*
X231177Y124418D01*
X231126Y124393D01*
X231050Y124359D01*
X230949Y124300D01*
X230822Y124232D01*
X230687Y124148D01*
X230535Y124047D01*
X230374Y123937D01*
X230366Y123928D01*
X230349Y123911D01*
X230307Y123886D01*
X230265Y123852D01*
X230205Y123810D01*
X230138Y123751D01*
X229986Y123624D01*
X229808Y123463D01*
X229614Y123286D01*
X229420Y123083D01*
X229225Y122872D01*
X229217Y122863D01*
X229208Y122847D01*
X229183Y122813D01*
X229149Y122779D01*
X229107Y122728D01*
X229065Y122669D01*
X228963Y122526D01*
X228853Y122365D01*
X228744Y122187D01*
X228651Y122002D01*
X228575Y121816D01*
Y121807D01*
X228558Y121773D01*
X228541Y121714D01*
X228515Y121630D01*
Y121621D01*
X228507Y121596D01*
X228499D01*
X228482Y121579D01*
X228448Y121571D01*
X228414Y121562D01*
X228380D01*
X228346Y121554D01*
X228279D01*
X228245Y121562D01*
X228203Y121571D01*
X228127Y121604D01*
X228093Y121630D01*
X228068Y121672D01*
Y121680D01*
X228059Y121697D01*
Y121723D01*
X228051Y121765D01*
Y121807D01*
X228059Y121875D01*
X228068Y121942D01*
X228093Y122027D01*
Y122035D01*
X228101Y122052D01*
X228118Y122086D01*
X228135Y122128D01*
X228152Y122179D01*
X228186Y122247D01*
X228220Y122314D01*
X228254Y122399D01*
X228355Y122576D01*
X228482Y122779D01*
X228634Y123007D01*
X228811Y123235D01*
X228820Y123244D01*
X228836Y123261D01*
X228862Y123294D01*
X228904Y123337D01*
X228955Y123396D01*
X229014Y123455D01*
X229082Y123531D01*
X229166Y123607D01*
X229344Y123784D01*
X229546Y123970D01*
X229783Y124156D01*
X230028Y124342D01*
X230036Y124351D01*
X230053Y124359D01*
X230087Y124384D01*
X230129Y124410D01*
X230180Y124444D01*
X230248Y124477D01*
X230391Y124570D01*
X230569Y124663D01*
X230755Y124765D01*
X230958Y124858D01*
X231152Y124934D01*
X231160D01*
X231177Y124942D01*
X231203Y124951D01*
X231245Y124959D01*
X231287Y124976D01*
X231346Y124993D01*
X231481Y125027D01*
X231650Y125060D01*
X231828Y125094D01*
X232031Y125111D01*
X232233Y125120D01*
X232352D01*
X232504Y125297D01*
X232512Y125305D01*
X232546Y125339D01*
X232597Y125365D01*
X232656Y125399D01*
X232664D01*
X232673Y125407D01*
X232698D01*
X232723Y125415D01*
X232766Y125424D01*
X232817D01*
X232867Y125432D01*
X233002D01*
X233053Y125415D01*
D02*
G37*
G36*
X227379Y119118D02*
X227455Y119102D01*
X227539Y119076D01*
X227615Y119034D01*
X227692Y118983D01*
X227751Y118907D01*
X227759Y118899D01*
X227768Y118865D01*
X227784Y118823D01*
X227801Y118755D01*
X227810Y118662D01*
Y118561D01*
X227793Y118442D01*
X227751Y118299D01*
X227742Y118282D01*
X227725Y118240D01*
X227700Y118172D01*
X227658Y118087D01*
X227607Y117986D01*
X227539Y117868D01*
X227455Y117750D01*
X227362Y117631D01*
X227354Y117614D01*
X227311Y117580D01*
X227252Y117513D01*
X227176Y117437D01*
X227075Y117344D01*
X226956Y117243D01*
X226830Y117141D01*
X226678Y117040D01*
X226669Y117031D01*
X226635Y117014D01*
X226593Y116989D01*
X226534Y116955D01*
X226458Y116913D01*
X226382Y116879D01*
X226204Y116795D01*
X226196D01*
X226162Y116778D01*
X226120Y116761D01*
X226069Y116744D01*
X225951Y116710D01*
X225900Y116702D01*
X225849Y116693D01*
X225833D01*
X225799Y116710D01*
X225782Y116727D01*
X225757Y116752D01*
X225731Y116786D01*
X225714Y116829D01*
Y116837D01*
X225706Y116854D01*
X225697Y116879D01*
Y116913D01*
X225689Y116989D01*
X225697Y117065D01*
X225706Y117082D01*
X225714Y117090D01*
X225740Y117116D01*
X225765Y117133D01*
X225816Y117158D01*
X225866Y117192D01*
X225942Y117217D01*
X225951D01*
X225985Y117234D01*
X226027Y117243D01*
X226078Y117268D01*
X226204Y117310D01*
X226331Y117369D01*
X226348Y117378D01*
X226382Y117395D01*
X226441Y117428D01*
X226517Y117479D01*
X226602Y117538D01*
X226686Y117597D01*
X226779Y117674D01*
X226864Y117758D01*
X226872Y117766D01*
X226897Y117800D01*
X226940Y117851D01*
X226982Y117910D01*
X227032Y117986D01*
X227092Y118071D01*
X227134Y118164D01*
X227176Y118256D01*
Y118265D01*
X227185Y118282D01*
X227193Y118316D01*
X227202Y118358D01*
X227210Y118442D01*
X227202Y118485D01*
X227193Y118527D01*
Y118535D01*
X227185Y118544D01*
X227159Y118578D01*
X227134Y118595D01*
X227100Y118603D01*
X227066Y118620D01*
X227007D01*
X226965Y118611D01*
X226906Y118603D01*
X226821Y118578D01*
X226711Y118535D01*
X226585Y118476D01*
X226432Y118392D01*
X226255Y118282D01*
X226247D01*
X226230Y118265D01*
X226204Y118248D01*
X226171Y118223D01*
X226120Y118189D01*
X226069Y118147D01*
X225934Y118045D01*
X225773Y117910D01*
X225579Y117758D01*
X225376Y117572D01*
X225148Y117361D01*
X225140Y117352D01*
X225106Y117319D01*
X225064Y117276D01*
X224996Y117209D01*
X224920Y117133D01*
X224827Y117040D01*
X224726Y116938D01*
X224616Y116820D01*
X224497Y116693D01*
X224379Y116558D01*
X224126Y116271D01*
X223864Y115958D01*
X223619Y115637D01*
X223610Y115629D01*
X223593Y115603D01*
X223559Y115552D01*
X223517Y115493D01*
X223467Y115426D01*
X223407Y115333D01*
X223348Y115240D01*
X223281Y115138D01*
X223137Y114902D01*
X223002Y114657D01*
X222875Y114403D01*
X222816Y114277D01*
X222774Y114158D01*
X222765Y114141D01*
X222757Y114099D01*
X222740Y114040D01*
X222723Y113972D01*
X222714Y113888D01*
X222706Y113803D01*
Y113719D01*
X222723Y113651D01*
Y113643D01*
X222740Y113626D01*
X222757Y113592D01*
X222791Y113567D01*
X222824Y113533D01*
X222884Y113499D01*
X222943Y113482D01*
X223027Y113474D01*
X223086D01*
X223145Y113491D01*
X223238Y113508D01*
X223340Y113533D01*
X223467Y113575D01*
X223602Y113634D01*
X223754Y113710D01*
X223762D01*
X223771Y113719D01*
X223796Y113736D01*
X223830Y113753D01*
X223914Y113812D01*
X224024Y113888D01*
X224160Y113981D01*
X224320Y114099D01*
X224489Y114243D01*
X224666Y114403D01*
X224683Y114420D01*
X224726Y114454D01*
X224785Y114513D01*
X224869Y114598D01*
X224878Y114606D01*
X224895Y114623D01*
X224928Y114657D01*
X224962Y114691D01*
X224996Y114724D01*
X225038Y114758D01*
X225072Y114775D01*
X225106Y114784D01*
X225123D01*
X225165Y114767D01*
X225216Y114741D01*
X225241Y114708D01*
X225266Y114674D01*
Y114665D01*
X225275Y114657D01*
X225300Y114606D01*
X225317Y114547D01*
Y114513D01*
X225309Y114479D01*
X225300Y114471D01*
X225275Y114429D01*
X225258Y114395D01*
X225224Y114361D01*
X225190Y114319D01*
X225140Y114268D01*
X225131Y114260D01*
X225114Y114243D01*
X225089Y114209D01*
X225047Y114167D01*
X224996Y114116D01*
X224928Y114057D01*
X224861Y113989D01*
X224776Y113913D01*
X224768Y113905D01*
X224751Y113888D01*
X224717Y113863D01*
X224666Y113820D01*
X224616Y113778D01*
X224548Y113719D01*
X224472Y113660D01*
X224396Y113601D01*
X224210Y113457D01*
X224016Y113322D01*
X223805Y113178D01*
X223602Y113060D01*
X223593D01*
X223576Y113051D01*
X223551Y113034D01*
X223509Y113017D01*
X223467Y112992D01*
X223407Y112967D01*
X223281Y112916D01*
X223137Y112857D01*
X222976Y112815D01*
X222816Y112781D01*
X222655Y112764D01*
X222605D01*
X222571Y112773D01*
X222478Y112781D01*
X222368Y112815D01*
X222258Y112857D01*
X222140Y112925D01*
X222039Y113017D01*
X221988Y113077D01*
X221954Y113144D01*
Y113153D01*
X221946Y113161D01*
X221937Y113187D01*
X221929Y113212D01*
X221903Y113296D01*
X221886Y113415D01*
X221878Y113558D01*
X221886Y113736D01*
X221920Y113939D01*
X221954Y114057D01*
X221988Y114175D01*
Y114184D01*
X222005Y114209D01*
X222013Y114251D01*
X222039Y114310D01*
X222072Y114386D01*
X222106Y114471D01*
X222157Y114572D01*
X222207Y114682D01*
X222275Y114809D01*
X222343Y114944D01*
X222427Y115088D01*
X222512Y115240D01*
X222613Y115400D01*
X222723Y115569D01*
X222850Y115747D01*
X222976Y115924D01*
X222985Y115933D01*
X223010Y115967D01*
X223053Y116017D01*
X223103Y116093D01*
X223179Y116178D01*
X223255Y116279D01*
X223357Y116389D01*
X223467Y116516D01*
X223585Y116651D01*
X223712Y116795D01*
X223847Y116947D01*
X223999Y117099D01*
X224311Y117411D01*
X224658Y117724D01*
X224666Y117733D01*
X224692Y117750D01*
X224734Y117792D01*
X224785Y117834D01*
X224852Y117885D01*
X224928Y117952D01*
X225021Y118020D01*
X225123Y118104D01*
X225342Y118265D01*
X225579Y118434D01*
X225833Y118603D01*
X226095Y118755D01*
X226103Y118763D01*
X226128Y118772D01*
X226162Y118789D01*
X226213Y118814D01*
X226272Y118840D01*
X226340Y118873D01*
X226500Y118941D01*
X226686Y119009D01*
X226872Y119068D01*
X227066Y119110D01*
X227159Y119127D01*
X227311D01*
X227379Y119118D01*
D02*
G37*
G36*
X234426Y117192D02*
X234494Y117175D01*
X234561Y117150D01*
X234637Y117116D01*
X234705Y117065D01*
X234756Y116998D01*
X234764Y116989D01*
X234773Y116964D01*
X234790Y116921D01*
X234806Y116862D01*
X234815Y116786D01*
Y116693D01*
X234806Y116592D01*
X234773Y116474D01*
X234764Y116457D01*
X234747Y116406D01*
X234714Y116330D01*
X234654Y116228D01*
X234587Y116110D01*
X234485Y115975D01*
X234367Y115814D01*
X234223Y115654D01*
X234215Y115646D01*
X234207Y115637D01*
X234181Y115612D01*
X234147Y115578D01*
X234063Y115493D01*
X233945Y115392D01*
X233801Y115274D01*
X233632Y115138D01*
X233446Y115003D01*
X233243Y114876D01*
Y114868D01*
X233260Y114860D01*
X233302Y114809D01*
X233370Y114758D01*
X233463Y114708D01*
X233471D01*
X233488Y114699D01*
X233522Y114691D01*
X233564Y114682D01*
X233615Y114674D01*
X233683Y114665D01*
X233750Y114657D01*
X233877D01*
X233607Y114234D01*
X233463D01*
X233404Y114243D01*
X233319D01*
X233226Y114251D01*
X233125Y114268D01*
X233024Y114285D01*
X232930Y114310D01*
X232922D01*
X232888Y114327D01*
X232846Y114344D01*
X232795Y114369D01*
X232677Y114446D01*
X232618Y114488D01*
X232559Y114547D01*
X232542Y114539D01*
X232500Y114522D01*
X232432Y114496D01*
X232339Y114462D01*
X232238Y114429D01*
X232119Y114395D01*
X231874Y114327D01*
X231857D01*
X231815Y114319D01*
X231756Y114302D01*
X231672Y114285D01*
X231570Y114268D01*
X231469Y114260D01*
X231232Y114234D01*
X231503Y114657D01*
X231536D01*
X231578Y114665D01*
X231638D01*
X231697Y114674D01*
X231773Y114682D01*
X231917Y114708D01*
X231925D01*
X231950Y114716D01*
X231993Y114724D01*
X232035Y114741D01*
X232094Y114758D01*
X232162Y114775D01*
X232305Y114826D01*
Y114834D01*
X232297Y114851D01*
X232288Y114885D01*
X232280Y114927D01*
X232263Y114986D01*
Y115045D01*
X232255Y115181D01*
Y115189D01*
Y115215D01*
X232263Y115257D01*
X232272Y115316D01*
X232280Y115384D01*
X232305Y115468D01*
X232322Y115552D01*
X232356Y115654D01*
Y115662D01*
X232364Y115679D01*
X232381Y115713D01*
X232398Y115755D01*
X232423Y115814D01*
X232457Y115874D01*
X232533Y116017D01*
X232643Y116186D01*
X232779Y116372D01*
X232947Y116558D01*
X233049Y116651D01*
X233150Y116735D01*
X233159Y116744D01*
X233176Y116752D01*
X233209Y116778D01*
X233252Y116812D01*
X233302Y116845D01*
X233370Y116879D01*
X233438Y116921D01*
X233514Y116972D01*
X233691Y117057D01*
X233885Y117124D01*
X234097Y117183D01*
X234207Y117192D01*
X234316Y117200D01*
X234367D01*
X234426Y117192D01*
D02*
G37*
G36*
X231367Y117657D02*
X231401D01*
X231477Y117623D01*
X231519Y117597D01*
X231545Y117564D01*
X231553Y117547D01*
X231570Y117496D01*
X231578Y117420D01*
Y117369D01*
X231562Y117319D01*
X231553Y117310D01*
X231545Y117276D01*
X231519Y117226D01*
X231494Y117175D01*
X231486Y117166D01*
X231469Y117141D01*
X231443Y117099D01*
X231401Y117048D01*
X231410Y117040D01*
X231427Y117031D01*
X231452Y117006D01*
X231494Y116981D01*
X231536Y116947D01*
X231595Y116904D01*
X231731Y116812D01*
X231739D01*
X231748Y116803D01*
X231790Y116769D01*
X231849Y116719D01*
X231908Y116659D01*
X231967Y116583D01*
X232018Y116499D01*
X232035Y116414D01*
Y116364D01*
X232026Y116322D01*
Y116313D01*
X232010Y116279D01*
X231984Y116228D01*
X231942Y116153D01*
X231874Y116051D01*
X231790Y115924D01*
X231672Y115772D01*
X231604Y115679D01*
X231528Y115586D01*
X231519Y115578D01*
X231511Y115561D01*
X231486Y115536D01*
X231460Y115502D01*
X231393Y115417D01*
X231308Y115307D01*
X231224Y115189D01*
X231139Y115071D01*
X231080Y114970D01*
X231038Y114885D01*
Y114876D01*
Y114868D01*
X231029Y114826D01*
X231038Y114775D01*
X231055Y114750D01*
X231071Y114724D01*
X231088Y114716D01*
X231114Y114708D01*
X231148Y114699D01*
X231207Y114691D01*
X231274Y114674D01*
X231367Y114665D01*
X231486Y114648D01*
X231224Y114234D01*
X231038D01*
X230945Y114243D01*
X230826Y114251D01*
X230700Y114268D01*
X230573Y114285D01*
X230463Y114319D01*
X230370Y114361D01*
X230362Y114369D01*
X230336Y114386D01*
X230311Y114420D01*
X230286Y114462D01*
X230260Y114522D01*
X230243Y114589D01*
Y114682D01*
X230269Y114784D01*
X230277Y114792D01*
X230286Y114834D01*
X230319Y114893D01*
X230362Y114978D01*
X230429Y115079D01*
X230514Y115215D01*
X230624Y115367D01*
X230759Y115544D01*
X230767Y115552D01*
X230776Y115569D01*
X230801Y115595D01*
X230826Y115629D01*
X230894Y115713D01*
X230970Y115823D01*
X231055Y115933D01*
X231131Y116043D01*
X231190Y116136D01*
X231207Y116169D01*
X231224Y116203D01*
Y116212D01*
Y116245D01*
X231215Y116296D01*
X231181Y116347D01*
X231173Y116364D01*
X231139Y116398D01*
X231071Y116457D01*
X231029Y116490D01*
X230979Y116533D01*
X230970Y116516D01*
X230945Y116482D01*
X230894Y116414D01*
X230843Y116338D01*
X230767Y116237D01*
X230683Y116127D01*
X230590Y116000D01*
X230488Y115865D01*
X230260Y115578D01*
X230015Y115291D01*
X229889Y115155D01*
X229770Y115029D01*
X229644Y114910D01*
X229525Y114801D01*
X229517Y114792D01*
X229500Y114775D01*
X229466Y114750D01*
X229415Y114716D01*
X229365Y114674D01*
X229297Y114631D01*
X229221Y114581D01*
X229136Y114530D01*
X228951Y114429D01*
X228739Y114344D01*
X228520Y114268D01*
X228401Y114251D01*
X228283Y114234D01*
X228545Y114657D01*
X228562D01*
X228587Y114665D01*
X228613Y114674D01*
X228697Y114699D01*
X228807Y114741D01*
X228942Y114809D01*
X229086Y114902D01*
X229246Y115020D01*
X229339Y115088D01*
X229424Y115172D01*
X229432Y115181D01*
X229449Y115198D01*
X229474Y115223D01*
X229508Y115265D01*
X229559Y115316D01*
X229618Y115384D01*
X229686Y115460D01*
X229770Y115544D01*
X229855Y115654D01*
X229948Y115772D01*
X230058Y115899D01*
X230176Y116043D01*
X230294Y116203D01*
X230429Y116381D01*
X230565Y116575D01*
X230717Y116778D01*
X230708Y116795D01*
X230691Y116829D01*
X230674Y116879D01*
X230658Y116938D01*
Y116947D01*
Y116955D01*
X230666Y116998D01*
X230674Y117065D01*
X230700Y117141D01*
Y117150D01*
X230717Y117175D01*
X230734Y117217D01*
X230759Y117268D01*
X230835Y117395D01*
X230886Y117454D01*
X230945Y117513D01*
X230953Y117521D01*
X230979Y117538D01*
X231012Y117564D01*
X231055Y117589D01*
X231114Y117614D01*
X231173Y117640D01*
X231241Y117657D01*
X231308Y117665D01*
X231333D01*
X231367Y117657D01*
D02*
G37*
G36*
X228722Y117183D02*
X228748Y117166D01*
X228756Y117158D01*
X228765Y117141D01*
X228773Y117124D01*
X228765Y117090D01*
X228756Y117074D01*
X228748Y117057D01*
X228731Y117031D01*
X228697Y116998D01*
X228655Y116964D01*
X228604Y116913D01*
X228537Y116862D01*
X228528Y116854D01*
X228503Y116837D01*
X228469Y116812D01*
X228418Y116778D01*
X228317Y116702D01*
X228266Y116659D01*
X228224Y116626D01*
X228216Y116617D01*
X228207Y116609D01*
X228182Y116583D01*
X228148Y116558D01*
X228063Y116474D01*
X227954Y116372D01*
X227827Y116245D01*
X227700Y116110D01*
X227573Y115958D01*
X227447Y115806D01*
Y115798D01*
X227430Y115789D01*
X227396Y115738D01*
X227345Y115654D01*
X227277Y115552D01*
X227210Y115434D01*
X227134Y115307D01*
X227075Y115172D01*
X227015Y115037D01*
Y115029D01*
X227007Y115012D01*
X226999Y114978D01*
X226990Y114936D01*
X226982Y114851D01*
X226990Y114809D01*
X226999Y114767D01*
X227007Y114750D01*
X227041Y114724D01*
X227092Y114691D01*
X227134Y114682D01*
X227176Y114674D01*
X227193D01*
X227235Y114682D01*
X227303Y114699D01*
X227396Y114733D01*
X227514Y114784D01*
X227649Y114868D01*
X227717Y114919D01*
X227801Y114978D01*
X227877Y115054D01*
X227962Y115130D01*
X227970Y115138D01*
X227979Y115147D01*
X228004Y115172D01*
X228038Y115215D01*
X228080Y115257D01*
X228122Y115307D01*
X228224Y115434D01*
X228334Y115586D01*
X228444Y115764D01*
X228545Y115958D01*
X228638Y116169D01*
X228629D01*
X228613Y116178D01*
X228554Y116195D01*
X228486Y116228D01*
X228461Y116254D01*
X228435Y116279D01*
Y116288D01*
X228427Y116296D01*
X228418Y116347D01*
Y116423D01*
Y116474D01*
X228435Y116524D01*
Y116533D01*
X228452Y116558D01*
X228469Y116600D01*
X228494Y116651D01*
X228570Y116769D01*
X228621Y116829D01*
X228680Y116888D01*
X228689Y116896D01*
X228714Y116913D01*
X228748Y116938D01*
X228790Y116964D01*
X228849Y116989D01*
X228908Y117014D01*
X228984Y117031D01*
X229052Y117040D01*
X229086D01*
X229120Y117031D01*
X229162Y117023D01*
X229204Y116998D01*
X229246Y116972D01*
X229289Y116930D01*
X229314Y116871D01*
Y116862D01*
X229322Y116837D01*
X229331Y116803D01*
Y116752D01*
Y116685D01*
X229322Y116600D01*
X229306Y116507D01*
X229272Y116398D01*
X229263Y116381D01*
X229246Y116330D01*
X229221Y116254D01*
X229179Y116161D01*
X229120Y116043D01*
X229060Y115916D01*
X228984Y115772D01*
X228891Y115629D01*
X228883Y115612D01*
X228849Y115561D01*
X228790Y115485D01*
X228722Y115392D01*
X228638Y115282D01*
X228537Y115164D01*
X228427Y115037D01*
X228308Y114910D01*
X228292Y114893D01*
X228249Y114851D01*
X228182Y114792D01*
X228097Y114716D01*
X227987Y114623D01*
X227877Y114539D01*
X227759Y114454D01*
X227632Y114386D01*
X227615Y114378D01*
X227582Y114361D01*
X227514Y114336D01*
X227438Y114302D01*
X227337Y114268D01*
X227235Y114243D01*
X227125Y114226D01*
X227007Y114217D01*
X226931D01*
X226880Y114226D01*
X226762Y114243D01*
X226644Y114277D01*
X226635D01*
X226618Y114285D01*
X226593Y114302D01*
X226559Y114319D01*
X226492Y114369D01*
X226424Y114454D01*
X226416D01*
X226382Y114437D01*
X226331Y114420D01*
X226272Y114395D01*
X226204Y114369D01*
X226120Y114344D01*
X225951Y114302D01*
X225942D01*
X225909Y114294D01*
X225866Y114285D01*
X225799Y114277D01*
X225723Y114260D01*
X225638Y114251D01*
X225452Y114234D01*
X225714Y114657D01*
X225748D01*
X225782Y114665D01*
X225824D01*
X225925Y114682D01*
X226035Y114699D01*
X226044D01*
X226061Y114708D01*
X226086Y114716D01*
X226120Y114724D01*
X226213Y114750D01*
X226306Y114792D01*
Y114801D01*
Y114809D01*
Y114860D01*
X226314Y114927D01*
X226323Y115003D01*
Y115012D01*
X226331Y115020D01*
Y115045D01*
X226340Y115079D01*
X226365Y115155D01*
X226390Y115248D01*
X226399Y115265D01*
X226416Y115307D01*
X226441Y115375D01*
X226483Y115468D01*
X226534Y115578D01*
X226602Y115696D01*
X226678Y115831D01*
X226770Y115967D01*
Y115975D01*
X226779Y115983D01*
X226821Y116026D01*
X226872Y116102D01*
X226948Y116186D01*
X227041Y116288D01*
X227142Y116406D01*
X227261Y116516D01*
X227387Y116626D01*
X227404Y116634D01*
X227438Y116668D01*
X227497Y116719D01*
X227582Y116769D01*
X227675Y116837D01*
X227784Y116904D01*
X227911Y116972D01*
X228038Y117040D01*
X228055Y117048D01*
X228097Y117065D01*
X228165Y117090D01*
X228249Y117124D01*
X228342Y117150D01*
X228452Y117175D01*
X228554Y117192D01*
X228655Y117200D01*
X228689D01*
X228722Y117183D01*
D02*
G37*
%LPC*%
G36*
X228820Y125052D02*
X228786D01*
X228752Y125044D01*
X228693Y125018D01*
X228634Y124993D01*
X228558Y124951D01*
X228482Y124891D01*
X228389Y124807D01*
X228380Y124799D01*
X228346Y124765D01*
X228304Y124706D01*
X228237Y124629D01*
X228169Y124537D01*
X228084Y124418D01*
X227992Y124283D01*
X227899Y124123D01*
X227907D01*
X227916Y124131D01*
X227958Y124139D01*
X228034Y124165D01*
X228127Y124190D01*
X228228Y124232D01*
X228338Y124283D01*
X228456Y124351D01*
X228575Y124427D01*
X228591Y124435D01*
X228625Y124460D01*
X228676Y124511D01*
X228735Y124562D01*
X228803Y124629D01*
X228862Y124697D01*
X228921Y124773D01*
X228955Y124849D01*
Y124858D01*
Y124866D01*
X228963Y124900D01*
Y124951D01*
X228946Y124993D01*
X228938Y125001D01*
X228921Y125027D01*
X228879Y125044D01*
X228820Y125052D01*
D02*
G37*
G36*
X224426Y121655D02*
X224383D01*
X224341Y121647D01*
X224282D01*
X224155Y121613D01*
X224079Y121588D01*
X224012Y121554D01*
X224003D01*
X223986Y121537D01*
X223952Y121520D01*
X223919Y121486D01*
X223843Y121410D01*
X223809Y121359D01*
X223783Y121309D01*
Y121300D01*
X223775Y121283D01*
Y121249D01*
Y121216D01*
Y121174D01*
X223792Y121131D01*
X223817Y121089D01*
X223851Y121047D01*
X223860D01*
X223876Y121030D01*
X223902Y121021D01*
X223944Y121004D01*
X224003Y120988D01*
X224071Y120979D01*
X224155Y120962D01*
X224290D01*
X224341Y120971D01*
X224400D01*
X224476Y120979D01*
X224552Y120996D01*
X224730Y121047D01*
X224738Y121055D01*
X224772Y121064D01*
X224823Y121089D01*
X224882Y121114D01*
X224958Y121157D01*
X225043Y121207D01*
X225135Y121266D01*
X225228Y121334D01*
X225220Y121343D01*
X225203Y121359D01*
X225169Y121385D01*
X225127Y121418D01*
X225076Y121461D01*
X225009Y121495D01*
X224865Y121571D01*
X224857D01*
X224831Y121588D01*
X224789Y121596D01*
X224730Y121613D01*
X224662Y121630D01*
X224595Y121638D01*
X224426Y121655D01*
D02*
G37*
G36*
X232512Y124562D02*
X232504Y124554D01*
X232495Y124537D01*
X232462Y124511D01*
X232428Y124460D01*
X232385Y124410D01*
X232326Y124342D01*
X232259Y124258D01*
X232183Y124156D01*
X232098Y124047D01*
X231997Y123920D01*
X231895Y123776D01*
X231777Y123624D01*
X231650Y123455D01*
X231515Y123269D01*
X231363Y123066D01*
X231211Y122847D01*
X231203Y122830D01*
X231177Y122796D01*
X231126Y122728D01*
X231067Y122652D01*
X231000Y122551D01*
X230915Y122432D01*
X230822Y122306D01*
X230721Y122171D01*
X230493Y121875D01*
X230256Y121579D01*
X230138Y121435D01*
X230019Y121292D01*
X229910Y121157D01*
X229800Y121038D01*
X229817D01*
X229859Y121030D01*
X229918D01*
X229969Y121021D01*
X230155D01*
X230222Y121030D01*
X230298Y121038D01*
X230391Y121055D01*
X230493Y121081D01*
X230603Y121114D01*
X230712Y121165D01*
X230729Y121174D01*
X230763Y121190D01*
X230822Y121233D01*
X230898Y121275D01*
X230991Y121343D01*
X231093Y121418D01*
X231203Y121511D01*
X231312Y121613D01*
X231321Y121621D01*
X231338Y121638D01*
X231363Y121664D01*
X231397Y121697D01*
X231439Y121748D01*
X231490Y121799D01*
X231608Y121934D01*
X231743Y122095D01*
X231887Y122280D01*
X232039Y122483D01*
X232191Y122703D01*
X232200Y122711D01*
X232208Y122728D01*
X232233Y122762D01*
X232259Y122804D01*
X232293Y122855D01*
X232326Y122923D01*
X232411Y123066D01*
X232504Y123235D01*
X232597Y123421D01*
X232681Y123616D01*
X232757Y123801D01*
X232766Y123818D01*
X232774Y123852D01*
X232791Y123911D01*
X232808Y123979D01*
X232817Y124063D01*
X232825Y124148D01*
Y124224D01*
X232808Y124300D01*
Y124308D01*
X232800Y124334D01*
X232774Y124368D01*
X232749Y124410D01*
X232707Y124452D01*
X232656Y124494D01*
X232597Y124528D01*
X232512Y124562D01*
D02*
G37*
G36*
X234156Y116676D02*
X234105D01*
X234071Y116668D01*
X234012Y116659D01*
X233945Y116643D01*
X233860Y116600D01*
X233767Y116550D01*
X233657Y116474D01*
X233547Y116372D01*
X233530Y116355D01*
X233497Y116322D01*
X233446Y116254D01*
X233378Y116169D01*
X233311Y116068D01*
X233235Y115941D01*
X233167Y115806D01*
X233108Y115662D01*
Y115654D01*
X233100Y115637D01*
X233091Y115612D01*
X233083Y115569D01*
X233066Y115485D01*
X233057Y115400D01*
Y115392D01*
Y115384D01*
X233066Y115333D01*
X233074Y115265D01*
X233100Y115198D01*
X233108D01*
X233116Y115206D01*
X233167Y115240D01*
X233243Y115282D01*
X233345Y115350D01*
X233454Y115426D01*
X233581Y115527D01*
X233708Y115637D01*
X233835Y115764D01*
Y115772D01*
X233852Y115781D01*
X233894Y115823D01*
X233953Y115891D01*
X234021Y115983D01*
X234097Y116076D01*
X234164Y116186D01*
X234232Y116296D01*
X234274Y116398D01*
Y116406D01*
X234282Y116423D01*
X234291Y116474D01*
Y116541D01*
X234274Y116600D01*
X234266Y116609D01*
X234240Y116643D01*
X234190Y116668D01*
X234156Y116676D01*
D02*
G37*
%LPD*%
D61*
X330315Y284646D02*
D03*
Y329528D02*
D03*
X354331D02*
D03*
Y284646D02*
D03*
D65*
X253937Y7874D02*
D03*
X259842Y326772D02*
D03*
X10827Y307087D02*
D03*
D66*
X29567Y217323D02*
D03*
Y215354D02*
D03*
Y213386D02*
D03*
Y211417D02*
D03*
Y209449D02*
D03*
Y207480D02*
D03*
Y205512D02*
D03*
Y203543D02*
D03*
Y201575D02*
D03*
Y199606D02*
D03*
Y197638D02*
D03*
X36260Y194685D02*
D03*
Y196653D02*
D03*
Y198622D02*
D03*
Y200591D02*
D03*
Y202559D02*
D03*
Y204528D02*
D03*
Y206496D02*
D03*
Y208465D02*
D03*
Y210433D02*
D03*
Y212402D02*
D03*
Y214370D02*
D03*
Y216339D02*
D03*
X29567Y195669D02*
D03*
D67*
X358268Y274941D02*
D03*
Y264429D02*
D03*
D68*
X310630Y333612D02*
D03*
X305374D02*
D03*
X300138D02*
D03*
X294882D02*
D03*
D69*
X310256Y308120D02*
D03*
X305256D02*
D03*
X300256D02*
D03*
X295256D02*
D03*
D70*
X64764Y272047D02*
D03*
X74606D02*
D03*
D71*
X95472Y18110D02*
D03*
Y5512D02*
D03*
X117126Y18110D02*
D03*
Y5512D02*
D03*
D72*
X117323Y97244D02*
D03*
Y93307D02*
D03*
X120866Y97244D02*
D03*
Y93307D02*
D03*
X40500Y190031D02*
D03*
Y193968D02*
D03*
X323819Y163386D02*
D03*
Y167323D02*
D03*
Y151575D02*
D03*
Y155512D02*
D03*
Y76772D02*
D03*
Y80709D02*
D03*
X128347Y97638D02*
D03*
Y93701D02*
D03*
X323819Y64961D02*
D03*
Y68898D02*
D03*
X137008Y88189D02*
D03*
Y92126D02*
D03*
X84646Y242520D02*
D03*
Y246457D02*
D03*
X81102Y242520D02*
D03*
Y246457D02*
D03*
X88000Y161031D02*
D03*
Y164969D02*
D03*
X84000Y164969D02*
D03*
Y161031D02*
D03*
Y49968D02*
D03*
Y46031D02*
D03*
X88000Y46031D02*
D03*
Y49968D02*
D03*
X249410Y239961D02*
D03*
Y243898D02*
D03*
X155905Y232677D02*
D03*
Y228740D02*
D03*
X151969Y232677D02*
D03*
Y228740D02*
D03*
X148031Y232677D02*
D03*
Y228740D02*
D03*
X52165Y291339D02*
D03*
Y295276D02*
D03*
X53543Y255968D02*
D03*
Y252031D02*
D03*
Y248031D02*
D03*
Y244094D02*
D03*
X98819Y141732D02*
D03*
Y137795D02*
D03*
X89764Y242520D02*
D03*
Y246457D02*
D03*
X93307Y242520D02*
D03*
Y246457D02*
D03*
X96850Y242520D02*
D03*
Y246457D02*
D03*
X100394Y242520D02*
D03*
Y246457D02*
D03*
X311024Y291339D02*
D03*
Y287402D02*
D03*
X141732Y142717D02*
D03*
Y146654D02*
D03*
X319882Y167323D02*
D03*
Y171260D02*
D03*
X315945D02*
D03*
Y167323D02*
D03*
Y147638D02*
D03*
Y151575D02*
D03*
X319882D02*
D03*
Y147638D02*
D03*
Y80708D02*
D03*
Y84645D02*
D03*
X315945D02*
D03*
Y80708D02*
D03*
Y61023D02*
D03*
Y64960D02*
D03*
X319882D02*
D03*
Y61023D02*
D03*
X101181Y270078D02*
D03*
Y274016D02*
D03*
X114173Y88976D02*
D03*
Y85039D02*
D03*
X88000Y148968D02*
D03*
Y145031D02*
D03*
X84000Y148968D02*
D03*
Y145031D02*
D03*
X84000Y65969D02*
D03*
Y62032D02*
D03*
X133858Y125590D02*
D03*
Y121653D02*
D03*
X88000Y62032D02*
D03*
Y65969D02*
D03*
X133858Y104331D02*
D03*
Y108268D02*
D03*
X57335Y197968D02*
D03*
Y194031D02*
D03*
X61665D02*
D03*
Y197968D02*
D03*
X52000D02*
D03*
Y194031D02*
D03*
X66732Y308267D02*
D03*
Y312205D02*
D03*
Y304330D02*
D03*
Y300394D02*
D03*
D73*
X57531Y202500D02*
D03*
X61468D02*
D03*
X86221Y29528D02*
D03*
X82284D02*
D03*
X137795Y142717D02*
D03*
X133858D02*
D03*
X133858Y138779D02*
D03*
X137795D02*
D03*
Y125591D02*
D03*
X141732D02*
D03*
X137795Y121653D02*
D03*
X141732D02*
D03*
X137795Y108268D02*
D03*
X141732D02*
D03*
X137795Y113189D02*
D03*
X141732D02*
D03*
X137795Y104331D02*
D03*
X141732D02*
D03*
X84031Y153000D02*
D03*
X87968D02*
D03*
X125984Y125591D02*
D03*
X129921D02*
D03*
X87968Y58000D02*
D03*
X84031D02*
D03*
X125984Y121653D02*
D03*
X129921D02*
D03*
X125984Y108268D02*
D03*
X129921D02*
D03*
X125984Y104331D02*
D03*
X129921D02*
D03*
X48425Y218307D02*
D03*
X44488D02*
D03*
X48425Y222638D02*
D03*
X44488D02*
D03*
X239776Y223063D02*
D03*
X235839D02*
D03*
X248437D02*
D03*
X244500D02*
D03*
X140701Y299925D02*
D03*
X144638D02*
D03*
X140701Y303425D02*
D03*
X144638D02*
D03*
X136638D02*
D03*
X132701D02*
D03*
X136638Y299925D02*
D03*
X132701D02*
D03*
X62598Y280709D02*
D03*
X66535D02*
D03*
X63779Y257480D02*
D03*
X67716D02*
D03*
X71653Y254331D02*
D03*
X75591D02*
D03*
X63779Y251969D02*
D03*
X67716D02*
D03*
X63386Y264567D02*
D03*
X67323D02*
D03*
X72047Y264567D02*
D03*
X75984D02*
D03*
X91732Y274803D02*
D03*
X87795D02*
D03*
X115355Y122835D02*
D03*
X111417D02*
D03*
X94094Y88976D02*
D03*
X90157D02*
D03*
X95705Y124500D02*
D03*
X91768D02*
D03*
X103937Y88976D02*
D03*
X107874D02*
D03*
X84031Y157000D02*
D03*
X87968D02*
D03*
X87969Y54000D02*
D03*
X84032D02*
D03*
X239776Y218732D02*
D03*
X235839D02*
D03*
X128638Y299925D02*
D03*
X124701D02*
D03*
Y303425D02*
D03*
X128638D02*
D03*
X120866Y100787D02*
D03*
X116929D02*
D03*
D74*
X351772Y187008D02*
D03*
X319488D02*
D03*
Y131890D02*
D03*
X351772D02*
D03*
Y100394D02*
D03*
X319488D02*
D03*
Y45276D02*
D03*
X351772D02*
D03*
D75*
X85433Y22835D02*
D03*
Y4724D02*
D03*
X107283Y22835D02*
D03*
Y4724D02*
D03*
D76*
X248622Y260630D02*
D03*
Y248425D02*
D03*
D77*
X218898Y287008D02*
D03*
X206693D02*
D03*
X368307Y243110D02*
D03*
X356102D02*
D03*
X368307Y254921D02*
D03*
X356102D02*
D03*
D78*
X191929Y140453D02*
D03*
Y133563D02*
D03*
Y126673D02*
D03*
Y119783D02*
D03*
Y112894D02*
D03*
Y106004D02*
D03*
Y99114D02*
D03*
Y92224D02*
D03*
X113000Y129555D02*
D03*
Y136445D02*
D03*
X119685Y88189D02*
D03*
Y81299D02*
D03*
X46500Y197708D02*
D03*
Y190819D02*
D03*
X151969Y196161D02*
D03*
Y203051D02*
D03*
X138189Y222342D02*
D03*
Y215453D02*
D03*
D79*
X105807Y273425D02*
D03*
X112697D02*
D03*
X94390Y83465D02*
D03*
X87500D02*
D03*
X92555Y130000D02*
D03*
X99445D02*
D03*
X107382Y83465D02*
D03*
X100492D02*
D03*
X53150Y237795D02*
D03*
X60039D02*
D03*
X53150Y231102D02*
D03*
X60039D02*
D03*
D80*
X176575Y147539D02*
D03*
Y153248D02*
D03*
X182480Y147539D02*
D03*
Y153248D02*
D03*
X132677Y97146D02*
D03*
Y91437D02*
D03*
X182480Y84744D02*
D03*
Y79035D02*
D03*
X141240Y98524D02*
D03*
Y92815D02*
D03*
Y82185D02*
D03*
Y87894D02*
D03*
X176575Y84744D02*
D03*
Y79035D02*
D03*
X240366Y254067D02*
D03*
Y248358D02*
D03*
X230512Y236516D02*
D03*
Y230807D02*
D03*
X159449Y216831D02*
D03*
Y222539D02*
D03*
D81*
X118012Y228543D02*
D03*
X123721D02*
D03*
X118012Y206496D02*
D03*
X123721D02*
D03*
X58563Y286417D02*
D03*
X52854D02*
D03*
D82*
X168504Y208661D02*
D03*
Y192126D02*
D03*
D83*
X265748Y181102D02*
D03*
X303150D02*
D03*
Y137795D02*
D03*
X265748D02*
D03*
Y94488D02*
D03*
X303150D02*
D03*
Y51181D02*
D03*
X265748D02*
D03*
D84*
X345866Y252953D02*
D03*
X307677D02*
D03*
D85*
X201181Y260433D02*
D03*
X226378D02*
D03*
D86*
X237020Y230740D02*
D03*
X240760D02*
D03*
X244500D02*
D03*
Y240976D02*
D03*
X240760D02*
D03*
X237020D02*
D03*
D87*
X163189Y116142D02*
D03*
D88*
X177953Y89892D02*
D03*
Y92392D02*
D03*
Y94892D02*
D03*
Y97392D02*
D03*
Y99892D02*
D03*
Y102392D02*
D03*
Y104892D02*
D03*
Y107392D02*
D03*
Y109892D02*
D03*
Y112392D02*
D03*
Y114892D02*
D03*
Y117392D02*
D03*
Y119892D02*
D03*
Y122392D02*
D03*
Y124892D02*
D03*
Y127392D02*
D03*
Y129892D02*
D03*
Y132392D02*
D03*
Y134892D02*
D03*
Y137392D02*
D03*
Y139892D02*
D03*
Y142392D02*
D03*
X148425Y89892D02*
D03*
Y92392D02*
D03*
Y94892D02*
D03*
Y97392D02*
D03*
Y99892D02*
D03*
Y102392D02*
D03*
Y104892D02*
D03*
Y107392D02*
D03*
Y109892D02*
D03*
Y112392D02*
D03*
Y114892D02*
D03*
Y117392D02*
D03*
Y119892D02*
D03*
Y122392D02*
D03*
Y124892D02*
D03*
Y127392D02*
D03*
Y129892D02*
D03*
Y132392D02*
D03*
Y134892D02*
D03*
Y137392D02*
D03*
Y139892D02*
D03*
Y142392D02*
D03*
D89*
X51181Y213386D02*
D03*
D90*
X44488D02*
D03*
Y203937D02*
D03*
X51968D02*
D03*
D91*
X84055Y117126D02*
D03*
Y115157D02*
D03*
Y113189D02*
D03*
Y111221D02*
D03*
Y109252D02*
D03*
Y107283D02*
D03*
Y105315D02*
D03*
Y103347D02*
D03*
Y101378D02*
D03*
Y99410D02*
D03*
Y97441D02*
D03*
Y95473D02*
D03*
X110827D02*
D03*
Y97441D02*
D03*
Y99410D02*
D03*
Y101378D02*
D03*
Y103347D02*
D03*
Y105315D02*
D03*
Y107283D02*
D03*
Y109252D02*
D03*
Y111221D02*
D03*
Y113189D02*
D03*
Y115157D02*
D03*
Y117126D02*
D03*
D92*
X86614Y92913D02*
D03*
X88583D02*
D03*
X90551D02*
D03*
X92520D02*
D03*
X94488D02*
D03*
X96457D02*
D03*
X98425D02*
D03*
X100394D02*
D03*
X102362D02*
D03*
X104331D02*
D03*
X106299D02*
D03*
X108268D02*
D03*
Y119685D02*
D03*
X106299D02*
D03*
X104331D02*
D03*
X102362D02*
D03*
X100394D02*
D03*
X98425D02*
D03*
X96457D02*
D03*
X94488D02*
D03*
X92520D02*
D03*
X90551D02*
D03*
X88583D02*
D03*
X86614D02*
D03*
D93*
X97441Y106299D02*
D03*
D94*
X148819Y216535D02*
D03*
D95*
X152756Y222342D02*
D03*
X150787D02*
D03*
X148819D02*
D03*
X146850D02*
D03*
X144882D02*
D03*
Y210728D02*
D03*
X146850D02*
D03*
X148819D02*
D03*
X150787D02*
D03*
X152756D02*
D03*
D96*
X124573Y212412D02*
D03*
X117092D02*
D03*
Y222648D02*
D03*
X120832D02*
D03*
X124573D02*
D03*
D97*
X72638Y314173D02*
D03*
X108465Y282677D02*
D03*
X72638Y311024D02*
D03*
Y307874D02*
D03*
Y304724D02*
D03*
Y301575D02*
D03*
Y298425D02*
D03*
Y295276D02*
D03*
Y292126D02*
D03*
Y288976D02*
D03*
Y285827D02*
D03*
Y282677D02*
D03*
X108465Y285827D02*
D03*
Y288976D02*
D03*
Y292126D02*
D03*
Y295276D02*
D03*
Y298425D02*
D03*
Y301575D02*
D03*
Y304724D02*
D03*
Y307874D02*
D03*
Y311024D02*
D03*
Y314173D02*
D03*
Y317323D02*
D03*
X72638D02*
D03*
X108465Y322441D02*
D03*
Y327559D02*
D03*
Y332677D02*
D03*
D98*
X75787Y314173D02*
D03*
X79527Y282677D02*
D03*
X105315Y285827D02*
D03*
X75787Y311024D02*
D03*
Y307874D02*
D03*
Y304724D02*
D03*
Y301575D02*
D03*
Y298425D02*
D03*
Y295276D02*
D03*
Y292126D02*
D03*
Y288976D02*
D03*
Y285827D02*
D03*
Y282677D02*
D03*
X82677D02*
D03*
X85827D02*
D03*
X88976D02*
D03*
X92126D02*
D03*
X95276D02*
D03*
X98425D02*
D03*
X101575D02*
D03*
X105315D02*
D03*
Y288976D02*
D03*
Y292126D02*
D03*
Y295276D02*
D03*
Y298425D02*
D03*
Y301575D02*
D03*
Y304724D02*
D03*
Y307874D02*
D03*
Y311024D02*
D03*
Y314173D02*
D03*
X90551D02*
D03*
X83169D02*
D03*
X97933D02*
D03*
D99*
X73228Y279528D02*
D03*
X76378D02*
D03*
X79527D02*
D03*
X82677D02*
D03*
X85827D02*
D03*
X88976D02*
D03*
X92126D02*
D03*
X95276D02*
D03*
X98425D02*
D03*
X101575D02*
D03*
X104724D02*
D03*
X107874D02*
D03*
D100*
X42323Y308465D02*
D03*
Y305709D02*
D03*
Y302953D02*
D03*
Y300197D02*
D03*
Y297441D02*
D03*
Y294685D02*
D03*
Y291929D02*
D03*
Y289173D02*
D03*
Y286417D02*
D03*
Y283661D02*
D03*
Y280906D02*
D03*
Y278150D02*
D03*
Y275394D02*
D03*
Y272638D02*
D03*
Y269882D02*
D03*
Y267126D02*
D03*
Y264370D02*
D03*
Y261614D02*
D03*
Y258858D02*
D03*
Y256102D02*
D03*
Y253346D02*
D03*
Y250590D02*
D03*
Y247835D02*
D03*
Y245079D02*
D03*
Y242323D02*
D03*
Y239567D02*
D03*
Y236811D02*
D03*
Y234055D02*
D03*
Y231299D02*
D03*
Y228543D02*
D03*
D101*
X134843Y182087D02*
D03*
Y154527D02*
D03*
X277559Y299213D02*
D03*
Y271654D02*
D03*
Y226378D02*
D03*
Y253937D02*
D03*
D102*
X221457Y76968D02*
D03*
Y27756D02*
D03*
X221457Y155709D02*
D03*
Y204921D02*
D03*
D103*
X235728Y279705D02*
D03*
Y282303D02*
D03*
D104*
X310331Y298031D02*
D03*
D105*
X298331D02*
D03*
D106*
X348425Y214567D02*
D03*
Y159449D02*
D03*
Y72835D02*
D03*
Y17717D02*
D03*
D107*
X118760Y317067D02*
D03*
Y312067D02*
D03*
X123760D02*
D03*
Y317067D02*
D03*
D108*
X210630Y308957D02*
D03*
X208661D02*
D03*
X206693D02*
D03*
X204724D02*
D03*
X202756D02*
D03*
D109*
X214173Y318012D02*
D03*
X199213D02*
D03*
D110*
X302756Y323868D02*
D03*
D111*
X33661Y191339D02*
D03*
D112*
Y219685D02*
D03*
D113*
X28740Y189252D02*
D03*
X5315Y187835D02*
D03*
Y223189D02*
D03*
X28740Y221772D02*
D03*
D114*
X157480Y243110D02*
D03*
Y293898D02*
D03*
D115*
X127953Y258661D02*
D03*
Y268504D02*
D03*
Y278346D02*
D03*
X185039Y258661D02*
D03*
Y278346D02*
D03*
D116*
X354331Y307087D02*
D03*
X336614D02*
D03*
D117*
X67500Y141831D02*
D03*
Y51279D02*
D03*
D118*
X52480Y156831D02*
D03*
X49980Y126831D02*
D03*
X14980D02*
D03*
X34980Y156831D02*
D03*
Y66280D02*
D03*
X14980Y36279D02*
D03*
X49980D02*
D03*
X52480Y66280D02*
D03*
D119*
X275590Y321850D02*
D03*
Y15748D02*
D03*
X185039Y228346D02*
D03*
X137795Y321850D02*
D03*
D120*
X165748Y116142D02*
D03*
X170866D02*
D03*
X160630D02*
D03*
X155512D02*
D03*
X170866Y111024D02*
D03*
X165748D02*
D03*
X160630D02*
D03*
X155512D02*
D03*
Y105905D02*
D03*
X160630D02*
D03*
X165748D02*
D03*
X170866D02*
D03*
X155512Y121260D02*
D03*
X160630D02*
D03*
X165748D02*
D03*
X170866D02*
D03*
Y126378D02*
D03*
X165748D02*
D03*
X160630D02*
D03*
X155512D02*
D03*
X106398Y111260D02*
D03*
X102402Y115256D02*
D03*
X92480D02*
D03*
X97441D02*
D03*
X88484Y111260D02*
D03*
Y106299D02*
D03*
Y101339D02*
D03*
X92480Y97342D02*
D03*
X102402D02*
D03*
X97441D02*
D03*
X106398Y101339D02*
D03*
Y106299D02*
D03*
X102402Y111260D02*
D03*
X97441D02*
D03*
X92480D02*
D03*
Y106299D02*
D03*
X102402Y101339D02*
D03*
X92480D02*
D03*
X97441D02*
D03*
X102402Y106299D02*
D03*
X97441D02*
D03*
X151969Y218110D02*
D03*
X148819D02*
D03*
X145669D02*
D03*
Y214961D02*
D03*
X151969D02*
D03*
X148819D02*
D03*
X130976Y19685D02*
D03*
X133858Y22567D02*
D03*
X137795Y23622D02*
D03*
X141732Y22567D02*
D03*
X144521Y19640D02*
D03*
X145669Y15748D02*
D03*
X144614Y11811D02*
D03*
X141732Y8929D02*
D03*
X133858D02*
D03*
X137795Y7874D02*
D03*
X130976Y11811D02*
D03*
X129921Y15748D02*
D03*
D121*
X137795D02*
D03*
M02*
