G04*
G04 #@! TF.GenerationSoftware,Altium Limited,Altium Designer,19.0.10 (269)*
G04*
G04 Layer_Physical_Order=3*
G04 Layer_Color=16440176*
%FSLAX25Y25*%
%MOIN*%
G70*
G01*
G75*
%ADD14C,0.00787*%
%ADD15C,0.00591*%
%ADD17C,0.01575*%
%ADD18C,0.01181*%
%ADD132C,0.05512*%
%ADD134C,0.08661*%
%ADD136C,0.02362*%
%ADD137C,0.19685*%
%ADD138C,0.03937*%
G36*
X373012Y336595D02*
X373012Y1003D01*
X154164D01*
X154164Y24606D01*
X154164Y24607D01*
Y24607D01*
X154163Y24614D01*
X154164Y24622D01*
X154151Y24719D01*
X154158Y24816D01*
X154126Y25365D01*
X154080Y25607D01*
X154064Y25853D01*
X153945Y26451D01*
X153832Y26783D01*
X153741Y27122D01*
X153445Y27839D01*
X153270Y28142D01*
X153114Y28457D01*
X152684Y29102D01*
X152452Y29365D01*
X152239Y29643D01*
X151691Y30192D01*
X151412Y30405D01*
X151149Y30636D01*
X150504Y31067D01*
X150189Y31222D01*
X149886Y31398D01*
X149169Y31694D01*
X148831Y31785D01*
X148499Y31898D01*
X147738Y32049D01*
X147388Y32072D01*
X147040Y32117D01*
X146653Y32117D01*
X128937Y32117D01*
X128937Y32117D01*
X128551Y32117D01*
X128204Y32072D01*
X127856Y32049D01*
X127098Y31899D01*
X126767Y31787D01*
X126430Y31697D01*
X125715Y31402D01*
X125413Y31228D01*
X125099Y31074D01*
X124456Y30646D01*
X124193Y30416D01*
X123915Y30205D01*
X123367Y29660D01*
X123154Y29383D01*
X122923Y29122D01*
X122491Y28481D01*
X122335Y28168D01*
X122159Y27866D01*
X121861Y27154D01*
X121769Y26817D01*
X121655Y26487D01*
X121501Y25729D01*
X121476Y25381D01*
X121428Y25035D01*
X121426Y24649D01*
X121428Y24639D01*
X121426Y24629D01*
X121426Y1003D01*
X120861Y1003D01*
X1003D01*
Y183118D01*
X1533Y183379D01*
X1553Y183364D01*
X2798Y182848D01*
X4134Y182672D01*
X6496D01*
X7832Y182848D01*
X9077Y183364D01*
X10146Y184184D01*
X10967Y185254D01*
X11482Y186499D01*
X11658Y187835D01*
X11482Y189171D01*
X10967Y190416D01*
X10146Y191485D01*
X9077Y192305D01*
X7832Y192821D01*
X6496Y192997D01*
X4134D01*
X2798Y192821D01*
X1553Y192305D01*
X1533Y192290D01*
X1003Y192551D01*
Y218472D01*
X1533Y218733D01*
X1553Y218718D01*
X2798Y218203D01*
X4134Y218027D01*
X6496D01*
X7832Y218203D01*
X9077Y218718D01*
X10146Y219539D01*
X10967Y220608D01*
X11482Y221853D01*
X11658Y223189D01*
X11482Y224525D01*
X10967Y225770D01*
X10146Y226839D01*
X9077Y227660D01*
X7832Y228175D01*
X6496Y228351D01*
X4134D01*
X2798Y228175D01*
X1553Y227660D01*
X1533Y227645D01*
X1003Y227906D01*
Y317126D01*
X110236D01*
Y336595D01*
X373012Y336595D01*
D02*
G37*
G36*
X147802Y28392D02*
X148519Y28095D01*
X149163Y27665D01*
X149712Y27116D01*
X150143Y26471D01*
X150439Y25755D01*
X150558Y25156D01*
X150591Y24607D01*
Y24606D01*
X150591Y24606D01*
X150591Y24606D01*
X150591Y1003D01*
X125000D01*
X125000Y24629D01*
X125002Y25015D01*
X125157Y25772D01*
X125455Y26485D01*
X125887Y27125D01*
X126435Y27670D01*
X127078Y28098D01*
X127793Y28393D01*
X128551Y28543D01*
X128937Y28543D01*
Y28543D01*
X146653Y28543D01*
X147041Y28543D01*
X147802Y28392D01*
D02*
G37*
%LPC*%
G36*
X275590Y328773D02*
X274240Y328641D01*
X272941Y328246D01*
X271744Y327607D01*
X270695Y326746D01*
X269834Y325697D01*
X269194Y324500D01*
X268800Y323201D01*
X268668Y321850D01*
X268800Y320500D01*
X269194Y319201D01*
X269834Y318004D01*
X270695Y316955D01*
X271744Y316094D01*
X272941Y315454D01*
X274240Y315060D01*
X275590Y314927D01*
X276941Y315060D01*
X278240Y315454D01*
X279437Y316094D01*
X280486Y316955D01*
X281347Y318004D01*
X281987Y319201D01*
X282381Y320500D01*
X282514Y321850D01*
X282381Y323201D01*
X281987Y324500D01*
X281347Y325697D01*
X280486Y326746D01*
X279437Y327607D01*
X278240Y328246D01*
X276941Y328641D01*
X275590Y328773D01*
D02*
G37*
G36*
X137795D02*
X136445Y328641D01*
X135146Y328246D01*
X133949Y327607D01*
X132900Y326746D01*
X132039Y325697D01*
X131399Y324500D01*
X131005Y323201D01*
X130872Y321850D01*
X131005Y320500D01*
X131399Y319201D01*
X132039Y318004D01*
X132900Y316955D01*
X133949Y316094D01*
X135146Y315454D01*
X136445Y315060D01*
X137795Y314927D01*
X139146Y315060D01*
X140445Y315454D01*
X141642Y316094D01*
X142691Y316955D01*
X143552Y318004D01*
X144191Y319201D01*
X144585Y320500D01*
X144718Y321850D01*
X144585Y323201D01*
X144191Y324500D01*
X143552Y325697D01*
X142691Y326746D01*
X141642Y327607D01*
X140445Y328246D01*
X139146Y328641D01*
X137795Y328773D01*
D02*
G37*
G36*
X151575Y313625D02*
X150730Y313456D01*
X150013Y312978D01*
X149535Y312262D01*
X149367Y311417D01*
X149535Y310572D01*
X149698Y310328D01*
X150005Y309842D01*
X149698Y309356D01*
X149535Y309112D01*
X149367Y308267D01*
X149535Y307422D01*
X150013Y306706D01*
X150730Y306227D01*
X151575Y306059D01*
X152419Y306227D01*
X153136Y306706D01*
X153614Y307422D01*
X153782Y308267D01*
X153614Y309112D01*
X153451Y309356D01*
X153144Y309842D01*
X153451Y310328D01*
X153614Y310572D01*
X153782Y311417D01*
X153614Y312262D01*
X153136Y312978D01*
X152419Y313456D01*
X151575Y313625D01*
D02*
G37*
G36*
X118898Y305350D02*
X118206Y305212D01*
X117620Y304821D01*
X117618Y304817D01*
X117028D01*
X117025Y304821D01*
X116439Y305212D01*
X115748Y305350D01*
X115057Y305212D01*
X114471Y304821D01*
X114079Y304235D01*
X113942Y303543D01*
X114079Y302852D01*
X114471Y302266D01*
X115057Y301874D01*
X115748Y301737D01*
X116439Y301874D01*
X117025Y302266D01*
X117028Y302269D01*
X117618D01*
X117620Y302266D01*
X118206Y301874D01*
X118898Y301737D01*
X119589Y301874D01*
X120175Y302266D01*
X120566Y302852D01*
X120704Y303543D01*
X120566Y304235D01*
X120175Y304821D01*
X119589Y305212D01*
X118898Y305350D01*
D02*
G37*
G36*
X140500Y307806D02*
X139809Y307669D01*
X139223Y307277D01*
X138831Y306691D01*
X138694Y306000D01*
X138831Y305309D01*
X139223Y304723D01*
X139809Y304331D01*
X140500Y304194D01*
X141191Y304331D01*
X141777Y304723D01*
X142169Y305309D01*
X142306Y306000D01*
X142169Y306691D01*
X141777Y307277D01*
X141191Y307669D01*
X140500Y307806D01*
D02*
G37*
G36*
X111417Y307712D02*
X110726Y307574D01*
X110140Y307183D01*
X109748Y306597D01*
X109611Y305906D01*
X109748Y305214D01*
X110140Y304628D01*
X110726Y304237D01*
X111417Y304099D01*
X112109Y304237D01*
X112695Y304628D01*
X113086Y305214D01*
X113224Y305906D01*
X113086Y306597D01*
X112695Y307183D01*
X112109Y307574D01*
X111417Y307712D01*
D02*
G37*
G36*
X354331Y311058D02*
X353303Y310922D01*
X352345Y310526D01*
X351523Y309894D01*
X350892Y309072D01*
X350495Y308114D01*
X350360Y307087D01*
X350495Y306059D01*
X350892Y305101D01*
X351523Y304279D01*
X352345Y303648D01*
X353303Y303251D01*
X354331Y303116D01*
X355359Y303251D01*
X356316Y303648D01*
X357139Y304279D01*
X357770Y305101D01*
X358166Y306059D01*
X358302Y307087D01*
X358166Y308114D01*
X357770Y309072D01*
X357139Y309894D01*
X356316Y310526D01*
X355359Y310922D01*
X354331Y311058D01*
D02*
G37*
G36*
X336614Y311256D02*
X335535Y311114D01*
X334529Y310698D01*
X333666Y310035D01*
X333003Y309171D01*
X332587Y308166D01*
X332445Y307087D01*
X332587Y306008D01*
X333003Y305002D01*
X333666Y304138D01*
X334529Y303476D01*
X335535Y303059D01*
X336614Y302917D01*
X337693Y303059D01*
X338699Y303476D01*
X339563Y304138D01*
X340225Y305002D01*
X340642Y306008D01*
X340784Y307087D01*
X340642Y308166D01*
X340225Y309171D01*
X339563Y310035D01*
X338699Y310698D01*
X337693Y311114D01*
X336614Y311256D01*
D02*
G37*
G36*
X63779Y310082D02*
X62935Y309914D01*
X62218Y309435D01*
X61740Y308719D01*
X61572Y307874D01*
X61740Y307029D01*
X62218Y306313D01*
Y306286D01*
X61740Y305569D01*
X61572Y304724D01*
X61740Y303879D01*
X62218Y303163D01*
X62935Y302685D01*
X63779Y302517D01*
X64624Y302685D01*
X65341Y303163D01*
X65819Y303879D01*
X65987Y304724D01*
X65819Y305569D01*
X65341Y306286D01*
Y306313D01*
X65819Y307029D01*
X65987Y307874D01*
X65819Y308719D01*
X65341Y309435D01*
X64624Y309914D01*
X63779Y310082D01*
D02*
G37*
G36*
X102756Y307712D02*
X102065Y307574D01*
X101479Y307183D01*
X101087Y306597D01*
X100952Y305919D01*
X100812Y305374D01*
X100787Y305350D01*
X100096Y305212D01*
X99510Y304821D01*
X99119Y304235D01*
X98981Y303543D01*
X99119Y302852D01*
X99510Y302266D01*
X100096Y301874D01*
X100787Y301737D01*
X101479Y301874D01*
X102065Y302266D01*
X102456Y302852D01*
X102591Y303530D01*
X102732Y304075D01*
X102756Y304099D01*
X103447Y304237D01*
X104033Y304628D01*
X104425Y305214D01*
X104562Y305906D01*
X104425Y306597D01*
X104033Y307183D01*
X103447Y307574D01*
X102756Y307712D01*
D02*
G37*
G36*
X114173Y297475D02*
X113482Y297338D01*
X112896Y296946D01*
X112504Y296360D01*
X112466Y296170D01*
X112203Y295691D01*
X111825Y295742D01*
X111500Y295806D01*
X110809Y295669D01*
X110223Y295277D01*
X109831Y294691D01*
X109694Y294000D01*
X109831Y293309D01*
X110223Y292723D01*
X110809Y292331D01*
X111500Y292194D01*
X112191Y292331D01*
X112777Y292723D01*
X113169Y293309D01*
X113207Y293498D01*
X113470Y293978D01*
X113848Y293927D01*
X114173Y293862D01*
X114864Y294000D01*
X115450Y294391D01*
X115842Y294977D01*
X115979Y295669D01*
X115842Y296360D01*
X115450Y296946D01*
X114864Y297338D01*
X114173Y297475D01*
D02*
G37*
G36*
X102756Y301413D02*
X102065Y301275D01*
X101479Y300884D01*
X101087Y300298D01*
X100952Y299620D01*
X100812Y299075D01*
X100787Y299050D01*
X100096Y298913D01*
X99510Y298521D01*
X99119Y297935D01*
X98981Y297244D01*
X99119Y296553D01*
X99510Y295967D01*
X100096Y295575D01*
X100787Y295438D01*
X101479Y295575D01*
X102065Y295967D01*
X102456Y296553D01*
X102591Y297231D01*
X102732Y297776D01*
X102756Y297800D01*
X103447Y297937D01*
X104033Y298329D01*
X104425Y298915D01*
X104562Y299606D01*
X104425Y300298D01*
X104033Y300884D01*
X103447Y301275D01*
X102756Y301413D01*
D02*
G37*
G36*
X130315Y297082D02*
X129624Y296944D01*
X129038Y296553D01*
X128646Y295967D01*
X128509Y295276D01*
X128646Y294584D01*
X129038Y293998D01*
X129624Y293607D01*
X130315Y293469D01*
X131006Y293607D01*
X131592Y293998D01*
X131984Y294584D01*
X132121Y295276D01*
X131984Y295967D01*
X131592Y296553D01*
X131006Y296944D01*
X130315Y297082D01*
D02*
G37*
G36*
X102362Y293932D02*
X101671Y293795D01*
X101085Y293403D01*
X100693Y292817D01*
X100556Y292126D01*
X100693Y291435D01*
X101085Y290849D01*
X101671Y290457D01*
X102362Y290320D01*
X103053Y290457D01*
X103639Y290849D01*
X104031Y291435D01*
X104169Y292126D01*
X104031Y292817D01*
X103639Y293403D01*
X103053Y293795D01*
X102362Y293932D01*
D02*
G37*
G36*
X163189Y299410D02*
X151772D01*
Y288386D01*
X163189D01*
Y299410D01*
D02*
G37*
G36*
X102371Y289611D02*
X101680Y289473D01*
X101094Y289082D01*
X100703Y288496D01*
X100565Y287804D01*
X100703Y287113D01*
X101094Y286527D01*
X101680Y286136D01*
X102371Y285998D01*
X103063Y286136D01*
X103649Y286527D01*
X104040Y287113D01*
X104178Y287804D01*
X104040Y288496D01*
X103649Y289082D01*
X103063Y289473D01*
X102371Y289611D01*
D02*
G37*
G36*
X90551Y289601D02*
X89860Y289464D01*
X89274Y289072D01*
X88882Y288486D01*
X88745Y287795D01*
X88882Y287104D01*
X88418Y286735D01*
X88285Y286708D01*
X87699Y286317D01*
X87308Y285731D01*
X87170Y285039D01*
X87308Y284348D01*
X87699Y283762D01*
X88285Y283370D01*
X88976Y283233D01*
X89668Y283370D01*
X90254Y283762D01*
X90645Y284348D01*
X90783Y285039D01*
X90645Y285731D01*
X91109Y286099D01*
X91242Y286126D01*
X91828Y286517D01*
X92220Y287103D01*
X92357Y287795D01*
X92220Y288486D01*
X91828Y289072D01*
X91242Y289464D01*
X90551Y289601D01*
D02*
G37*
G36*
X97244D02*
X96553Y289464D01*
X95967Y289072D01*
X95575Y288486D01*
X95438Y287795D01*
X95575Y287104D01*
X95112Y286734D01*
X94978Y286708D01*
X94392Y286316D01*
X94000Y285730D01*
X93863Y285039D01*
X94000Y284348D01*
X94392Y283762D01*
X94978Y283370D01*
X95669Y283232D01*
X96360Y283370D01*
X96946Y283762D01*
X97338Y284348D01*
X97475Y285039D01*
X97338Y285730D01*
X97802Y286099D01*
X97935Y286126D01*
X98521Y286517D01*
X98913Y287103D01*
X99050Y287795D01*
X98913Y288486D01*
X98521Y289072D01*
X97935Y289464D01*
X97244Y289601D01*
D02*
G37*
G36*
X84646Y289602D02*
X83954Y289464D01*
X83368Y289073D01*
X82977Y288487D01*
X82839Y287795D01*
X82928Y287348D01*
X82962Y287091D01*
X82528Y286713D01*
X82309Y286669D01*
X81723Y286277D01*
X81331Y285691D01*
X81194Y285000D01*
X81331Y284309D01*
X81723Y283723D01*
X82309Y283331D01*
X83000Y283194D01*
X83691Y283331D01*
X84277Y283723D01*
X84669Y284309D01*
X84806Y285000D01*
X84718Y285447D01*
X84683Y285704D01*
X85118Y286083D01*
X85337Y286126D01*
X85923Y286518D01*
X86314Y287104D01*
X86452Y287795D01*
X86314Y288487D01*
X85923Y289073D01*
X85337Y289464D01*
X84646Y289602D01*
D02*
G37*
G36*
X197835Y292141D02*
X197544D01*
X197466Y292126D01*
X197387D01*
X196817Y292013D01*
X196744Y291982D01*
X196666Y291967D01*
X196129Y291744D01*
X196063Y291700D01*
X195990Y291670D01*
X195506Y291347D01*
X195450Y291291D01*
X195385Y291247D01*
X194973Y290836D01*
X194929Y290770D01*
X194874Y290714D01*
X194550Y290230D01*
X194520Y290157D01*
X194476Y290092D01*
X194309Y289689D01*
X182579D01*
X181859Y289594D01*
X181189Y289317D01*
X180613Y288875D01*
X175200Y283462D01*
X174758Y282886D01*
X174480Y282215D01*
X174386Y281496D01*
Y238356D01*
X166163Y230134D01*
X163386Y230134D01*
X163386Y230134D01*
X163241D01*
X163202Y230126D01*
X163162Y230130D01*
X162873Y230101D01*
X162835Y230090D01*
X162795D01*
X162511Y230033D01*
X162474Y230018D01*
X162434Y230014D01*
X162157Y229930D01*
X162122Y229911D01*
X162083Y229903D01*
X161916Y229834D01*
X160049Y231702D01*
X159593Y232007D01*
X159055Y232114D01*
X135732D01*
X135337Y232378D01*
X134646Y232515D01*
X133954Y232378D01*
X133368Y231986D01*
X132977Y231400D01*
X132839Y230709D01*
X132977Y230017D01*
X133368Y229431D01*
X133954Y229040D01*
X134646Y228902D01*
X135337Y229040D01*
X135732Y229304D01*
X158473D01*
X159930Y227847D01*
X159861Y227681D01*
X159853Y227642D01*
X159834Y227607D01*
X159750Y227329D01*
X159746Y227290D01*
X159731Y227253D01*
X159674Y226968D01*
Y226928D01*
X159662Y226890D01*
X159634Y226602D01*
X159638Y226562D01*
X159630Y226523D01*
X159630Y223425D01*
X159630Y223280D01*
X159638Y223241D01*
X159634Y223201D01*
X159662Y222913D01*
X159674Y222875D01*
Y222835D01*
X159731Y222550D01*
X159746Y222514D01*
X159750Y222474D01*
X159834Y222196D01*
X159853Y222161D01*
X159861Y222122D01*
X159972Y221854D01*
X159994Y221821D01*
X160005Y221783D01*
X160142Y221527D01*
X160167Y221496D01*
X160183Y221459D01*
X160344Y221218D01*
X160372Y221190D01*
X160391Y221155D01*
X160575Y220931D01*
X160606Y220905D01*
X160628Y220872D01*
X160833Y220667D01*
X160866Y220645D01*
X160891Y220614D01*
X161115Y220430D01*
X161151Y220411D01*
X161179Y220383D01*
X161420Y220222D01*
X161457Y220207D01*
X161487Y220181D01*
X161743Y220045D01*
X161782Y220033D01*
X161815Y220011D01*
X162083Y219900D01*
X162122Y219892D01*
X162157Y219873D01*
X162434Y219789D01*
X162474Y219785D01*
X162511Y219770D01*
X162795Y219713D01*
X162835D01*
X162873Y219702D01*
X163162Y219673D01*
X163202Y219677D01*
X163241Y219670D01*
X163386Y219670D01*
X166339D01*
X166484Y219670D01*
X166523Y219677D01*
X166562Y219673D01*
X166851Y219702D01*
X166889Y219713D01*
X166929D01*
X167213Y219770D01*
X167250Y219785D01*
X167290Y219789D01*
X167568Y219873D01*
X167603Y219892D01*
X167642Y219900D01*
X167910Y220011D01*
X167943Y220033D01*
X167981Y220045D01*
X168237Y220181D01*
X168268Y220207D01*
X168304Y220222D01*
X168546Y220383D01*
X168574Y220411D01*
X168609Y220430D01*
X168833Y220614D01*
X168859Y220645D01*
X168892Y220667D01*
X169097Y220872D01*
X169119Y220905D01*
X169150Y220931D01*
X169334Y221155D01*
X169352Y221190D01*
X169381Y221218D01*
X169542Y221459D01*
X169557Y221496D01*
X169582Y221527D01*
X169719Y221783D01*
X169731Y221821D01*
X169753Y221854D01*
X169864Y222122D01*
X169872Y222161D01*
X169890Y222196D01*
X169975Y222474D01*
X169978Y222514D01*
X169994Y222550D01*
X170050Y222835D01*
Y222875D01*
X170062Y222913D01*
X170090Y223201D01*
X170086Y223241D01*
X170094Y223280D01*
X170094Y223425D01*
X170094Y226203D01*
X179131Y235239D01*
X179573Y235815D01*
X179850Y236485D01*
X179945Y237205D01*
Y280345D01*
X183730Y284130D01*
X194309D01*
X194476Y283727D01*
X194520Y283661D01*
X194550Y283588D01*
X194874Y283105D01*
X194930Y283049D01*
X194973Y282983D01*
X195385Y282572D01*
X195450Y282528D01*
X195506Y282472D01*
X195990Y282149D01*
X196063Y282119D01*
X196129Y282075D01*
X196666Y281852D01*
X196744Y281837D01*
X196817Y281806D01*
X197387Y281693D01*
X197466D01*
X197544Y281678D01*
X200787Y281678D01*
X200819Y281684D01*
X200851Y281680D01*
X201335Y281718D01*
X201381Y281731D01*
X201428D01*
X201805Y281806D01*
X201878Y281837D01*
X201956Y281852D01*
X202493Y282075D01*
X202559Y282119D01*
X202632Y282149D01*
X203116Y282472D01*
X203172Y282528D01*
X203237Y282572D01*
X203649Y282983D01*
X203693Y283049D01*
X203748Y283105D01*
X204072Y283588D01*
X204102Y283661D01*
X204146Y283727D01*
X204368Y284264D01*
X204384Y284342D01*
X204414Y284415D01*
X204527Y284986D01*
Y285065D01*
X204543Y285142D01*
X204543Y285433D01*
X204543Y288386D01*
X204543Y288386D01*
Y288386D01*
X204537Y288415D01*
X204541Y288445D01*
X204507Y288905D01*
X204494Y288953D01*
Y289003D01*
X204414Y289404D01*
X204384Y289477D01*
X204368Y289554D01*
X204146Y290092D01*
X204102Y290157D01*
X204072Y290230D01*
X203748Y290714D01*
X203693Y290770D01*
X203649Y290836D01*
X203237Y291247D01*
X203172Y291291D01*
X203116Y291347D01*
X202632Y291670D01*
X202559Y291700D01*
X202493Y291744D01*
X201956Y291967D01*
X201878Y291982D01*
X201805Y292013D01*
X201235Y292126D01*
X201156D01*
X201078Y292141D01*
X200787Y292141D01*
X200787Y292141D01*
X197835Y292141D01*
X197835Y292141D01*
D02*
G37*
G36*
X127165Y318736D02*
X126474Y318598D01*
X125888Y318206D01*
X125496Y317620D01*
X125404Y317155D01*
X124597Y316348D01*
X124293Y315892D01*
X124186Y315354D01*
Y301369D01*
X113985Y291169D01*
X110630D01*
X110092Y291062D01*
X109636Y290757D01*
X98121Y279241D01*
X97816Y278786D01*
X97802Y278714D01*
X97148Y278440D01*
X96457Y278578D01*
X95765Y278440D01*
X95179Y278049D01*
X94788Y277463D01*
X94650Y276772D01*
X94788Y276080D01*
X95179Y275494D01*
X95765Y275103D01*
X95934Y275069D01*
X96128Y274429D01*
X94758Y273059D01*
X93187D01*
X93009Y273324D01*
X92423Y273716D01*
X92197Y273761D01*
X91736Y274222D01*
X91280Y274526D01*
X90742Y274633D01*
X85624D01*
X85087Y274526D01*
X84631Y274222D01*
X83691Y273283D01*
X82981Y273407D01*
X82773Y273718D01*
X82187Y274110D01*
X81496Y274247D01*
X80805Y274110D01*
X80219Y273718D01*
X79827Y273132D01*
X79690Y272441D01*
X79763Y272074D01*
X79349Y271484D01*
X76173D01*
X70358Y277299D01*
X70530Y277961D01*
X70962Y278250D01*
X71354Y278836D01*
X71491Y279528D01*
X71354Y280219D01*
X70962Y280805D01*
X70376Y281196D01*
X69685Y281334D01*
X68994Y281196D01*
X68408Y280805D01*
X68119Y280373D01*
X67456Y280200D01*
X66742Y280915D01*
X66286Y281219D01*
X65748Y281326D01*
X56488D01*
X54517Y283296D01*
X54425Y283762D01*
X54033Y284348D01*
X53447Y284740D01*
X52756Y284877D01*
X52065Y284740D01*
X51479Y284348D01*
X51087Y283762D01*
X50950Y283071D01*
X51087Y282380D01*
X51479Y281794D01*
X52065Y281402D01*
X52530Y281309D01*
X54912Y278928D01*
X55368Y278623D01*
X55905Y278516D01*
X65166D01*
X74597Y269085D01*
X75053Y268781D01*
X75590Y268674D01*
X82474D01*
X82668Y268712D01*
X83304Y268367D01*
X83352Y268298D01*
X83371Y268206D01*
X83762Y267620D01*
X83765Y267618D01*
Y267028D01*
X83762Y267025D01*
X83371Y266439D01*
X83233Y265748D01*
X83371Y265057D01*
X83762Y264471D01*
X84348Y264079D01*
X85039Y263942D01*
X85731Y264079D01*
X86317Y264471D01*
X86708Y265057D01*
X86846Y265748D01*
X86708Y266439D01*
X86317Y267025D01*
X86313Y267028D01*
Y267618D01*
X86317Y267620D01*
X86708Y268206D01*
X86846Y268898D01*
X86708Y269589D01*
X86317Y270175D01*
X85763Y270545D01*
X85674Y270637D01*
X85522Y271139D01*
X86206Y271823D01*
X89970D01*
X90063Y271355D01*
X90455Y270769D01*
X90458Y270767D01*
Y270177D01*
X90455Y270174D01*
X90063Y269588D01*
X89926Y268897D01*
X90063Y268206D01*
X90455Y267620D01*
X91041Y267228D01*
X91063Y267224D01*
X91258Y266583D01*
X84540Y259866D01*
X78391D01*
X78071Y260456D01*
X78184Y261024D01*
X78047Y261715D01*
X77655Y262301D01*
X77069Y262692D01*
X76378Y262830D01*
X75687Y262692D01*
X75101Y262301D01*
X74709Y261715D01*
X74572Y261024D01*
X74685Y260456D01*
X74365Y259866D01*
X72638D01*
X72638Y259866D01*
X72177Y259774D01*
X71786Y259513D01*
X66078Y253804D01*
X65817Y253414D01*
X65725Y252953D01*
X65725Y252953D01*
Y247389D01*
X65652Y247340D01*
X65260Y246754D01*
X65123Y246063D01*
X65260Y245372D01*
X65652Y244786D01*
X66238Y244394D01*
X66929Y244257D01*
X67620Y244394D01*
X68206Y244786D01*
X68598Y245372D01*
X68735Y246063D01*
X68598Y246754D01*
X68206Y247340D01*
X68133Y247389D01*
Y252454D01*
X73137Y257457D01*
X85039D01*
X85039Y257457D01*
X85500Y257549D01*
X85891Y257810D01*
X96365Y268284D01*
X101579D01*
X101817Y268046D01*
X102208Y267785D01*
X102669Y267693D01*
X102669Y267693D01*
X104579D01*
X104628Y267620D01*
X105214Y267229D01*
X105905Y267091D01*
X106597Y267229D01*
X107183Y267620D01*
X107704Y267337D01*
X107778Y267226D01*
X108364Y266834D01*
X109055Y266697D01*
X109746Y266834D01*
X110332Y267226D01*
X110724Y267812D01*
X110861Y268503D01*
X110724Y269195D01*
X110414Y269658D01*
X110561Y270093D01*
X110676Y270249D01*
X112804D01*
X113949Y269103D01*
Y260031D01*
X102961Y249043D01*
X93486D01*
X93072Y249633D01*
X93145Y250000D01*
X93007Y250691D01*
X92616Y251277D01*
X92030Y251669D01*
X91625Y251749D01*
X91466Y252383D01*
X92501Y253233D01*
X92499Y253235D01*
X92499Y253235D01*
X93876Y254612D01*
X93937Y254702D01*
X95025Y255595D01*
X96360Y256309D01*
X97809Y256748D01*
X99209Y256886D01*
X99315Y256865D01*
X106480D01*
X106629Y256765D01*
X107513Y256590D01*
X107954Y256677D01*
X108268Y256615D01*
X109036Y256768D01*
X109687Y257203D01*
X110122Y257854D01*
X110275Y258622D01*
X110122Y259390D01*
X109687Y260041D01*
Y260156D01*
X110122Y260807D01*
X110275Y261575D01*
X110122Y262343D01*
X109687Y262994D01*
X109036Y263429D01*
X108268Y263582D01*
X107954Y263520D01*
X107513Y263607D01*
X106629Y263432D01*
X106480Y263332D01*
X105277D01*
X104980Y263922D01*
X105212Y264269D01*
X105350Y264960D01*
X105212Y265651D01*
X104820Y266237D01*
X104234Y266629D01*
X103543Y266767D01*
X102852Y266629D01*
X102266Y266237D01*
X102022Y265872D01*
X101841Y265655D01*
X101284Y265709D01*
X101085Y265842D01*
X100393Y265979D01*
X99702Y265842D01*
X99116Y265450D01*
X98725Y264864D01*
X98587Y264173D01*
X98647Y263872D01*
X98226Y263246D01*
X97092Y263157D01*
X94937Y262640D01*
X92889Y261792D01*
X91000Y260634D01*
X89319Y259199D01*
X89314Y259195D01*
X89314Y259195D01*
X89314Y259195D01*
X87936Y257817D01*
X87895Y257756D01*
X87235Y257249D01*
X86398Y256902D01*
X85573Y256794D01*
X85500Y256808D01*
X76638D01*
X76522Y256785D01*
X75312Y256666D01*
X74037Y256279D01*
X72862Y255651D01*
X71832Y254806D01*
X70987Y253776D01*
X70359Y252601D01*
X69972Y251326D01*
X69853Y250116D01*
X69830Y250000D01*
Y248151D01*
X70005Y247268D01*
X70506Y246519D01*
X70602Y246455D01*
X70628Y246415D01*
X71279Y245980D01*
X72047Y245828D01*
X72131Y245844D01*
X72138Y245843D01*
X72258Y245867D01*
X72368Y245317D01*
X72545Y245051D01*
X72555Y245000D01*
X72990Y244349D01*
X73641Y243913D01*
X74410Y243761D01*
X75178Y243913D01*
X75829Y244349D01*
X75849Y244379D01*
X76132Y244568D01*
X76632Y245317D01*
X76808Y246200D01*
Y249897D01*
X77001Y250148D01*
X77253Y250342D01*
X82775D01*
X83244Y249751D01*
X83194Y249500D01*
X83331Y248809D01*
X83723Y248223D01*
X84309Y247831D01*
X85000Y247694D01*
X85691Y247831D01*
X86245Y248201D01*
X87607D01*
X89164Y246644D01*
X89620Y246340D01*
X90158Y246233D01*
X103543D01*
X104081Y246340D01*
X104537Y246644D01*
X111027Y253134D01*
X112660D01*
X113949Y251844D01*
Y240551D01*
X114056Y240014D01*
X114361Y239558D01*
X121467Y232452D01*
X121560Y231986D01*
X121951Y231400D01*
X122537Y231008D01*
X123003Y230916D01*
X128301Y225618D01*
X128056Y225027D01*
X57669D01*
X55699Y226997D01*
X55606Y227463D01*
X55214Y228049D01*
X54628Y228440D01*
X53937Y228578D01*
X53246Y228440D01*
X52660Y228049D01*
X52268Y227463D01*
X52131Y226772D01*
X52268Y226080D01*
X52660Y225494D01*
X53246Y225103D01*
X53712Y225010D01*
X56093Y222629D01*
X56549Y222324D01*
X57087Y222217D01*
X127764D01*
X129735Y220247D01*
X129827Y219781D01*
X130219Y219195D01*
X130805Y218804D01*
X131496Y218666D01*
X131863Y218739D01*
X132453Y218325D01*
Y215543D01*
X130109Y213198D01*
X129804Y212742D01*
X129697Y212205D01*
Y205700D01*
X127747Y203749D01*
X127442Y203294D01*
X127335Y202756D01*
Y186015D01*
X123416Y182096D01*
X123111Y181640D01*
X123004Y181102D01*
Y177559D01*
X123004Y174016D01*
X123004Y174016D01*
Y147423D01*
X122414Y147009D01*
X122047Y147082D01*
X121356Y146944D01*
X120987Y147408D01*
X120960Y147542D01*
X120569Y148128D01*
X119983Y148519D01*
X119291Y148657D01*
X118600Y148519D01*
X118014Y148128D01*
X117622Y147542D01*
X117485Y146850D01*
X117622Y146159D01*
X118014Y145573D01*
X118600Y145182D01*
X119291Y145044D01*
X119983Y145182D01*
X120352Y144718D01*
X120378Y144584D01*
X120770Y143998D01*
X121356Y143607D01*
X122047Y143469D01*
X122414Y143542D01*
X123004Y143128D01*
Y142314D01*
X111623Y130932D01*
X90063D01*
X89668Y131196D01*
X88976Y131334D01*
X88285Y131196D01*
X87699Y130805D01*
X87308Y130219D01*
X87170Y129528D01*
X87308Y128836D01*
X87699Y128250D01*
X88285Y127859D01*
X88976Y127721D01*
X89668Y127859D01*
X90063Y128123D01*
X110759D01*
X110939Y127532D01*
X110534Y127261D01*
X110142Y126675D01*
X110005Y125984D01*
X110142Y125293D01*
X110534Y124707D01*
X111120Y124315D01*
X111811Y124178D01*
X112502Y124315D01*
X113088Y124707D01*
X113480Y125293D01*
X113573Y125759D01*
X119818Y132005D01*
X120481Y131832D01*
X120770Y131400D01*
X121356Y131008D01*
X122047Y130871D01*
X122739Y131008D01*
X123325Y131400D01*
X123716Y131986D01*
X123854Y132677D01*
X123716Y133368D01*
X123325Y133955D01*
X122892Y134243D01*
X122720Y134906D01*
X127765Y139951D01*
X128070Y140407D01*
X128177Y140945D01*
Y142293D01*
X128722Y142519D01*
X133241Y138001D01*
Y121054D01*
X130503Y118316D01*
X130198Y117860D01*
X130091Y117323D01*
Y109243D01*
X125592Y104745D01*
X125048Y105035D01*
X125143Y105512D01*
X124967Y106395D01*
X124505Y107087D01*
X124967Y107778D01*
X125143Y108661D01*
X124967Y109545D01*
X124467Y110293D01*
X124465Y110294D01*
X121711Y113049D01*
X120962Y113549D01*
X120079Y113725D01*
X118040D01*
X117814Y114271D01*
X122835Y119291D01*
Y121385D01*
X123228Y121707D01*
X123847D01*
X124070Y121485D01*
Y118110D01*
X124246Y117227D01*
X124746Y116478D01*
X125495Y115978D01*
X126378Y115802D01*
X127261Y115978D01*
X128010Y116478D01*
X128510Y117227D01*
X128686Y118110D01*
Y122441D01*
X128510Y123324D01*
X128010Y124073D01*
X126435Y125648D01*
X125687Y126148D01*
X124803Y126324D01*
X124339D01*
X124113Y126869D01*
X124803Y127559D01*
X126378Y127559D01*
Y129921D01*
X124803Y129921D01*
X120866Y125984D01*
X120866Y120079D01*
X112598Y111811D01*
X110236Y111811D01*
X110236Y116142D01*
X108268Y118110D01*
X87598Y118110D01*
X85630Y116142D01*
X81693D01*
X80709Y117126D01*
Y129921D01*
X92520Y141732D01*
Y156496D01*
X96457Y160433D01*
Y171260D01*
X91535Y176181D01*
X89567Y176181D01*
X35630Y176181D01*
X35433Y176181D01*
X35039Y176181D01*
X35039Y175754D01*
Y171654D01*
X41732Y164961D01*
Y161946D01*
X41142Y161735D01*
X40575Y162425D01*
X39376Y163409D01*
X38008Y164141D01*
X36524Y164591D01*
X34980Y164743D01*
X33437Y164591D01*
X31953Y164141D01*
X30585Y163409D01*
X29386Y162425D01*
X28402Y161226D01*
X27670Y159859D01*
X27220Y158374D01*
X27068Y156831D01*
X27220Y155287D01*
X27670Y153803D01*
X28402Y152435D01*
X29386Y151236D01*
X30585Y150252D01*
X31953Y149521D01*
X33437Y149071D01*
X34980Y148919D01*
X36524Y149071D01*
X38008Y149521D01*
X39376Y150252D01*
X40575Y151236D01*
X41142Y151927D01*
X41732Y151715D01*
X41732Y130352D01*
X40354D01*
X39224Y130203D01*
X38170Y129767D01*
X37266Y129073D01*
X35297Y127104D01*
X34603Y126200D01*
X34167Y125146D01*
X34018Y124016D01*
Y81534D01*
X24805Y72321D01*
X24111Y71416D01*
X23674Y70363D01*
X23526Y69232D01*
Y63344D01*
X23674Y62214D01*
X24111Y61160D01*
X24805Y60255D01*
X35002Y50059D01*
Y38386D01*
X35151Y37255D01*
X35587Y36202D01*
X36281Y35297D01*
X38486Y33092D01*
X39391Y32398D01*
X40444Y31962D01*
X41575Y31813D01*
X43460D01*
X44386Y30685D01*
X45585Y29701D01*
X46953Y28970D01*
X48437Y28519D01*
X49980Y28367D01*
X51524Y28519D01*
X53008Y28970D01*
X54376Y29701D01*
X55575Y30685D01*
X56559Y31884D01*
X56562Y31890D01*
X96457D01*
X96457Y64961D01*
X102362Y70866D01*
X122047Y70866D01*
X129921Y78740D01*
X129921Y87795D01*
X126378Y91339D01*
Y101556D01*
X132490Y107668D01*
X132794Y108124D01*
X132901Y108661D01*
Y114914D01*
X133055Y115027D01*
X133492Y115175D01*
X133954Y114866D01*
X134645Y114729D01*
X135337Y114866D01*
X135409Y114915D01*
X136000Y114599D01*
Y109419D01*
X131893Y105312D01*
X131451Y104736D01*
X131173Y104066D01*
X131079Y103347D01*
Y102592D01*
X130488Y102276D01*
X130219Y102456D01*
X129528Y102594D01*
X128836Y102456D01*
X128250Y102065D01*
X127859Y101479D01*
X127721Y100787D01*
X127859Y100096D01*
X128250Y99510D01*
X128836Y99119D01*
X129528Y98981D01*
X130219Y99119D01*
X130488Y99298D01*
X131079Y98983D01*
Y97441D01*
X131087Y97378D01*
Y94488D01*
X131087Y94424D01*
X131097Y94372D01*
X131094Y94319D01*
X131111Y94191D01*
X131128Y94141D01*
X131131Y94088D01*
X131165Y93963D01*
X131188Y93916D01*
X131198Y93864D01*
X131248Y93745D01*
X131277Y93701D01*
X131294Y93651D01*
X131359Y93539D01*
X131394Y93499D01*
X131417Y93451D01*
X131495Y93349D01*
X131535Y93314D01*
X131565Y93270D01*
X131656Y93179D01*
X131700Y93150D01*
X131735Y93110D01*
X131837Y93031D01*
X131885Y93008D01*
X131925Y92973D01*
X132036Y92908D01*
X132087Y92891D01*
X132131Y92862D01*
X132250Y92812D01*
X132302Y92802D01*
X132349Y92779D01*
X132474Y92745D01*
X132527Y92742D01*
X132577Y92725D01*
X132705Y92708D01*
X132758Y92711D01*
X132810Y92701D01*
X132874Y92701D01*
X137795D01*
X137860Y92701D01*
X137912Y92711D01*
X137965Y92708D01*
X138093Y92725D01*
X138143Y92742D01*
X138196Y92745D01*
X138320Y92779D01*
X138368Y92802D01*
X138420Y92813D01*
X138539Y92862D01*
X138583Y92891D01*
X138633Y92908D01*
X138745Y92973D01*
X138785Y93008D01*
X138832Y93031D01*
X138934Y93110D01*
X138969Y93150D01*
X139013Y93179D01*
X139104Y93270D01*
X139134Y93314D01*
X139174Y93349D01*
X139252Y93451D01*
X139276Y93499D01*
X139311Y93539D01*
X139375Y93651D01*
X139392Y93701D01*
X139422Y93745D01*
X139471Y93864D01*
X139481Y93916D01*
X139505Y93963D01*
X139538Y94088D01*
X139542Y94141D01*
X139559Y94191D01*
X139576Y94319D01*
X139572Y94372D01*
X139582Y94424D01*
X139582Y94488D01*
X139582Y95994D01*
X139582Y95994D01*
X139582Y95994D01*
X139582Y96457D01*
X139564Y96550D01*
X139560Y96645D01*
X139483Y96964D01*
X139431Y97076D01*
X139389Y97192D01*
X139366Y97218D01*
X139351Y97249D01*
X139260Y97332D01*
X139177Y97423D01*
X138729Y97751D01*
X138713Y97759D01*
X138701Y97772D01*
X138572Y97825D01*
X138445Y97884D01*
X138428Y97885D01*
X138411Y97891D01*
X138272D01*
X138133Y97897D01*
X138116Y97891D01*
X138098D01*
X137922Y97856D01*
X137795Y97848D01*
X137669Y97856D01*
X137544Y97881D01*
X137424Y97922D01*
X137310Y97978D01*
X137204Y98049D01*
X137194Y98057D01*
X137171Y98071D01*
X137160Y98078D01*
X137154Y98080D01*
X137126Y98097D01*
X137066Y98149D01*
X136992Y98175D01*
X136923Y98214D01*
X136851Y98224D01*
X136827Y98235D01*
X136753Y98255D01*
X136732Y98264D01*
X136711Y98276D01*
X136693Y98290D01*
X136676Y98307D01*
X136662Y98325D01*
X136650Y98346D01*
X136641Y98367D01*
X136638Y98378D01*
Y102195D01*
X140745Y106302D01*
X141187Y106878D01*
X141464Y107548D01*
X141559Y108268D01*
Y117457D01*
X142150Y117636D01*
X142423Y117227D01*
X143009Y116835D01*
X143701Y116698D01*
X144392Y116835D01*
X144978Y117227D01*
X145370Y117813D01*
X145507Y118504D01*
X145370Y119195D01*
X144978Y119781D01*
X144392Y120173D01*
X143701Y120310D01*
X143009Y120173D01*
X142423Y119781D01*
X142150Y119372D01*
X141559Y119551D01*
Y140748D01*
X141464Y141467D01*
X141187Y142138D01*
X140745Y142714D01*
X137622Y145836D01*
Y161144D01*
X137965Y161606D01*
X138093Y161623D01*
X138143Y161639D01*
X138196Y161643D01*
X138320Y161676D01*
X138368Y161700D01*
X138419Y161710D01*
X138539Y161759D01*
X138583Y161789D01*
X138633Y161806D01*
X138745Y161870D01*
X138785Y161905D01*
X138832Y161929D01*
X138934Y162007D01*
X138969Y162047D01*
X139013Y162076D01*
X139104Y162168D01*
X139134Y162212D01*
X139174Y162247D01*
X139252Y162349D01*
X139276Y162397D01*
X139311Y162436D01*
X139375Y162548D01*
X139392Y162598D01*
X139422Y162642D01*
X139471Y162762D01*
X139481Y162813D01*
X139505Y162861D01*
X139532Y162963D01*
X147635Y171066D01*
X148077Y171642D01*
X148354Y172312D01*
X148449Y173031D01*
Y183888D01*
X149782Y185221D01*
X154528D01*
X154528Y185221D01*
X154624D01*
X154663Y185229D01*
X154703Y185225D01*
X154895Y185244D01*
X154934Y185255D01*
X154973D01*
X155163Y185293D01*
X155200Y185308D01*
X155239Y185312D01*
X155425Y185368D01*
X155460Y185387D01*
X155499Y185395D01*
X155677Y185469D01*
X155710Y185491D01*
X155749Y185502D01*
X155919Y185594D01*
X155950Y185619D01*
X155987Y185634D01*
X156148Y185742D01*
X156176Y185770D01*
X156211Y185789D01*
X156360Y185911D01*
X156386Y185942D01*
X156419Y185964D01*
X156556Y186101D01*
X156578Y186134D01*
X156608Y186159D01*
X156731Y186309D01*
X156750Y186344D01*
X156778Y186372D01*
X156886Y186533D01*
X156901Y186570D01*
X156926Y186600D01*
X157017Y186771D01*
X157029Y186809D01*
X157051Y186842D01*
X157125Y187021D01*
X157133Y187060D01*
X157151Y187095D01*
X157208Y187280D01*
X157211Y187320D01*
X157227Y187357D01*
X157264Y187546D01*
Y187586D01*
X157276Y187624D01*
X157295Y187817D01*
X157291Y187856D01*
X157299Y187895D01*
X157299Y187992D01*
X157299Y187992D01*
X157299Y187992D01*
X157299Y192913D01*
X157295Y192934D01*
X157298Y192956D01*
X157298Y192956D01*
X157291Y192980D01*
X157294Y193005D01*
X157241Y193464D01*
X157231Y193496D01*
Y193529D01*
X157227Y193549D01*
X157211Y193586D01*
X157208Y193625D01*
X157151Y193810D01*
X157133Y193845D01*
X157125Y193885D01*
X157051Y194063D01*
X157029Y194096D01*
X157017Y194134D01*
X156926Y194305D01*
X156901Y194336D01*
X156886Y194373D01*
X156778Y194534D01*
X156750Y194562D01*
X156731Y194597D01*
X156608Y194746D01*
X156578Y194772D01*
X156555Y194805D01*
X156419Y194941D01*
X156386Y194964D01*
X156360Y194994D01*
X156211Y195117D01*
X156176Y195136D01*
X156148Y195164D01*
X155987Y195271D01*
X155950Y195287D01*
X155919Y195312D01*
X155749Y195403D01*
X155710Y195415D01*
X155677Y195437D01*
X155499Y195511D01*
X155460Y195519D01*
X155425Y195537D01*
X155239Y195594D01*
X155200Y195597D01*
X155163Y195613D01*
X154973Y195650D01*
X154934D01*
X154895Y195662D01*
X154703Y195681D01*
X154663Y195677D01*
X154624Y195685D01*
X154527Y195685D01*
X151402Y195685D01*
X151298Y196207D01*
X150994Y196663D01*
X144712Y202944D01*
Y206429D01*
X145303Y206608D01*
X145573Y206203D01*
X146159Y205812D01*
X146850Y205674D01*
X147542Y205812D01*
X148128Y206203D01*
X148519Y206789D01*
X148657Y207480D01*
X148519Y208172D01*
X148128Y208758D01*
X147542Y209149D01*
X146850Y209287D01*
X146159Y209149D01*
X145573Y208758D01*
X145303Y208353D01*
X144712Y208532D01*
Y221859D01*
X146682Y223829D01*
X147148Y223922D01*
X147734Y224313D01*
X148126Y224899D01*
X148263Y225590D01*
X148126Y226282D01*
X147734Y226868D01*
X147148Y227259D01*
X146457Y227397D01*
X145765Y227259D01*
X145179Y226868D01*
X144788Y226282D01*
X144695Y225816D01*
X142314Y223434D01*
X142009Y222979D01*
X141902Y222441D01*
Y209419D01*
X141312Y209103D01*
X141242Y209149D01*
X140551Y209287D01*
X139860Y209149D01*
X139274Y208758D01*
X139003Y208353D01*
X138413Y208532D01*
Y222441D01*
X138306Y222979D01*
X138001Y223434D01*
X119122Y242314D01*
Y270472D01*
X119015Y271010D01*
X118710Y271466D01*
X115560Y274616D01*
X115105Y274920D01*
X114567Y275027D01*
X105700D01*
X103214Y277514D01*
X103145Y277857D01*
X102754Y278443D01*
X102380Y278692D01*
X102231Y279378D01*
X108697Y285844D01*
X109241Y285553D01*
X109217Y285433D01*
X109355Y284742D01*
X109746Y284156D01*
Y283730D01*
X109355Y283144D01*
X109217Y282453D01*
X109355Y281762D01*
X109746Y281175D01*
X110332Y280784D01*
X111024Y280646D01*
X111715Y280784D01*
X112301Y281175D01*
X112692Y281762D01*
X112830Y282453D01*
X112692Y283144D01*
X112301Y283730D01*
Y284156D01*
X112692Y284742D01*
X112830Y285433D01*
X112692Y286124D01*
X112301Y286710D01*
X111715Y287102D01*
X111024Y287239D01*
X110904Y287216D01*
X110613Y287760D01*
X111212Y288359D01*
X138976D01*
X139514Y288466D01*
X139970Y288770D01*
X145088Y293888D01*
X145393Y294344D01*
X145499Y294882D01*
Y296158D01*
X145763Y296553D01*
X145901Y297244D01*
X145763Y297935D01*
X145372Y298521D01*
X144786Y298913D01*
X144095Y299050D01*
X143403Y298913D01*
X142817Y298521D01*
X142815Y298518D01*
X142224D01*
X142222Y298521D01*
X141636Y298913D01*
X140945Y299050D01*
X140254Y298913D01*
X139668Y298521D01*
X139276Y297935D01*
X139138Y297244D01*
X139276Y296553D01*
X139668Y295967D01*
X140254Y295575D01*
X140945Y295438D01*
X141636Y295575D01*
X141682Y295606D01*
X142362Y295350D01*
X142393Y295234D01*
X142366Y295141D01*
X138394Y291169D01*
X125321D01*
X121964Y294526D01*
Y295174D01*
X123125Y296334D01*
X123765Y296140D01*
X123831Y295809D01*
X124223Y295223D01*
X124809Y294831D01*
X125500Y294694D01*
X126191Y294831D01*
X126777Y295223D01*
X127169Y295809D01*
X127306Y296500D01*
X127169Y297191D01*
X126777Y297777D01*
X126191Y298169D01*
X125860Y298235D01*
X125666Y298876D01*
X126584Y299794D01*
X126889Y300250D01*
X126996Y300787D01*
Y314772D01*
X127391Y315168D01*
X127857Y315260D01*
X128443Y315652D01*
X128834Y316238D01*
X128972Y316929D01*
X128834Y317620D01*
X128443Y318206D01*
X127857Y318598D01*
X127165Y318736D01*
D02*
G37*
G36*
X185039Y281722D02*
X184166Y281607D01*
X183352Y281270D01*
X182653Y280733D01*
X182116Y280034D01*
X181779Y279220D01*
X181664Y278346D01*
X181779Y277473D01*
X182116Y276659D01*
X182653Y275960D01*
X183352Y275423D01*
X184166Y275086D01*
X185039Y274971D01*
X185913Y275086D01*
X186727Y275423D01*
X187426Y275960D01*
X187962Y276659D01*
X188300Y277473D01*
X188415Y278346D01*
X188300Y279220D01*
X187962Y280034D01*
X187426Y280733D01*
X186727Y281270D01*
X185913Y281607D01*
X185039Y281722D01*
D02*
G37*
G36*
X127953D02*
X127079Y281607D01*
X126265Y281270D01*
X125566Y280733D01*
X125030Y280034D01*
X124692Y279220D01*
X124577Y278346D01*
X124692Y277473D01*
X125030Y276659D01*
X125566Y275960D01*
X126265Y275423D01*
X127079Y275086D01*
X127953Y274971D01*
X128826Y275086D01*
X129640Y275423D01*
X130340Y275960D01*
X130876Y276659D01*
X131213Y277473D01*
X131328Y278346D01*
X131213Y279220D01*
X130876Y280034D01*
X130340Y280733D01*
X129640Y281270D01*
X128826Y281607D01*
X127953Y281722D01*
D02*
G37*
G36*
X79134Y278184D02*
X78443Y278047D01*
X77857Y277655D01*
X77465Y277069D01*
X77328Y276378D01*
X77465Y275687D01*
X77857Y275101D01*
X78443Y274709D01*
X79134Y274572D01*
X79825Y274709D01*
X80411Y275101D01*
X80803Y275687D01*
X80940Y276378D01*
X80803Y277069D01*
X80411Y277655D01*
X79825Y278047D01*
X79134Y278184D01*
D02*
G37*
G36*
X127953Y272078D02*
X127028Y271956D01*
X126166Y271599D01*
X125741Y271273D01*
X128231Y268782D01*
X130722Y266292D01*
X131048Y266717D01*
X131405Y267579D01*
X131527Y268504D01*
X131405Y269429D01*
X131048Y270291D01*
X130480Y271031D01*
X129740Y271599D01*
X128878Y271956D01*
X127953Y272078D01*
D02*
G37*
G36*
X125184Y270716D02*
X124858Y270291D01*
X124501Y269429D01*
X124379Y268504D01*
X124501Y267579D01*
X124858Y266717D01*
X125426Y265977D01*
X126166Y265409D01*
X127028Y265052D01*
X127953Y264930D01*
X128878Y265052D01*
X129740Y265409D01*
X130165Y265735D01*
X127674Y268226D01*
X125184Y270716D01*
D02*
G37*
G36*
X185039Y262235D02*
X184114Y262113D01*
X183252Y261756D01*
X182827Y261430D01*
X185318Y258940D01*
X187808Y256449D01*
X188134Y256874D01*
X188491Y257736D01*
X188613Y258661D01*
X188491Y259586D01*
X188134Y260448D01*
X187566Y261189D01*
X186826Y261756D01*
X185964Y262113D01*
X185039Y262235D01*
D02*
G37*
G36*
X127953Y262037D02*
X127079Y261922D01*
X126265Y261584D01*
X125566Y261048D01*
X125030Y260349D01*
X124692Y259535D01*
X124577Y258661D01*
X124692Y257788D01*
X125030Y256974D01*
X125566Y256275D01*
X126265Y255738D01*
X127079Y255401D01*
X127953Y255286D01*
X128826Y255401D01*
X129640Y255738D01*
X130340Y256275D01*
X130876Y256974D01*
X131213Y257788D01*
X131328Y258661D01*
X131213Y259535D01*
X130876Y260349D01*
X130340Y261048D01*
X129640Y261584D01*
X128826Y261922D01*
X127953Y262037D01*
D02*
G37*
G36*
X182271Y260874D02*
X181944Y260448D01*
X181587Y259586D01*
X181465Y258661D01*
X181587Y257736D01*
X181944Y256874D01*
X182512Y256134D01*
X183252Y255566D01*
X184114Y255209D01*
X185039Y255088D01*
X185964Y255209D01*
X186826Y255566D01*
X187251Y255893D01*
X184761Y258383D01*
X182271Y260874D01*
D02*
G37*
G36*
X163189Y248622D02*
X151772D01*
Y237598D01*
X163189D01*
Y248622D01*
D02*
G37*
G36*
X89370Y240783D02*
X88679Y240645D01*
X88093Y240254D01*
X87701Y239668D01*
X87564Y238976D01*
X87701Y238285D01*
X88093Y237699D01*
X88679Y237308D01*
X89370Y237170D01*
X90061Y237308D01*
X90647Y237699D01*
X91039Y238285D01*
X91176Y238976D01*
X91039Y239668D01*
X90647Y240254D01*
X90061Y240645D01*
X89370Y240783D01*
D02*
G37*
G36*
X185039Y235270D02*
X183689Y235137D01*
X182390Y234743D01*
X181193Y234103D01*
X180144Y233242D01*
X179283Y232193D01*
X178643Y230996D01*
X178249Y229697D01*
X178116Y228346D01*
X178249Y226996D01*
X178643Y225697D01*
X179283Y224500D01*
X180144Y223451D01*
X181193Y222590D01*
X182390Y221950D01*
X183689Y221556D01*
X185039Y221423D01*
X186390Y221556D01*
X187689Y221950D01*
X188886Y222590D01*
X189935Y223451D01*
X190796Y224500D01*
X191436Y225697D01*
X191829Y226996D01*
X191963Y228346D01*
X191829Y229697D01*
X191436Y230996D01*
X190796Y232193D01*
X189935Y233242D01*
X188886Y234103D01*
X187689Y234743D01*
X186390Y235137D01*
X185039Y235270D01*
D02*
G37*
G36*
X29921Y226934D02*
X27559D01*
X26223Y226758D01*
X24978Y226242D01*
X23909Y225422D01*
X23088Y224353D01*
X22573Y223108D01*
X22397Y221772D01*
X22573Y220436D01*
X23088Y219191D01*
X23909Y218121D01*
X24978Y217301D01*
X26223Y216785D01*
X27559Y216609D01*
X29921D01*
X31257Y216785D01*
X32502Y217301D01*
X33235Y217863D01*
X33661Y217778D01*
X34391Y217923D01*
X35010Y218337D01*
X35423Y218955D01*
X35568Y219685D01*
X35423Y220415D01*
X35010Y221033D01*
X34988Y221048D01*
X35083Y221772D01*
X34908Y223108D01*
X34392Y224353D01*
X33571Y225422D01*
X32502Y226242D01*
X31257Y226758D01*
X29921Y226934D01*
D02*
G37*
G36*
X39500Y214806D02*
X38809Y214669D01*
X38223Y214277D01*
X37831Y213691D01*
X37694Y213000D01*
X37831Y212309D01*
X38223Y211723D01*
X38809Y211331D01*
X39500Y211194D01*
X40191Y211331D01*
X40777Y211723D01*
X41169Y212309D01*
X41306Y213000D01*
X41169Y213691D01*
X40777Y214277D01*
X40191Y214669D01*
X39500Y214806D01*
D02*
G37*
G36*
X26378Y210467D02*
X25687Y210330D01*
X25101Y209938D01*
X24709Y209352D01*
X24572Y208661D01*
X24709Y207970D01*
X25101Y207384D01*
X25687Y206992D01*
X26378Y206855D01*
X27069Y206992D01*
X27655Y207384D01*
X28047Y207970D01*
X28184Y208661D01*
X28047Y209352D01*
X27655Y209938D01*
X27069Y210330D01*
X26378Y210467D01*
D02*
G37*
G36*
X44587Y209493D02*
X39469D01*
X38585Y209317D01*
X37836Y208817D01*
X37510Y208490D01*
X37009Y207742D01*
X36834Y206858D01*
X37009Y205975D01*
X37510Y205226D01*
X38258Y204726D01*
X39142Y204550D01*
X40025Y204726D01*
X40251Y204877D01*
X44587D01*
X45470Y205053D01*
X46219Y205553D01*
X46719Y206302D01*
X46895Y207185D01*
X46719Y208068D01*
X46219Y208817D01*
X45470Y209317D01*
X44587Y209493D01*
D02*
G37*
G36*
X63779Y216767D02*
X63088Y216630D01*
X62502Y216238D01*
X62111Y215652D01*
X61973Y214961D01*
X62111Y214269D01*
X62502Y213683D01*
X62575Y213634D01*
Y206050D01*
X62502Y206002D01*
X62111Y205416D01*
X61973Y204724D01*
X62111Y204033D01*
X62502Y203447D01*
X63088Y203056D01*
X63779Y202918D01*
X64471Y203056D01*
X65057Y203447D01*
X65448Y204033D01*
X65586Y204724D01*
X65448Y205416D01*
X65057Y206002D01*
X64984Y206050D01*
Y213634D01*
X65057Y213683D01*
X65448Y214269D01*
X65586Y214961D01*
X65448Y215652D01*
X65057Y216238D01*
X64471Y216630D01*
X63779Y216767D01*
D02*
G37*
G36*
X33071Y211363D02*
X32188Y211188D01*
X31439Y210687D01*
X31368Y210616D01*
X30868Y209868D01*
X30692Y208984D01*
Y203500D01*
X30868Y202617D01*
X31368Y201868D01*
X32117Y201368D01*
X33000Y201192D01*
X33883Y201368D01*
X34632Y201868D01*
X35132Y202617D01*
X35308Y203500D01*
Y208699D01*
X35379Y209055D01*
X35203Y209938D01*
X34703Y210687D01*
X33954Y211188D01*
X33071Y211363D01*
D02*
G37*
G36*
X29921Y194414D02*
X27559D01*
X26223Y194238D01*
X24978Y193723D01*
X23909Y192902D01*
X23088Y191833D01*
X22573Y190588D01*
X22397Y189252D01*
X22573Y187916D01*
X23088Y186671D01*
X23909Y185602D01*
X24978Y184781D01*
X26223Y184266D01*
X27559Y184090D01*
X29921D01*
X31257Y184266D01*
X32502Y184781D01*
X33571Y185602D01*
X34392Y186671D01*
X34908Y187916D01*
X35083Y189252D01*
X35055Y189468D01*
X35423Y190018D01*
X35568Y190748D01*
Y191929D01*
X35423Y192659D01*
X35010Y193277D01*
X34391Y193691D01*
X33661Y193836D01*
X32932Y193691D01*
X32724Y193552D01*
X32502Y193723D01*
X31257Y194238D01*
X29921Y194414D01*
D02*
G37*
G36*
X259842Y175015D02*
X259842Y175015D01*
X259746D01*
X259707Y175008D01*
X259667Y175012D01*
X259475Y174993D01*
X259436Y174981D01*
X259397D01*
X259207Y174943D01*
X259170Y174928D01*
X259131Y174924D01*
X258945Y174868D01*
X258910Y174849D01*
X258871Y174841D01*
X258693Y174767D01*
X258660Y174745D01*
X258621Y174734D01*
X258451Y174643D01*
X258420Y174617D01*
X258383Y174602D01*
X258222Y174495D01*
X258194Y174466D01*
X258159Y174448D01*
X258010Y174325D01*
X257984Y174294D01*
X257951Y174272D01*
X257815Y174135D01*
X257792Y174102D01*
X257762Y174077D01*
X257639Y173927D01*
X257620Y173892D01*
X257592Y173864D01*
X257485Y173703D01*
X257469Y173667D01*
X257444Y173636D01*
X257353Y173465D01*
X257341Y173427D01*
X257319Y173394D01*
X257245Y173215D01*
X257237Y173176D01*
X257219Y173141D01*
X257162Y172956D01*
X257158Y172916D01*
X257143Y172880D01*
X257106Y172690D01*
Y172650D01*
X257094Y172612D01*
X257075Y172420D01*
X257079Y172380D01*
X257071Y172341D01*
Y171266D01*
X257068Y171051D01*
X257047Y170620D01*
X257006Y170195D01*
X256943Y169772D01*
X256859Y169353D01*
X256756Y168939D01*
X256632Y168530D01*
X256488Y168128D01*
X256324Y167734D01*
X256142Y167347D01*
X255941Y166971D01*
X255721Y166604D01*
X255484Y166249D01*
X255229Y165906D01*
X254958Y165576D01*
X254668Y165256D01*
X254519Y165103D01*
X229581Y140165D01*
X229428Y140016D01*
X229108Y139726D01*
X228778Y139455D01*
X228435Y139201D01*
X228080Y138963D01*
X227714Y138744D01*
X227337Y138542D01*
X226951Y138360D01*
X226556Y138197D01*
X226154Y138053D01*
X225746Y137929D01*
X225331Y137825D01*
X224913Y137742D01*
X224490Y137679D01*
X224065Y137637D01*
X223634Y137616D01*
X223420Y137613D01*
X186078Y137604D01*
X185661Y138021D01*
Y154180D01*
X186175Y154694D01*
X186523Y155215D01*
X186645Y155830D01*
X186645Y155830D01*
Y157482D01*
X186708Y157577D01*
X186846Y158268D01*
X186708Y158959D01*
X186317Y159545D01*
X185731Y159937D01*
X185039Y160074D01*
X184348Y159937D01*
X183762Y159545D01*
X183370Y158959D01*
X183344Y158825D01*
X182975Y158362D01*
X182283Y158499D01*
X181592Y158362D01*
X181006Y157970D01*
X180615Y157384D01*
X180592Y157273D01*
X179967Y156647D01*
X179619Y156126D01*
X179497Y155512D01*
X179497Y155512D01*
Y139641D01*
X177998Y138143D01*
X177650Y137622D01*
X177528Y137008D01*
X177528Y137008D01*
Y127953D01*
X177528Y127953D01*
X177650Y127338D01*
X177998Y126817D01*
X180337Y124479D01*
X180334Y124461D01*
Y124422D01*
X180322Y124384D01*
X180303Y124191D01*
X180307Y124151D01*
X180299Y124112D01*
X180299Y124016D01*
Y120079D01*
X180299Y119982D01*
X180307Y119943D01*
X180303Y119903D01*
X180322Y119711D01*
X180334Y119673D01*
Y119633D01*
X180372Y119443D01*
X180387Y119406D01*
X180391Y119367D01*
X180447Y119182D01*
X180466Y119147D01*
X180473Y119107D01*
X180547Y118929D01*
X180570Y118896D01*
X180581Y118858D01*
X180672Y118687D01*
X180698Y118656D01*
X180713Y118619D01*
X180820Y118459D01*
X180849Y118430D01*
X180867Y118395D01*
X180990Y118246D01*
X181021Y118221D01*
X181043Y118187D01*
X181180Y118051D01*
X181213Y118028D01*
X181238Y117998D01*
X181387Y117875D01*
X181423Y117856D01*
X181451Y117828D01*
X181612Y117721D01*
X181648Y117705D01*
X181679Y117680D01*
X181850Y117589D01*
X181888Y117578D01*
X181921Y117555D01*
X182100Y117481D01*
X182139Y117473D01*
X182174Y117455D01*
X182359Y117399D01*
X182399Y117395D01*
X182435Y117379D01*
X182625Y117342D01*
X182665D01*
X182703Y117330D01*
X182896Y117311D01*
X182935Y117315D01*
X182974Y117307D01*
X183071Y117307D01*
X183071Y117307D01*
X185034Y117307D01*
X185136Y117306D01*
X185338Y117289D01*
X185528Y117253D01*
X185713Y117200D01*
X185880Y117133D01*
X185953Y117119D01*
X186022Y117091D01*
X186078Y117080D01*
X186198Y117039D01*
X186312Y116983D01*
X186418Y116912D01*
X186513Y116828D01*
X186597Y116733D01*
X186697Y116583D01*
X186701Y116579D01*
X186704Y116572D01*
X186768Y116509D01*
X186776Y116501D01*
X186831Y116294D01*
X186833Y116133D01*
X186831Y115990D01*
X186776Y115782D01*
X186768Y115774D01*
X186704Y115711D01*
X186701Y115704D01*
X186697Y115700D01*
X186597Y115551D01*
X186513Y115455D01*
X186418Y115372D01*
X186312Y115301D01*
X186198Y115245D01*
X186078Y115204D01*
X186022Y115193D01*
X185953Y115164D01*
X185880Y115151D01*
X185713Y115084D01*
X185528Y115030D01*
X185338Y114995D01*
X185136Y114977D01*
X185034Y114976D01*
X183071D01*
X183071Y114976D01*
X182974Y114976D01*
X182935Y114968D01*
X182896Y114972D01*
X182703Y114953D01*
X182665Y114942D01*
X182625D01*
X182435Y114904D01*
X182399Y114889D01*
X182359Y114885D01*
X182174Y114829D01*
X182139Y114810D01*
X182100Y114802D01*
X181921Y114728D01*
X181888Y114706D01*
X181850Y114694D01*
X181679Y114603D01*
X181648Y114578D01*
X181612Y114563D01*
X181451Y114455D01*
X181423Y114427D01*
X181387Y114408D01*
X181238Y114286D01*
X181213Y114255D01*
X181180Y114233D01*
X181043Y114096D01*
X181021Y114063D01*
X180990Y114038D01*
X180867Y113888D01*
X180848Y113853D01*
X180820Y113825D01*
X180713Y113664D01*
X180698Y113627D01*
X180672Y113596D01*
X180581Y113426D01*
X180570Y113388D01*
X180547Y113355D01*
X180473Y113176D01*
X180466Y113137D01*
X180447Y113102D01*
X180391Y112917D01*
X180387Y112877D01*
X180372Y112840D01*
X180334Y112651D01*
Y112611D01*
X180322Y112573D01*
X180303Y112380D01*
X180307Y112340D01*
X180299Y112301D01*
X180299Y112205D01*
Y108268D01*
X180299Y108171D01*
X180301Y108162D01*
X177998Y105860D01*
X177650Y105339D01*
X177528Y104724D01*
X177528Y104724D01*
Y94488D01*
X177528Y94488D01*
X177650Y93874D01*
X177998Y93353D01*
X179497Y91855D01*
Y77165D01*
X179497Y77165D01*
X179619Y76550D01*
X179967Y76029D01*
X180592Y75404D01*
X180614Y75293D01*
X181006Y74707D01*
X181592Y74315D01*
X182283Y74178D01*
X182974Y74315D01*
X183344Y73852D01*
X183370Y73718D01*
X183762Y73132D01*
X184348Y72741D01*
X185039Y72603D01*
X185731Y72741D01*
X186317Y73132D01*
X186708Y73718D01*
X186846Y74410D01*
X186708Y75101D01*
X186494Y75421D01*
Y76998D01*
X186372Y77612D01*
X186024Y78133D01*
X186024Y78133D01*
X185661Y78496D01*
Y94262D01*
X186078Y94680D01*
X223420Y94670D01*
X223634Y94668D01*
X224065Y94646D01*
X224490Y94604D01*
X224913Y94542D01*
X225331Y94459D01*
X225746Y94355D01*
X226154Y94231D01*
X226556Y94087D01*
X226951Y93923D01*
X227337Y93741D01*
X227714Y93540D01*
X228080Y93320D01*
X228435Y93083D01*
X228778Y92828D01*
X229108Y92558D01*
X229428Y92267D01*
X229581Y92118D01*
X254519Y67180D01*
X254668Y67028D01*
X254958Y66707D01*
X255229Y66377D01*
X255484Y66034D01*
X255721Y65679D01*
X255941Y65313D01*
X256142Y64936D01*
X256324Y64550D01*
X256488Y64155D01*
X256632Y63753D01*
X256756Y63345D01*
X256859Y62930D01*
X256943Y62511D01*
X257006Y62089D01*
X257047Y61664D01*
X257068Y61232D01*
X257071Y61017D01*
Y59943D01*
X257079Y59904D01*
X257075Y59864D01*
X257094Y59671D01*
X257106Y59633D01*
Y59594D01*
X257143Y59404D01*
X257158Y59367D01*
X257162Y59327D01*
X257219Y59142D01*
X257237Y59107D01*
X257245Y59068D01*
X257319Y58890D01*
X257341Y58856D01*
X257353Y58818D01*
X257444Y58648D01*
X257469Y58617D01*
X257485Y58580D01*
X257592Y58419D01*
X257620Y58391D01*
X257639Y58356D01*
X257762Y58206D01*
X257792Y58181D01*
X257815Y58148D01*
X257951Y58011D01*
X257984Y57989D01*
X258010Y57959D01*
X258159Y57836D01*
X258194Y57817D01*
X258222Y57789D01*
X258383Y57681D01*
X258420Y57666D01*
X258451Y57641D01*
X258621Y57550D01*
X258660Y57538D01*
X258693Y57516D01*
X258871Y57442D01*
X258910Y57434D01*
X258945Y57415D01*
X259131Y57359D01*
X259170Y57355D01*
X259207Y57340D01*
X259397Y57302D01*
X259436D01*
X259475Y57291D01*
X259667Y57272D01*
X259707Y57276D01*
X259746Y57268D01*
X259842D01*
X259842Y57268D01*
X271653Y57268D01*
X271750Y57268D01*
X271789Y57276D01*
X271829Y57272D01*
X272021Y57291D01*
X272059Y57302D01*
X272099D01*
X272289Y57340D01*
X272326Y57355D01*
X272365Y57359D01*
X272551Y57415D01*
X272586Y57434D01*
X272625Y57442D01*
X272803Y57516D01*
X272836Y57538D01*
X272875Y57550D01*
X273045Y57641D01*
X273076Y57666D01*
X273113Y57681D01*
X273274Y57789D01*
X273302Y57817D01*
X273337Y57836D01*
X273486Y57959D01*
X273512Y57989D01*
X273545Y58011D01*
X273681Y58148D01*
X273704Y58181D01*
X273734Y58206D01*
X273857Y58356D01*
X273876Y58391D01*
X273904Y58419D01*
X274011Y58580D01*
X274027Y58617D01*
X274052Y58648D01*
X274143Y58818D01*
X274155Y58856D01*
X274177Y58890D01*
X274251Y59068D01*
X274259Y59107D01*
X274277Y59142D01*
X274334Y59328D01*
X274338Y59367D01*
X274353Y59404D01*
X274391Y59594D01*
Y59633D01*
X274402Y59671D01*
X274421Y59864D01*
X274417Y59904D01*
X274425Y59943D01*
X274425Y60039D01*
X274425Y60039D01*
X274425Y67913D01*
X274425Y68147D01*
X274421Y68166D01*
X274424Y68186D01*
X274401Y68652D01*
X274396Y68672D01*
X274398Y68691D01*
X274352Y69156D01*
X274346Y69175D01*
X274347Y69195D01*
X274279Y69657D01*
X274272Y69675D01*
Y69696D01*
X274181Y70153D01*
X274174Y70172D01*
X274173Y70192D01*
X274059Y70644D01*
X274051Y70662D01*
X274049Y70682D01*
X273913Y71129D01*
X273904Y71147D01*
X273901Y71166D01*
X273744Y71606D01*
X273733Y71623D01*
X273729Y71642D01*
X273551Y72074D01*
X273540Y72090D01*
X273535Y72110D01*
X273335Y72531D01*
X273323Y72548D01*
X273318Y72567D01*
X273098Y72978D01*
X273085Y72994D01*
X273078Y73013D01*
X272838Y73413D01*
X272825Y73427D01*
X272817Y73446D01*
X272558Y73834D01*
X272544Y73848D01*
X272535Y73866D01*
X272257Y74241D01*
X272243Y74255D01*
X272233Y74272D01*
X271937Y74633D01*
X271922Y74646D01*
X271911Y74663D01*
X271598Y75008D01*
X271582Y75020D01*
X271571Y75037D01*
X271406Y75202D01*
X271406Y75202D01*
X271406Y75202D01*
X270253Y76355D01*
X270253Y76355D01*
X246404Y100204D01*
X246710Y100733D01*
X246744Y100724D01*
X246771Y100722D01*
X246795Y100712D01*
X247100Y100652D01*
X247127D01*
X247152Y100643D01*
X247461Y100602D01*
X247487Y100604D01*
X247513Y100597D01*
X247823Y100577D01*
X247850Y100580D01*
X247876Y100575D01*
X248032Y100575D01*
X271653Y100575D01*
X271750Y100575D01*
X271789Y100583D01*
X271829Y100579D01*
X272021Y100598D01*
X272059Y100609D01*
X272099Y100609D01*
X272289Y100647D01*
X272326Y100662D01*
X272365Y100666D01*
X272551Y100722D01*
X272586Y100741D01*
X272625Y100749D01*
X272803Y100823D01*
X272836Y100845D01*
X272875Y100857D01*
X273045Y100948D01*
X273076Y100973D01*
X273113Y100988D01*
X273274Y101096D01*
X273302Y101124D01*
X273337Y101143D01*
X273486Y101265D01*
X273512Y101296D01*
X273545Y101318D01*
X273682Y101455D01*
X273704Y101488D01*
X273735Y101514D01*
X273857Y101663D01*
X273876Y101698D01*
X273904Y101726D01*
X274012Y101887D01*
X274027Y101924D01*
X274052Y101955D01*
X274143Y102125D01*
X274155Y102164D01*
X274177Y102197D01*
X274251Y102375D01*
X274259Y102414D01*
X274278Y102450D01*
X274334Y102635D01*
X274338Y102674D01*
X274353Y102711D01*
X274391Y102901D01*
X274391Y102941D01*
X274402Y102979D01*
X274421Y103171D01*
X274417Y103211D01*
X274425Y103250D01*
X274425Y103347D01*
X274425Y105118D01*
X274425Y105551D01*
X274425Y105551D01*
X274425Y105782D01*
X274421Y105802D01*
X274424Y105822D01*
X274401Y106283D01*
X274396Y106302D01*
X274398Y106322D01*
X274353Y106782D01*
X274347Y106801D01*
X274348Y106821D01*
X274280Y107278D01*
X274274Y107297D01*
Y107317D01*
X274184Y107770D01*
X274176Y107789D01*
X274175Y107809D01*
X274063Y108257D01*
X274054Y108275D01*
X274052Y108295D01*
X273918Y108737D01*
X273909Y108754D01*
X273906Y108774D01*
X273750Y109209D01*
X273740Y109226D01*
X273736Y109246D01*
X273559Y109673D01*
X273548Y109689D01*
X273543Y109709D01*
X273346Y110126D01*
X273334Y110143D01*
X273328Y110162D01*
X273110Y110569D01*
X273097Y110584D01*
X273091Y110603D01*
X272853Y111000D01*
X272840Y111014D01*
X272832Y111033D01*
X272575Y111417D01*
X272561Y111431D01*
X272553Y111449D01*
X272278Y111820D01*
X272263Y111834D01*
X272253Y111851D01*
X271960Y112208D01*
X271945Y112221D01*
X271935Y112238D01*
X271624Y112581D01*
X271608Y112592D01*
X271597Y112609D01*
X271434Y112772D01*
X271434Y112772D01*
X270819Y113387D01*
X270819Y113387D01*
X270646Y113560D01*
X270629Y113571D01*
X270617Y113587D01*
X270254Y113917D01*
X270236Y113927D01*
X270224Y113943D01*
X269844Y114254D01*
X269827Y114264D01*
X269813Y114279D01*
X269419Y114571D01*
X269401Y114580D01*
X269387Y114594D01*
X268978Y114867D01*
X268960Y114874D01*
X268945Y114888D01*
X268524Y115140D01*
X268505Y115147D01*
X268490Y115159D01*
X268057Y115391D01*
X268038Y115397D01*
X268021Y115409D01*
X267578Y115619D01*
X267558Y115623D01*
X267542Y115635D01*
X267088Y115822D01*
X267068Y115826D01*
X267051Y115901D01*
Y116383D01*
X267068Y116457D01*
X267088Y116461D01*
X267542Y116649D01*
X267558Y116660D01*
X267578Y116665D01*
X268021Y116875D01*
X268038Y116887D01*
X268057Y116893D01*
X268490Y117124D01*
X268505Y117137D01*
X268524Y117143D01*
X268945Y117396D01*
X268960Y117409D01*
X268978Y117417D01*
X269387Y117690D01*
X269401Y117704D01*
X269419Y117712D01*
X269813Y118005D01*
X269827Y118020D01*
X269844Y118029D01*
X270224Y118341D01*
X270236Y118356D01*
X270254Y118366D01*
X270617Y118696D01*
X270629Y118712D01*
X270646Y118723D01*
X270819Y118897D01*
X270819Y118897D01*
X270819Y118897D01*
X271434Y119511D01*
X271434Y119511D01*
X271597Y119674D01*
X271608Y119691D01*
X271624Y119703D01*
X271935Y120045D01*
X271945Y120062D01*
X271960Y120075D01*
X272253Y120432D01*
X272263Y120450D01*
X272278Y120463D01*
X272553Y120834D01*
X272561Y120852D01*
X272575Y120867D01*
X272832Y121251D01*
X272840Y121269D01*
X272853Y121284D01*
X273091Y121680D01*
X273097Y121699D01*
X273110Y121714D01*
X273328Y122122D01*
X273334Y122141D01*
X273346Y122157D01*
X273543Y122575D01*
X273548Y122594D01*
X273559Y122611D01*
X273736Y123038D01*
X273740Y123057D01*
X273750Y123074D01*
X273906Y123509D01*
X273909Y123529D01*
X273918Y123547D01*
X274052Y123989D01*
X274054Y124009D01*
X274063Y124027D01*
X274175Y124475D01*
X274176Y124495D01*
X274184Y124513D01*
X274274Y124966D01*
Y124986D01*
X274280Y125005D01*
X274348Y125462D01*
X274347Y125482D01*
X274353Y125501D01*
X274398Y125961D01*
X274396Y125981D01*
X274401Y126000D01*
X274424Y126462D01*
X274421Y126481D01*
X274425Y126501D01*
X274425Y126732D01*
X274425Y126732D01*
X274425Y127165D01*
X274425Y128937D01*
X274425Y129033D01*
X274417Y129072D01*
X274421Y129112D01*
X274402Y129305D01*
X274391Y129343D01*
X274391Y129383D01*
X274353Y129572D01*
X274338Y129609D01*
X274334Y129649D01*
X274278Y129834D01*
X274259Y129869D01*
X274251Y129908D01*
X274177Y130087D01*
X274155Y130120D01*
X274143Y130158D01*
X274052Y130329D01*
X274027Y130359D01*
X274012Y130396D01*
X273904Y130557D01*
X273876Y130585D01*
X273857Y130621D01*
X273735Y130770D01*
X273704Y130795D01*
X273682Y130828D01*
X273545Y130965D01*
X273512Y130987D01*
X273486Y131018D01*
X273337Y131141D01*
X273302Y131160D01*
X273274Y131188D01*
X273113Y131295D01*
X273076Y131310D01*
X273045Y131336D01*
X272875Y131427D01*
X272836Y131438D01*
X272803Y131460D01*
X272625Y131535D01*
X272586Y131542D01*
X272551Y131561D01*
X272365Y131617D01*
X272326Y131621D01*
X272289Y131636D01*
X272099Y131674D01*
X272059Y131674D01*
X272021Y131686D01*
X271829Y131704D01*
X271789Y131701D01*
X271750Y131708D01*
X271654Y131708D01*
X271654Y131708D01*
X248032Y131708D01*
X247876Y131708D01*
X247850Y131703D01*
X247823Y131707D01*
X247513Y131686D01*
X247487Y131679D01*
X247461Y131681D01*
X247152Y131641D01*
X247127Y131632D01*
X247100D01*
X246795Y131571D01*
X246771Y131561D01*
X246744Y131559D01*
X246710Y131550D01*
X246404Y132080D01*
X270253Y155928D01*
X270253Y155928D01*
X271406Y157081D01*
X271406Y157081D01*
X271571Y157246D01*
X271582Y157263D01*
X271598Y157275D01*
X271911Y157621D01*
X271922Y157638D01*
X271937Y157651D01*
X272233Y158011D01*
X272243Y158029D01*
X272257Y158042D01*
X272535Y158417D01*
X272544Y158435D01*
X272558Y158449D01*
X272817Y158837D01*
X272825Y158856D01*
X272838Y158871D01*
X273078Y159271D01*
X273085Y159290D01*
X273098Y159305D01*
X273318Y159717D01*
X273323Y159736D01*
X273335Y159752D01*
X273535Y160174D01*
X273540Y160193D01*
X273551Y160210D01*
X273729Y160641D01*
X273733Y160661D01*
X273744Y160678D01*
X273901Y161117D01*
X273904Y161137D01*
X273913Y161155D01*
X274049Y161601D01*
X274051Y161621D01*
X274059Y161639D01*
X274173Y162092D01*
X274174Y162112D01*
X274181Y162130D01*
X274272Y162588D01*
Y162608D01*
X274279Y162627D01*
X274347Y163088D01*
X274346Y163108D01*
X274352Y163128D01*
X274398Y163592D01*
X274396Y163612D01*
X274401Y163631D01*
X274424Y164097D01*
X274421Y164117D01*
X274425Y164137D01*
X274425Y164370D01*
X274425Y172244D01*
X274425Y172244D01*
X274425Y172341D01*
X274417Y172380D01*
X274421Y172419D01*
X274402Y172612D01*
X274391Y172650D01*
Y172690D01*
X274353Y172880D01*
X274338Y172916D01*
X274334Y172956D01*
X274277Y173141D01*
X274259Y173176D01*
X274251Y173215D01*
X274177Y173394D01*
X274155Y173427D01*
X274143Y173465D01*
X274052Y173636D01*
X274027Y173667D01*
X274011Y173703D01*
X273904Y173864D01*
X273876Y173892D01*
X273857Y173927D01*
X273734Y174077D01*
X273704Y174102D01*
X273681Y174135D01*
X273545Y174272D01*
X273512Y174294D01*
X273486Y174325D01*
X273337Y174448D01*
X273302Y174467D01*
X273274Y174495D01*
X273113Y174602D01*
X273076Y174617D01*
X273045Y174643D01*
X272875Y174734D01*
X272836Y174745D01*
X272803Y174767D01*
X272625Y174841D01*
X272586Y174849D01*
X272551Y174868D01*
X272365Y174924D01*
X272326Y174928D01*
X272289Y174943D01*
X272099Y174981D01*
X272059D01*
X272021Y174993D01*
X271829Y175012D01*
X271789Y175008D01*
X271750Y175015D01*
X271653Y175015D01*
X259842Y175015D01*
D02*
G37*
G36*
X101968Y136452D02*
X101277Y136314D01*
X100691Y135923D01*
X100299Y135337D01*
X100162Y134645D01*
X100299Y133954D01*
X100691Y133368D01*
X101277Y132976D01*
X101968Y132839D01*
X102660Y132976D01*
X103246Y133368D01*
X103637Y133954D01*
X103775Y134645D01*
X103637Y135337D01*
X103246Y135923D01*
X102660Y136314D01*
X101968Y136452D01*
D02*
G37*
G36*
X95669D02*
X94978Y136314D01*
X94392Y135923D01*
X94000Y135337D01*
X93863Y134645D01*
X94000Y133954D01*
X94392Y133368D01*
X94978Y132976D01*
X95669Y132839D01*
X96360Y132976D01*
X96946Y133368D01*
X97338Y133954D01*
X97475Y134645D01*
X97338Y135337D01*
X96946Y135923D01*
X96360Y136314D01*
X95669Y136452D01*
D02*
G37*
G36*
X98854Y124444D02*
X98163Y124307D01*
X97577Y123915D01*
X97185Y123329D01*
X97048Y122638D01*
X97185Y121947D01*
X97577Y121361D01*
X98163Y120969D01*
X98854Y120831D01*
X99546Y120969D01*
X99936Y121230D01*
X100674Y121189D01*
X100691Y121163D01*
X101277Y120772D01*
X101968Y120634D01*
X102660Y120772D01*
X103246Y121163D01*
X103637Y121749D01*
X103775Y122441D01*
X103637Y123132D01*
X103246Y123718D01*
X102660Y124110D01*
X101968Y124247D01*
X101277Y124110D01*
X100886Y123848D01*
X100149Y123889D01*
X100132Y123915D01*
X99546Y124307D01*
X98854Y124444D01*
D02*
G37*
G36*
X14980Y134743D02*
X13437Y134591D01*
X11953Y134141D01*
X10585Y133409D01*
X9386Y132425D01*
X8402Y131226D01*
X7671Y129859D01*
X7220Y128374D01*
X7068Y126831D01*
X7220Y125287D01*
X7671Y123803D01*
X8402Y122435D01*
X9386Y121236D01*
X10585Y120252D01*
X11953Y119521D01*
X13437Y119071D01*
X14980Y118919D01*
X16524Y119071D01*
X18008Y119521D01*
X19376Y120252D01*
X20575Y121236D01*
X21559Y122435D01*
X22290Y123803D01*
X22740Y125287D01*
X22892Y126831D01*
X22740Y128374D01*
X22290Y129859D01*
X21559Y131226D01*
X20575Y132425D01*
X19376Y133409D01*
X18008Y134141D01*
X16524Y134591D01*
X14980Y134743D01*
D02*
G37*
G36*
Y44192D02*
X13437Y44040D01*
X11953Y43589D01*
X10585Y42858D01*
X9386Y41874D01*
X8402Y40675D01*
X7671Y39307D01*
X7220Y37823D01*
X7068Y36279D01*
X7220Y34736D01*
X7671Y33252D01*
X8402Y31884D01*
X9386Y30685D01*
X10585Y29701D01*
X11953Y28970D01*
X13437Y28519D01*
X14980Y28367D01*
X16524Y28519D01*
X18008Y28970D01*
X19376Y29701D01*
X20575Y30685D01*
X21559Y31884D01*
X22290Y33252D01*
X22740Y34736D01*
X22892Y36279D01*
X22740Y37823D01*
X22290Y39307D01*
X21559Y40675D01*
X20575Y41874D01*
X19376Y42858D01*
X18008Y43589D01*
X16524Y44040D01*
X14980Y44192D01*
D02*
G37*
G36*
X275590Y22671D02*
X274240Y22538D01*
X272941Y22144D01*
X271744Y21504D01*
X270695Y20643D01*
X269834Y19594D01*
X269194Y18397D01*
X268800Y17099D01*
X268668Y15748D01*
X268800Y14397D01*
X269194Y13099D01*
X269834Y11902D01*
X270695Y10853D01*
X271744Y9992D01*
X272941Y9352D01*
X274240Y8958D01*
X275590Y8825D01*
X276941Y8958D01*
X278240Y9352D01*
X279437Y9992D01*
X280486Y10853D01*
X281347Y11902D01*
X281987Y13099D01*
X282381Y14397D01*
X282514Y15748D01*
X282381Y17099D01*
X281987Y18397D01*
X281347Y19594D01*
X280486Y20643D01*
X279437Y21504D01*
X278240Y22144D01*
X276941Y22538D01*
X275590Y22671D01*
D02*
G37*
%LPD*%
G36*
X197835Y291338D02*
X200787Y291338D01*
X200787Y291338D01*
X201078Y291338D01*
X201649Y291225D01*
X202186Y291002D01*
X202670Y290679D01*
X203081Y290268D01*
X203404Y289785D01*
X203627Y289247D01*
X203706Y288846D01*
X203740Y288386D01*
Y288386D01*
X203740D01*
X203740Y288386D01*
X203740Y285433D01*
X203740Y285142D01*
X203627Y284572D01*
X203404Y284034D01*
X203081Y283551D01*
X202670Y283139D01*
X202186Y282816D01*
X201649Y282594D01*
X201272Y282519D01*
X200787Y282480D01*
X197544Y282480D01*
X196973Y282594D01*
X196436Y282816D01*
X195952Y283139D01*
X195541Y283551D01*
X195218Y284034D01*
X194995Y284572D01*
X194882Y285142D01*
Y285433D01*
X194882D01*
Y288677D01*
X194995Y289247D01*
X195218Y289785D01*
X195541Y290268D01*
X195952Y290679D01*
X196436Y291002D01*
X196973Y291225D01*
X197544Y291339D01*
X197835D01*
X197835Y291338D01*
D02*
G37*
G36*
X166339Y229331D02*
X166484Y229331D01*
X166772Y229302D01*
X167057Y229246D01*
X167334Y229162D01*
X167603Y229050D01*
X167858Y228914D01*
X168100Y228752D01*
X168324Y228568D01*
X168529Y228363D01*
X168713Y228139D01*
X168874Y227898D01*
X169011Y227642D01*
X169122Y227374D01*
X169206Y227096D01*
X169263Y226812D01*
X169291Y226523D01*
X169291Y226378D01*
X169291Y226378D01*
X169291Y223425D01*
X169291Y223280D01*
X169263Y222991D01*
X169206Y222707D01*
X169122Y222429D01*
X169011Y222161D01*
X168874Y221905D01*
X168713Y221664D01*
X168529Y221440D01*
X168324Y221235D01*
X168100Y221051D01*
X167858Y220889D01*
X167603Y220753D01*
X167334Y220642D01*
X167057Y220557D01*
X166772Y220501D01*
X166484Y220472D01*
X166339Y220472D01*
X163386D01*
X163241Y220472D01*
X162952Y220501D01*
X162668Y220557D01*
X162390Y220642D01*
X162122Y220753D01*
X161866Y220889D01*
X161625Y221051D01*
X161400Y221235D01*
X161195Y221440D01*
X161011Y221664D01*
X160850Y221905D01*
X160713Y222161D01*
X160602Y222429D01*
X160518Y222707D01*
X160461Y222991D01*
X160433Y223280D01*
X160433Y223425D01*
Y223425D01*
X160433Y226378D01*
Y226523D01*
X160461Y226812D01*
X160518Y227096D01*
X160602Y227374D01*
X160713Y227642D01*
X160850Y227898D01*
X161011Y228139D01*
X161195Y228363D01*
X161400Y228568D01*
X161625Y228752D01*
X161866Y228914D01*
X162122Y229050D01*
X162390Y229161D01*
X162668Y229246D01*
X162952Y229302D01*
X163241Y229331D01*
X163386D01*
Y229331D01*
X166339Y229331D01*
D02*
G37*
G36*
X121063Y295425D02*
Y294291D01*
X125439Y289916D01*
X125213Y289370D01*
X114945D01*
X114719Y289916D01*
X120472Y295669D01*
X121063Y295425D01*
D02*
G37*
G36*
X103937Y272047D02*
X94882D01*
X99410Y276575D01*
X103937Y272047D01*
D02*
G37*
G36*
X115354Y251575D02*
X112992Y253937D01*
X110236D01*
Y254331D01*
X115354Y259449D01*
Y251575D01*
D02*
G37*
G36*
X148622Y194882D02*
X154528Y194882D01*
X154624Y194882D01*
X154817Y194863D01*
X155006Y194825D01*
X155192Y194769D01*
X155370Y194695D01*
X155541Y194604D01*
X155702Y194496D01*
X155851Y194374D01*
X155988Y194237D01*
X156111Y194087D01*
X156218Y193927D01*
X156309Y193756D01*
X156383Y193577D01*
X156439Y193392D01*
X156443Y193373D01*
X156496Y192914D01*
X156496Y192913D01*
X156496D01*
X156496Y192913D01*
X156496Y187992D01*
X156496Y187895D01*
X156477Y187703D01*
X156439Y187513D01*
X156383Y187328D01*
X156309Y187150D01*
X156218Y186979D01*
X156111Y186818D01*
X155988Y186669D01*
X155851Y186532D01*
X155702Y186409D01*
X155541Y186302D01*
X155370Y186211D01*
X155192Y186136D01*
X155006Y186080D01*
X154817Y186043D01*
X154624Y186024D01*
X154528D01*
Y186024D01*
X146653D01*
X146653Y192913D01*
X146653Y193010D01*
X146672Y193203D01*
X146710Y193392D01*
X146766Y193577D01*
X146840Y193756D01*
X146932Y193927D01*
X147039Y194087D01*
X147162Y194237D01*
X147299Y194374D01*
X147448Y194496D01*
X147609Y194604D01*
X147779Y194695D01*
X147958Y194769D01*
X148143Y194825D01*
X148333Y194863D01*
X148525Y194882D01*
X148622Y194882D01*
X148622Y194882D01*
X148622Y194882D01*
D02*
G37*
G36*
X136390Y194300D02*
Y184046D01*
X133492Y181148D01*
X132901Y181392D01*
Y197018D01*
X133447Y197244D01*
X136390Y194300D01*
D02*
G37*
G36*
X136014Y203731D02*
X145983Y193762D01*
X145942Y193625D01*
X145938Y193586D01*
X145923Y193549D01*
X145885Y193359D01*
Y193319D01*
X145873Y193281D01*
X145855Y193089D01*
X145859Y193049D01*
X145851Y193010D01*
X145851Y192913D01*
X145851Y189152D01*
X143704Y187005D01*
X143262Y186429D01*
X142984Y185759D01*
X142890Y185039D01*
Y174183D01*
X135848Y167141D01*
X131825D01*
X131773Y167131D01*
X131720Y167134D01*
X131593Y167118D01*
X131542Y167101D01*
X131490Y167097D01*
X131365Y167064D01*
X131317Y167040D01*
X131265Y167030D01*
X131146Y166981D01*
X131129Y166969D01*
X131009Y166994D01*
X130770Y167104D01*
X130665Y167167D01*
X130539Y167303D01*
Y174221D01*
X138789Y182471D01*
X139093Y182927D01*
X139200Y183465D01*
Y194882D01*
X139093Y195420D01*
X138789Y195875D01*
X135263Y199401D01*
Y203792D01*
X135854Y203971D01*
X136014Y203731D01*
D02*
G37*
G36*
X137988Y166322D02*
X138112Y166288D01*
X138232Y166239D01*
X138343Y166174D01*
X138446Y166096D01*
X138537Y166005D01*
X138615Y165902D01*
X138680Y165791D01*
X138729Y165671D01*
X138763Y165547D01*
X138779Y165419D01*
Y165354D01*
Y163386D01*
Y163321D01*
X138763Y163193D01*
X138729Y163069D01*
X138680Y162950D01*
X138615Y162838D01*
X138537Y162735D01*
X138446Y162644D01*
X138343Y162566D01*
X138232Y162501D01*
X138112Y162452D01*
X137988Y162418D01*
X137860Y162402D01*
X131825D01*
X131697Y162418D01*
X131573Y162452D01*
X131454Y162501D01*
X131342Y162566D01*
X131239Y162644D01*
X131148Y162735D01*
X131070Y162838D01*
X131005Y162950D01*
X130956Y163069D01*
X130922Y163193D01*
X130905Y163321D01*
Y163386D01*
Y165354D01*
Y165419D01*
X130922Y165547D01*
X130956Y165671D01*
X131005Y165791D01*
X131070Y165902D01*
X131148Y166005D01*
X131239Y166096D01*
X131342Y166174D01*
X131454Y166239D01*
X131573Y166288D01*
X131697Y166322D01*
X131825Y166339D01*
X137860D01*
X137988Y166322D01*
D02*
G37*
G36*
X94488Y170276D02*
Y161417D01*
X90551Y157480D01*
Y142717D01*
X78740Y130905D01*
Y116142D01*
X80709Y114173D01*
X86614D01*
X88583Y116142D01*
X107283Y116142D01*
X108268Y115157D01*
Y111221D01*
X109646Y109843D01*
X111163D01*
X111537Y109386D01*
X111471Y109055D01*
X111647Y108172D01*
X112147Y107423D01*
X112896Y106923D01*
X113779Y106747D01*
X118335D01*
X121203Y103880D01*
X121951Y103379D01*
X122802Y103210D01*
X122837Y103201D01*
X123178Y102670D01*
X123076Y102485D01*
X122931Y102456D01*
X122345Y102065D01*
X121953Y101479D01*
X121816Y100787D01*
X121953Y100096D01*
X122345Y99510D01*
X122931Y99119D01*
X123622Y98981D01*
X123819Y99020D01*
X124409Y98536D01*
X124409Y90945D01*
X127953Y87402D01*
X127953Y79724D01*
X121063Y72835D01*
X101378D01*
X94488Y65945D01*
Y33858D01*
X57970D01*
X57618Y34333D01*
X57740Y34736D01*
X57892Y36279D01*
X57740Y37823D01*
X57290Y39307D01*
X56559Y40675D01*
X55575Y41874D01*
X54376Y42858D01*
X53008Y43589D01*
X51524Y44040D01*
X49980Y44192D01*
X48437Y44040D01*
X46953Y43589D01*
X45585Y42858D01*
X44386Y41874D01*
X44294Y41763D01*
X43738Y41962D01*
Y51868D01*
X43701Y52152D01*
Y121140D01*
X44291Y121351D01*
X44386Y121236D01*
X45585Y120252D01*
X46953Y119521D01*
X48437Y119071D01*
X49980Y118919D01*
X51524Y119071D01*
X53008Y119521D01*
X54376Y120252D01*
X55575Y121236D01*
X56559Y122435D01*
X57290Y123803D01*
X57740Y125287D01*
X57892Y126831D01*
X57740Y128374D01*
X57290Y129859D01*
X56559Y131226D01*
X55575Y132425D01*
X54376Y133409D01*
X53008Y134141D01*
X51524Y134591D01*
X49980Y134743D01*
X48437Y134591D01*
X46953Y134141D01*
X45585Y133409D01*
X44386Y132425D01*
X44257Y132269D01*
X43701Y132467D01*
Y165748D01*
X37008Y172441D01*
Y174213D01*
X89567Y174213D01*
X90551D01*
X94488Y170276D01*
D02*
G37*
G36*
X135827Y98425D02*
X135829Y98361D01*
X135846Y98233D01*
X135879Y98109D01*
X135928Y97990D01*
X135993Y97878D01*
X136071Y97776D01*
X136162Y97685D01*
X136264Y97607D01*
X136376Y97542D01*
X136495Y97493D01*
X136619Y97460D01*
X136665Y97454D01*
X136714Y97410D01*
X136908Y97281D01*
X137116Y97179D01*
X137336Y97104D01*
X137564Y97059D01*
X137795Y97043D01*
X138027Y97059D01*
X138255Y97104D01*
X138702Y96776D01*
X138779Y96457D01*
X138779Y95994D01*
X138779Y94488D01*
X138779Y94424D01*
X138763Y94296D01*
X138729Y94171D01*
X138680Y94052D01*
X138615Y93940D01*
X138537Y93838D01*
X138446Y93747D01*
X138343Y93668D01*
X138232Y93603D01*
X138112Y93554D01*
X137988Y93521D01*
X137860Y93504D01*
X137795Y93504D01*
X132874D01*
X132809Y93504D01*
X132682Y93521D01*
X132557Y93554D01*
X132438Y93603D01*
X132326Y93668D01*
X132224Y93747D01*
X132132Y93838D01*
X132054Y93940D01*
X131989Y94052D01*
X131940Y94171D01*
X131907Y94296D01*
X131890Y94424D01*
X131890Y94488D01*
Y98072D01*
X132243Y98425D01*
X135827Y98425D01*
D02*
G37*
%LPC*%
G36*
X52480Y163160D02*
X51245Y163039D01*
X50058Y162679D01*
X48964Y162094D01*
X48004Y161307D01*
X47217Y160347D01*
X46632Y159253D01*
X46272Y158066D01*
X46151Y156831D01*
X46272Y155596D01*
X46632Y154408D01*
X47217Y153314D01*
X48004Y152355D01*
X48964Y151568D01*
X50058Y150983D01*
X51245Y150623D01*
X52480Y150501D01*
X53715Y150623D01*
X54903Y150983D01*
X55997Y151568D01*
X56956Y152355D01*
X57743Y153314D01*
X58328Y154408D01*
X58688Y155596D01*
X58810Y156831D01*
X58688Y158066D01*
X58328Y159253D01*
X57743Y160347D01*
X56956Y161307D01*
X55997Y162094D01*
X54903Y162679D01*
X53715Y163039D01*
X52480Y163160D01*
D02*
G37*
G36*
X67500Y147192D02*
X66113Y147009D01*
X64820Y146473D01*
X63709Y145621D01*
X62857Y144511D01*
X62322Y143218D01*
X62139Y141831D01*
X62322Y140443D01*
X62857Y139150D01*
X63709Y138040D01*
X64820Y137188D01*
X66113Y136653D01*
X67500Y136470D01*
X68888Y136653D01*
X70180Y137188D01*
X71291Y138040D01*
X72143Y139150D01*
X72678Y140443D01*
X72861Y141831D01*
X72678Y143218D01*
X72143Y144511D01*
X71291Y145621D01*
X70180Y146473D01*
X68888Y147009D01*
X67500Y147192D01*
D02*
G37*
G36*
X114567Y95113D02*
X113876Y94976D01*
X113290Y94584D01*
X112898Y93998D01*
X112761Y93307D01*
X112778Y93221D01*
X110172Y90615D01*
X109911Y90225D01*
X109819Y89764D01*
X109819Y89764D01*
Y83610D01*
X109746Y83561D01*
X109697Y83488D01*
X97638D01*
X97638Y83488D01*
X97177Y83396D01*
X96786Y83135D01*
X96786Y83135D01*
X94589Y80938D01*
X94500Y80956D01*
X93809Y80818D01*
X93223Y80427D01*
X92831Y79841D01*
X92694Y79150D01*
X92831Y78458D01*
X93223Y77872D01*
X93809Y77481D01*
X94500Y77343D01*
X95191Y77481D01*
X95777Y77872D01*
X96169Y78458D01*
X96306Y79150D01*
X96290Y79233D01*
X98137Y81079D01*
X109697D01*
X109746Y81006D01*
X110332Y80615D01*
X111024Y80477D01*
X111715Y80615D01*
X112301Y81006D01*
X112692Y81592D01*
X112830Y82284D01*
X112692Y82975D01*
X112301Y83561D01*
X112228Y83610D01*
Y89265D01*
X114481Y91518D01*
X114567Y91501D01*
X115258Y91638D01*
X115844Y92030D01*
X116236Y92616D01*
X116373Y93307D01*
X116236Y93998D01*
X115844Y94584D01*
X115258Y94976D01*
X114567Y95113D01*
D02*
G37*
G36*
X52480Y72609D02*
X51245Y72488D01*
X50058Y72127D01*
X48964Y71543D01*
X48004Y70755D01*
X47217Y69796D01*
X46632Y68702D01*
X46272Y67514D01*
X46151Y66280D01*
X46272Y65045D01*
X46632Y63857D01*
X47217Y62763D01*
X48004Y61804D01*
X48964Y61017D01*
X50058Y60432D01*
X51245Y60071D01*
X52480Y59950D01*
X53715Y60071D01*
X54903Y60432D01*
X55997Y61017D01*
X56956Y61804D01*
X57743Y62763D01*
X58328Y63857D01*
X58688Y65045D01*
X58810Y66280D01*
X58688Y67514D01*
X58328Y68702D01*
X57743Y69796D01*
X56956Y70755D01*
X55997Y71543D01*
X54903Y72127D01*
X53715Y72488D01*
X52480Y72609D01*
D02*
G37*
G36*
X67500Y56640D02*
X66113Y56458D01*
X64820Y55922D01*
X63709Y55070D01*
X62857Y53960D01*
X62322Y52667D01*
X62139Y51279D01*
X62322Y49892D01*
X62857Y48599D01*
X63709Y47489D01*
X64820Y46637D01*
X66113Y46101D01*
X67500Y45919D01*
X68888Y46101D01*
X70180Y46637D01*
X71291Y47489D01*
X72143Y48599D01*
X72678Y49892D01*
X72861Y51279D01*
X72678Y52667D01*
X72143Y53960D01*
X71291Y55070D01*
X70180Y55922D01*
X68888Y56458D01*
X67500Y56640D01*
D02*
G37*
%LPD*%
G36*
X271654Y174213D02*
X271750Y174213D01*
X271943Y174194D01*
X272132Y174156D01*
X272318Y174100D01*
X272496Y174026D01*
X272667Y173934D01*
X272828Y173827D01*
X272977Y173704D01*
X273114Y173568D01*
X273236Y173418D01*
X273344Y173257D01*
X273435Y173087D01*
X273509Y172908D01*
X273565Y172723D01*
X273603Y172533D01*
X273622Y172341D01*
X273622Y172244D01*
X273622Y172244D01*
X273622Y164370D01*
X273622Y164137D01*
X273599Y163671D01*
X273553Y163206D01*
X273485Y162745D01*
X273394Y162287D01*
X273281Y161834D01*
X273145Y161388D01*
X272988Y160948D01*
X272809Y160517D01*
X272610Y160095D01*
X272390Y159684D01*
X272150Y159283D01*
X271890Y158896D01*
X271613Y158521D01*
X271317Y158160D01*
X271003Y157814D01*
X270838Y157649D01*
X270838D01*
X269685Y156496D01*
X244094Y130905D01*
X242941Y129752D01*
X242776Y129587D01*
X242430Y129274D01*
X242070Y128978D01*
X241695Y128700D01*
X241307Y128441D01*
X240907Y128201D01*
X240495Y127981D01*
X240073Y127781D01*
X239642Y127603D01*
X239203Y127445D01*
X238756Y127310D01*
X238304Y127197D01*
X237846Y127106D01*
X237384Y127037D01*
X236920Y126991D01*
X236454Y126969D01*
X236221Y126969D01*
X236221D01*
X184055Y126969D01*
X183071D01*
X182974Y126969D01*
X182782Y126988D01*
X182592Y127025D01*
X182407Y127081D01*
X182228Y127155D01*
X182088Y127230D01*
X181364Y127955D01*
X181289Y128094D01*
X181215Y128273D01*
X181159Y128458D01*
X181121Y128648D01*
X181102Y128840D01*
X181102Y128937D01*
Y128937D01*
X181102Y134843D01*
X181102Y134939D01*
X181121Y135132D01*
X181159Y135321D01*
X181215Y135506D01*
X181289Y135685D01*
X181380Y135856D01*
X181488Y136017D01*
X181610Y136166D01*
X181747Y136303D01*
X181897Y136425D01*
X182057Y136533D01*
X182228Y136624D01*
X182407Y136698D01*
X182592Y136754D01*
X182782Y136792D01*
X182974Y136811D01*
X183071Y136811D01*
X183071Y136811D01*
X183071Y136800D01*
X223425Y136811D01*
X223658Y136813D01*
X224124Y136836D01*
X224588Y136882D01*
X225050Y136950D01*
X225507Y137041D01*
X225960Y137155D01*
X226406Y137290D01*
X226845Y137447D01*
X227276Y137626D01*
X227698Y137825D01*
X228110Y138045D01*
X228509Y138285D01*
X228897Y138544D01*
X229272Y138822D01*
X229633Y139118D01*
X229978Y139431D01*
X230145Y139594D01*
X230145Y139594D01*
X255090Y164539D01*
X255253Y164706D01*
X255566Y165052D01*
X255862Y165412D01*
X256140Y165787D01*
X256399Y166175D01*
X256639Y166575D01*
X256859Y166986D01*
X257059Y167408D01*
X257237Y167839D01*
X257394Y168278D01*
X257530Y168725D01*
X257643Y169177D01*
X257734Y169635D01*
X257803Y170096D01*
X257848Y170561D01*
X257871Y171027D01*
X257874Y171260D01*
X257874Y171260D01*
Y172244D01*
Y172341D01*
X257893Y172533D01*
X257931Y172723D01*
X257987Y172908D01*
X258061Y173087D01*
X258152Y173257D01*
X258260Y173418D01*
X258382Y173568D01*
X258519Y173704D01*
X258668Y173827D01*
X258829Y173934D01*
X259000Y174026D01*
X259178Y174100D01*
X259364Y174156D01*
X259553Y174194D01*
X259746Y174213D01*
X259842D01*
X259842Y174213D01*
X271654Y174213D01*
D02*
G37*
G36*
X271943Y130887D02*
X272132Y130849D01*
X272318Y130793D01*
X272496Y130719D01*
X272667Y130628D01*
X272828Y130520D01*
X272977Y130397D01*
X273114Y130261D01*
X273237Y130111D01*
X273344Y129950D01*
X273435Y129780D01*
X273509Y129601D01*
X273565Y129416D01*
X273603Y129226D01*
X273622Y129034D01*
X273622Y128937D01*
X273622Y127165D01*
X273622Y126732D01*
X273622D01*
X273622Y126501D01*
X273599Y126040D01*
X273554Y125580D01*
X273486Y125123D01*
X273396Y124670D01*
X273284Y124222D01*
X273150Y123780D01*
X272994Y123345D01*
X272817Y122918D01*
X272620Y122500D01*
X272402Y122093D01*
X272165Y121697D01*
X271908Y121312D01*
X271633Y120941D01*
X271340Y120584D01*
X271029Y120242D01*
X270866Y120079D01*
X270252Y119464D01*
X270252D01*
X270078Y119291D01*
X269714Y118961D01*
X269335Y118650D01*
X268940Y118357D01*
X268532Y118084D01*
X268111Y117832D01*
X267678Y117601D01*
X267234Y117391D01*
X266781Y117203D01*
X266318Y117037D01*
X265849Y116895D01*
X265372Y116776D01*
X264891Y116680D01*
X264405Y116608D01*
X263917Y116560D01*
X263474Y116538D01*
X263465Y116538D01*
X263446Y116537D01*
X263426Y116539D01*
X263181Y116539D01*
X188980Y116539D01*
X188850Y116541D01*
X188811Y116537D01*
X188796Y116538D01*
X188569Y116557D01*
X188302Y116607D01*
X188040Y116683D01*
X187787Y116784D01*
X187546Y116909D01*
X187366Y117026D01*
X187364Y117030D01*
X187235Y117223D01*
X187082Y117397D01*
X186908Y117550D01*
X186714Y117679D01*
X186506Y117782D01*
X186286Y117857D01*
X186178Y117878D01*
X185975Y117960D01*
X185713Y118035D01*
X185446Y118085D01*
X185175Y118108D01*
X185039Y118110D01*
X183071Y118110D01*
X183071Y118110D01*
X182974Y118110D01*
X182782Y118129D01*
X182592Y118167D01*
X182407Y118223D01*
X182228Y118297D01*
X182058Y118388D01*
X181897Y118496D01*
X181747Y118618D01*
X181611Y118755D01*
X181488Y118905D01*
X181380Y119065D01*
X181289Y119236D01*
X181215Y119415D01*
X181159Y119600D01*
X181121Y119790D01*
X181102Y119982D01*
X181102Y120079D01*
Y124016D01*
X181102Y124112D01*
X181121Y124305D01*
X181159Y124495D01*
X181215Y124680D01*
X181289Y124858D01*
X181380Y125029D01*
X181488Y125190D01*
X181611Y125339D01*
X181747Y125476D01*
X181897Y125599D01*
X182058Y125706D01*
X182228Y125797D01*
X182407Y125871D01*
X182592Y125927D01*
X182782Y125965D01*
X182974Y125984D01*
X183071Y125984D01*
X237205D01*
X237205Y125984D01*
X237438Y125987D01*
X237904Y126010D01*
X238368Y126056D01*
X238830Y126124D01*
X239287Y126215D01*
X239740Y126328D01*
X240186Y126464D01*
X240626Y126621D01*
X241056Y126799D01*
X241478Y126999D01*
X241890Y127219D01*
X242290Y127459D01*
X242678Y127718D01*
X243052Y127996D01*
X243413Y128292D01*
X243759Y128605D01*
X243925Y128768D01*
X244671Y129514D01*
X244671D01*
X244781Y129624D01*
X245015Y129829D01*
X245262Y130018D01*
X245520Y130191D01*
X245790Y130347D01*
X246069Y130484D01*
X246357Y130603D01*
X246651Y130703D01*
X246952Y130784D01*
X247257Y130844D01*
X247565Y130885D01*
X247876Y130905D01*
X248031Y130905D01*
X271654Y130905D01*
X271654Y130905D01*
X271750Y130905D01*
X271943Y130887D01*
D02*
G37*
G36*
X188976Y115748D02*
X188976Y115748D01*
X263181Y115748D01*
X263426Y115748D01*
X263917Y115724D01*
X264405Y115676D01*
X264891Y115604D01*
X265372Y115508D01*
X265849Y115389D01*
X266318Y115246D01*
X266781Y115081D01*
X267234Y114893D01*
X267678Y114683D01*
X268111Y114452D01*
X268532Y114199D01*
X268940Y113926D01*
X269335Y113634D01*
X269714Y113322D01*
X270078Y112993D01*
X270252Y112819D01*
X270252Y112819D01*
X270866Y112205D01*
X271029Y112041D01*
X271340Y111699D01*
X271633Y111342D01*
X271908Y110971D01*
X272165Y110587D01*
X272402Y110191D01*
X272620Y109783D01*
X272817Y109365D01*
X272994Y108939D01*
X273150Y108504D01*
X273284Y108062D01*
X273396Y107614D01*
X273486Y107160D01*
X273554Y106703D01*
X273599Y106244D01*
X273622Y105782D01*
X273622Y105551D01*
X273622Y105551D01*
X273622Y105118D01*
X273622Y103347D01*
X273622Y103250D01*
X273603Y103057D01*
X273565Y102867D01*
X273509Y102682D01*
X273435Y102504D01*
X273344Y102333D01*
X273237Y102172D01*
X273114Y102023D01*
X272977Y101886D01*
X272828Y101763D01*
X272667Y101656D01*
X272496Y101565D01*
X272318Y101491D01*
X272132Y101435D01*
X271943Y101397D01*
X271750Y101378D01*
X271654Y101378D01*
X271654D01*
X248031Y101378D01*
X247876Y101378D01*
X247565Y101398D01*
X247257Y101439D01*
X246952Y101500D01*
X246651Y101580D01*
X246357Y101680D01*
X246069Y101799D01*
X245790Y101937D01*
X245520Y102092D01*
X245262Y102265D01*
X245015Y102455D01*
X244781Y102660D01*
X244671Y102770D01*
X244671Y102770D01*
X243925Y103515D01*
X243759Y103678D01*
X243413Y103992D01*
X243052Y104288D01*
X242678Y104566D01*
X242290Y104825D01*
X241890Y105065D01*
X241478Y105285D01*
X241056Y105484D01*
X240626Y105663D01*
X240186Y105820D01*
X239740Y105955D01*
X239287Y106068D01*
X238830Y106159D01*
X238368Y106228D01*
X237904Y106273D01*
X237438Y106296D01*
X237205Y106299D01*
X237205Y106299D01*
X183071Y106299D01*
X182974Y106299D01*
X182782Y106318D01*
X182592Y106356D01*
X182407Y106412D01*
X182228Y106486D01*
X182058Y106577D01*
X181897Y106685D01*
X181747Y106807D01*
X181611Y106944D01*
X181488Y107094D01*
X181380Y107255D01*
X181289Y107425D01*
X181215Y107604D01*
X181159Y107789D01*
X181121Y107978D01*
X181102Y108171D01*
X181102Y108268D01*
Y108268D01*
Y112205D01*
X181102Y112301D01*
X181121Y112494D01*
X181159Y112684D01*
X181215Y112869D01*
X181289Y113047D01*
X181380Y113218D01*
X181488Y113379D01*
X181611Y113528D01*
X181747Y113665D01*
X181897Y113788D01*
X182058Y113895D01*
X182228Y113986D01*
X182407Y114060D01*
X182592Y114117D01*
X182782Y114154D01*
X182974Y114173D01*
X183071Y114173D01*
X183071Y114173D01*
X185039D01*
X185175Y114175D01*
X185446Y114198D01*
X185713Y114248D01*
X185975Y114324D01*
X186178Y114405D01*
X186286Y114427D01*
X186506Y114501D01*
X186714Y114604D01*
X186908Y114733D01*
X187082Y114886D01*
X187235Y115061D01*
X187364Y115254D01*
X187366Y115257D01*
X187546Y115374D01*
X187787Y115500D01*
X188040Y115601D01*
X188302Y115676D01*
X188569Y115726D01*
X188840Y115750D01*
X188976Y115748D01*
D02*
G37*
G36*
X236920Y105292D02*
X237384Y105246D01*
X237846Y105178D01*
X238304Y105087D01*
X238756Y104973D01*
X239203Y104838D01*
X239642Y104681D01*
X240073Y104502D01*
X240495Y104303D01*
X240907Y104083D01*
X241307Y103843D01*
X241695Y103584D01*
X242070Y103305D01*
X242430Y103009D01*
X242776Y102696D01*
X242941Y102531D01*
X244094Y101378D01*
X269685Y75787D01*
X270838Y74634D01*
X270838Y74634D01*
X271003Y74469D01*
X271317Y74124D01*
X271613Y73763D01*
X271890Y73388D01*
X272150Y73000D01*
X272390Y72600D01*
X272610Y72188D01*
X272809Y71766D01*
X272988Y71335D01*
X273145Y70896D01*
X273281Y70449D01*
X273394Y69997D01*
X273485Y69539D01*
X273553Y69077D01*
X273599Y68613D01*
X273622Y68147D01*
X273622Y67913D01*
X273622Y60039D01*
X273622D01*
X273622Y59943D01*
X273603Y59750D01*
X273565Y59561D01*
X273509Y59375D01*
X273435Y59197D01*
X273344Y59026D01*
X273236Y58865D01*
X273114Y58716D01*
X272977Y58579D01*
X272828Y58456D01*
X272667Y58349D01*
X272496Y58258D01*
X272318Y58184D01*
X272132Y58128D01*
X271943Y58090D01*
X271750Y58071D01*
X271654Y58071D01*
X259842Y58071D01*
X259842Y58071D01*
X259746D01*
X259553Y58090D01*
X259364Y58128D01*
X259178Y58184D01*
X259000Y58258D01*
X258829Y58349D01*
X258668Y58456D01*
X258519Y58579D01*
X258382Y58716D01*
X258260Y58865D01*
X258152Y59026D01*
X258061Y59197D01*
X257987Y59375D01*
X257931Y59561D01*
X257893Y59750D01*
X257874Y59943D01*
Y60039D01*
Y61024D01*
X257874D01*
X257871Y61257D01*
X257848Y61723D01*
X257803Y62187D01*
X257734Y62649D01*
X257643Y63106D01*
X257530Y63559D01*
X257394Y64005D01*
X257237Y64444D01*
X257059Y64875D01*
X256859Y65297D01*
X256639Y65709D01*
X256399Y66109D01*
X256140Y66496D01*
X255862Y66871D01*
X255566Y67232D01*
X255253Y67577D01*
X255090Y67744D01*
X230145Y92689D01*
X230145D01*
X229978Y92852D01*
X229633Y93166D01*
X229272Y93462D01*
X228897Y93739D01*
X228509Y93998D01*
X228110Y94238D01*
X227698Y94458D01*
X227276Y94658D01*
X226845Y94836D01*
X226406Y94993D01*
X225960Y95129D01*
X225507Y95242D01*
X225050Y95333D01*
X224588Y95402D01*
X224124Y95447D01*
X223658Y95470D01*
X223425Y95473D01*
X183071Y95483D01*
X183071Y95473D01*
X183071Y95473D01*
X182974Y95473D01*
X182782Y95491D01*
X182592Y95529D01*
X182407Y95585D01*
X182228Y95659D01*
X182057Y95750D01*
X181897Y95858D01*
X181747Y95981D01*
X181610Y96117D01*
X181488Y96267D01*
X181380Y96428D01*
X181289Y96598D01*
X181215Y96777D01*
X181159Y96962D01*
X181121Y97152D01*
X181102Y97344D01*
X181102Y97441D01*
X181102Y103347D01*
X181102Y103443D01*
X181121Y103636D01*
X181159Y103825D01*
X181215Y104010D01*
X181289Y104189D01*
X181380Y104360D01*
X181488Y104520D01*
X181611Y104670D01*
X181747Y104807D01*
X181897Y104929D01*
X182058Y105037D01*
X182228Y105128D01*
X182407Y105202D01*
X182592Y105258D01*
X182782Y105296D01*
X182974Y105315D01*
X183071Y105315D01*
X184055Y105315D01*
X236221Y105315D01*
X236221Y105315D01*
X236454Y105315D01*
X236920Y105292D01*
D02*
G37*
D14*
X95866Y269488D02*
X102078D01*
X85039Y258661D02*
X95866Y269488D01*
X102078D02*
X102669Y268898D01*
X105850D02*
X105952Y269000D01*
X102669Y268898D02*
X105850D01*
X63779Y204724D02*
Y214961D01*
X111024Y89764D02*
X114567Y93307D01*
X111024Y82284D02*
Y89764D01*
X72638Y258661D02*
X85039D01*
X66929Y252953D02*
X72638Y258661D01*
X66929Y246063D02*
Y252953D01*
X97638Y82284D02*
X111024D01*
X94488Y79134D02*
X97638Y82284D01*
D15*
X107513Y258898D02*
G03*
X106847Y259173I-665J-665D01*
G01*
X99315Y259173D02*
G03*
X92244Y256244I0J-10000D01*
G01*
X85514Y252650D02*
G03*
X90867Y254867I0J7570D01*
G01*
X77150Y252650D02*
G03*
X74500Y250000I0J-2650D01*
G01*
X99301Y261024D02*
G03*
X90946Y257563I0J-11816D01*
G01*
X85500Y254500D02*
G03*
X89568Y256185I0J5754D01*
G01*
X76638Y254500D02*
G03*
X72138Y250000I0J-4500D01*
G01*
X106847Y261024D02*
G03*
X107513Y261299I0J941D01*
G01*
X99315Y259173D02*
X106847D01*
X90867Y254867D02*
X92244Y256244D01*
X77150Y252650D02*
X85514D01*
X74500Y246200D02*
Y250000D01*
X39142Y206858D02*
X39469Y207185D01*
X44587D01*
X123228Y124015D02*
X124803D01*
X126378Y122441D01*
Y118110D02*
Y122441D01*
X116141Y111417D02*
X120079D01*
X122834Y108661D01*
X122835D01*
X119291Y109055D02*
X122835Y105512D01*
X122835D01*
X113779Y109055D02*
X119291D01*
X99301Y261024D02*
X106847D01*
X76638Y254500D02*
X85500D01*
X72138Y248151D02*
Y250000D01*
X33000Y208984D02*
X33071Y209055D01*
X89568Y256185D02*
X90946Y257563D01*
X33000Y203500D02*
Y208984D01*
D17*
X41575Y36181D02*
X50079D01*
X27894Y69232D02*
X38386Y79724D01*
X27894Y63344D02*
Y69232D01*
Y63344D02*
X39370Y51868D01*
X38386Y79724D02*
Y124016D01*
X39370Y38386D02*
Y51868D01*
X184889Y74560D02*
Y76998D01*
X184055Y77831D02*
X184889Y76998D01*
X184055Y77831D02*
Y97441D01*
X184889Y74560D02*
X185039Y74410D01*
X179134Y94488D02*
X181102Y92520D01*
Y77165D02*
Y92520D01*
Y77165D02*
X182283Y75984D01*
X185039Y155830D02*
Y158268D01*
X184055Y154845D02*
X185039Y155830D01*
X181102Y155512D02*
X182283Y156693D01*
X181102Y138976D02*
Y155512D01*
X179134Y137008D02*
X181102Y138976D01*
X184055Y132480D02*
Y154845D01*
X183858Y132283D02*
X184055Y132480D01*
X39370Y38386D02*
X41575Y36181D01*
X38386Y124016D02*
X40354Y125984D01*
X49213D01*
X179134Y94488D02*
Y104724D01*
X182874Y108465D01*
X183071Y120472D02*
Y124016D01*
X179134Y127953D02*
X183071Y124016D01*
X179134Y127953D02*
Y137008D01*
X182677Y120079D02*
X183071Y120472D01*
D18*
X128740Y185433D02*
Y202756D01*
X124409Y181102D02*
X128740Y185433D01*
Y202756D02*
X131102Y205118D01*
X124409Y177559D02*
Y181102D01*
X126772Y175984D02*
X131496Y180709D01*
X126772Y140945D02*
Y175984D01*
X131496Y180709D02*
Y201181D01*
X114567Y289764D02*
X125591Y300787D01*
X110630Y289764D02*
X114567D01*
X125591Y300787D02*
Y315354D01*
X127165Y316929D01*
X99114Y278248D02*
X110630Y289764D01*
X99114Y274705D02*
Y278248D01*
X96063Y271654D02*
X99114Y274705D01*
X128347Y223622D02*
X131496Y220472D01*
X57087Y223622D02*
X128347D01*
X53937Y226772D02*
X57087Y223622D01*
X90742Y273228D02*
X91732Y272238D01*
X85624Y273228D02*
X90742D01*
X82474Y270079D02*
X85624Y273228D01*
X65748Y279921D02*
X75590Y270079D01*
X55905Y279921D02*
X65748D01*
X75590Y270079D02*
X82474D01*
X52756Y283071D02*
X55905Y279921D01*
X137795Y183465D02*
Y194882D01*
X129134Y174803D02*
X137795Y183465D01*
X129134Y144095D02*
Y174803D01*
X111811Y125984D02*
X126772Y140945D01*
X129134Y144095D02*
X134646Y138583D01*
X133858Y198819D02*
X137795Y194882D01*
X133858Y198819D02*
Y211024D01*
X117717Y241732D02*
X137008Y222441D01*
Y204724D02*
Y222441D01*
Y204724D02*
X148425Y193307D01*
X131496Y117323D02*
X134646Y120472D01*
X131496Y108661D02*
Y117323D01*
X123622Y100787D02*
X131496Y108661D01*
X91732Y272047D02*
Y272238D01*
X134646Y120472D02*
Y138583D01*
Y230709D02*
X159055D01*
X163386Y226378D01*
X143307Y222441D02*
X146457Y225590D01*
X143307Y202362D02*
Y222441D01*
Y202362D02*
X150000Y195669D01*
Y193307D02*
Y195669D01*
Y193307D02*
X150787Y192520D01*
X131102Y212205D02*
X133858Y214961D01*
X131102Y205118D02*
Y212205D01*
X123228Y232677D02*
X133858Y222047D01*
Y214961D02*
Y222047D01*
X114567Y289764D02*
X138976D01*
X112205Y129528D02*
X124409Y141732D01*
Y174016D01*
X88976Y129528D02*
X112205D01*
X124409Y174016D02*
X124409Y174016D01*
X138976Y289764D02*
X144095Y294882D01*
Y296850D01*
X117717Y241732D02*
Y270472D01*
X115354Y240551D02*
X123228Y232677D01*
X115354Y240551D02*
Y259449D01*
X92126Y271654D02*
X96063D01*
X91959Y271821D02*
X92126Y271654D01*
X91900Y271821D02*
X91959D01*
X90158Y247638D02*
X103543D01*
X88189Y249606D02*
X90158Y247638D01*
X85106Y249606D02*
X88189D01*
X85000Y249500D02*
X85106Y249606D01*
X105118Y273622D02*
X114567D01*
X101575Y277165D02*
X105118Y273622D01*
X115354Y259449D02*
Y269685D01*
X103543Y247638D02*
X115354Y259449D01*
X114567Y273622D02*
X117717Y270472D01*
X124409Y174016D02*
X124409Y177559D01*
X113386Y271654D02*
X115354Y269685D01*
X96063Y271654D02*
X113386D01*
D132*
X127953Y268504D02*
D03*
X185039Y258661D02*
D03*
D134*
X49980Y126831D02*
D03*
Y36279D02*
D03*
D136*
X70866Y35433D02*
D03*
X165748Y116142D02*
D03*
X170866D02*
D03*
X160630D02*
D03*
X155512D02*
D03*
X170866Y111024D02*
D03*
X165748D02*
D03*
X160630D02*
D03*
X155512D02*
D03*
Y105905D02*
D03*
X160630D02*
D03*
X165748D02*
D03*
X170866D02*
D03*
X155512Y121260D02*
D03*
X160630D02*
D03*
X165748D02*
D03*
X170866D02*
D03*
Y126378D02*
D03*
X165748D02*
D03*
X160630D02*
D03*
X155512D02*
D03*
X106398Y111260D02*
D03*
X102402Y115256D02*
D03*
X92480D02*
D03*
X97441D02*
D03*
X88484Y111260D02*
D03*
Y106299D02*
D03*
Y101339D02*
D03*
X92480Y97342D02*
D03*
X102402D02*
D03*
X97441D02*
D03*
X106398Y101339D02*
D03*
Y106299D02*
D03*
X102402Y111260D02*
D03*
X97441D02*
D03*
X92480D02*
D03*
Y106299D02*
D03*
X102402Y101339D02*
D03*
X92480D02*
D03*
X97441D02*
D03*
X102402Y106299D02*
D03*
X97441D02*
D03*
X151969Y218110D02*
D03*
X148819D02*
D03*
X145669D02*
D03*
Y214961D02*
D03*
X151969D02*
D03*
X148819D02*
D03*
X100394Y88976D02*
D03*
X97638D02*
D03*
X151969Y236221D02*
D03*
X100394Y65945D02*
D03*
X126969Y113189D02*
D03*
X235433Y285433D02*
D03*
X240158Y258268D02*
D03*
X241732Y260630D02*
D03*
X248819Y264567D02*
D03*
Y256693D02*
D03*
X244488Y253937D02*
D03*
X277559Y237008D02*
D03*
X283465Y227559D02*
D03*
X277559Y215748D02*
D03*
X315748Y68504D02*
D03*
Y77165D02*
D03*
Y163779D02*
D03*
Y155118D02*
D03*
X320472Y163386D02*
D03*
Y155512D02*
D03*
Y76772D02*
D03*
Y68898D02*
D03*
X98425Y291339D02*
D03*
X90551D02*
D03*
X82677D02*
D03*
X98425Y299213D02*
D03*
X90551D02*
D03*
X82677D02*
D03*
X98425Y307087D02*
D03*
X90551D02*
D03*
X82677D02*
D03*
X163386Y216929D02*
D03*
X117913Y232579D02*
D03*
X114075Y228543D02*
D03*
Y206496D02*
D03*
X82677Y181102D02*
D03*
X59055D02*
D03*
X39370D02*
D03*
X3937Y236221D02*
D03*
Y248031D02*
D03*
Y259842D02*
D03*
Y271654D02*
D03*
Y283465D02*
D03*
Y295276D02*
D03*
Y307087D02*
D03*
X275590Y334646D02*
D03*
X255906D02*
D03*
X236221D02*
D03*
X216535D02*
D03*
X196850D02*
D03*
X177165D02*
D03*
X157480D02*
D03*
X137795D02*
D03*
X118110D02*
D03*
X129528Y314173D02*
D03*
X66732Y296949D02*
D03*
X58563Y290354D02*
D03*
X62598Y286417D02*
D03*
X58563Y282480D02*
D03*
X60827Y277362D02*
D03*
X51968Y273031D02*
D03*
X59744Y265256D02*
D03*
X60039Y242618D02*
D03*
X64272Y237795D02*
D03*
X64370Y231102D02*
D03*
X60039Y226279D02*
D03*
X48031Y225984D02*
D03*
X52067Y222638D02*
D03*
Y217717D02*
D03*
X55315Y213681D02*
D03*
X64961Y194095D02*
D03*
X61614Y190551D02*
D03*
X57284Y190453D02*
D03*
X46457Y186614D02*
D03*
X40551Y186516D02*
D03*
X360236Y44291D02*
D03*
X344488Y45276D02*
D03*
X359252Y100394D02*
D03*
X344488D02*
D03*
X351575Y114567D02*
D03*
Y117717D02*
D03*
X344488Y131890D02*
D03*
X359252D02*
D03*
X366142Y196850D02*
D03*
X360236Y185039D02*
D03*
X344488Y187008D02*
D03*
X291929Y308071D02*
D03*
X294291Y303150D02*
D03*
X297244D02*
D03*
X306102D02*
D03*
X303150D02*
D03*
X300197D02*
D03*
X294094Y298031D02*
D03*
X364173Y243110D02*
D03*
X368110Y236221D02*
D03*
Y261811D02*
D03*
X364173Y254921D02*
D03*
X283465Y299213D02*
D03*
X271654D02*
D03*
X277559Y310039D02*
D03*
Y288386D02*
D03*
X218898Y294094D02*
D03*
X217520Y279528D02*
D03*
X214961Y287008D02*
D03*
X222835D02*
D03*
X248031Y219488D02*
D03*
Y226378D02*
D03*
X251969Y223425D02*
D03*
X221457Y220472D02*
D03*
X231299Y204724D02*
D03*
X211614D02*
D03*
X223425Y188976D02*
D03*
X219488Y11811D02*
D03*
X221358Y43307D02*
D03*
X212598Y27756D02*
D03*
X230315D02*
D03*
X4921Y315945D02*
D03*
X14764D02*
D03*
X24606D02*
D03*
X34449D02*
D03*
X44291D02*
D03*
X54134D02*
D03*
X63976D02*
D03*
X63484Y300394D02*
D03*
Y312205D02*
D03*
X137205Y164567D02*
D03*
X134843D02*
D03*
X132480D02*
D03*
X134843Y171260D02*
D03*
X140748Y182087D02*
D03*
X134843Y192913D02*
D03*
X187008Y140157D02*
D03*
X191732Y144882D02*
D03*
X196850Y140157D02*
D03*
X232677Y145669D02*
D03*
Y87402D02*
D03*
X187008Y92126D02*
D03*
X196850D02*
D03*
X191929Y87795D02*
D03*
X132677Y87402D02*
D03*
X93701Y70866D02*
D03*
X80709Y103543D02*
D03*
X92913Y53150D02*
D03*
Y36614D02*
D03*
X111417Y18110D02*
D03*
X117028Y23425D02*
D03*
X107185Y27362D02*
D03*
X107283Y18504D02*
D03*
X366142Y318898D02*
D03*
Y295275D02*
D03*
Y271654D02*
D03*
Y177165D02*
D03*
Y129921D02*
D03*
Y106299D02*
D03*
Y35433D02*
D03*
X354331Y318898D02*
D03*
X360236Y307086D02*
D03*
X354331Y295275D02*
D03*
X360236Y236220D02*
D03*
Y188976D02*
D03*
Y141732D02*
D03*
Y118110D02*
D03*
Y94488D02*
D03*
Y47244D02*
D03*
X342520Y318898D02*
D03*
X348425Y307086D02*
D03*
X342520Y295275D02*
D03*
Y271654D02*
D03*
Y177165D02*
D03*
Y106299D02*
D03*
Y35433D02*
D03*
X330709Y318898D02*
D03*
Y295275D02*
D03*
Y271654D02*
D03*
X336614Y259842D02*
D03*
X330709Y248031D02*
D03*
X336614Y236220D02*
D03*
X324803Y307086D02*
D03*
X318898Y295275D02*
D03*
Y271654D02*
D03*
X324803Y259842D02*
D03*
X318898Y248031D02*
D03*
X324803Y236220D02*
D03*
X312992D02*
D03*
Y70866D02*
D03*
X301181Y283465D02*
D03*
Y236220D02*
D03*
X295275Y153543D02*
D03*
X301181Y70866D02*
D03*
X283465Y318898D02*
D03*
X289370Y307086D02*
D03*
X283465Y295275D02*
D03*
X289370Y283465D02*
D03*
Y236220D02*
D03*
X283465Y224409D02*
D03*
Y200787D02*
D03*
Y177165D02*
D03*
X289370Y165354D02*
D03*
X283465Y153543D02*
D03*
Y129921D02*
D03*
X289370Y118110D02*
D03*
X283465Y106299D02*
D03*
Y82677D02*
D03*
X289370Y70866D02*
D03*
X283465Y59055D02*
D03*
Y35433D02*
D03*
Y11811D02*
D03*
X271654Y295275D02*
D03*
X277559Y283465D02*
D03*
Y212598D02*
D03*
X271654Y200787D02*
D03*
X277559Y188976D02*
D03*
Y165354D02*
D03*
X271654Y153543D02*
D03*
X277559Y141732D02*
D03*
Y118110D02*
D03*
Y94488D02*
D03*
X271654Y82677D02*
D03*
X277559Y70866D02*
D03*
Y47244D02*
D03*
X271654Y35433D02*
D03*
X277559Y23622D02*
D03*
X259842Y318898D02*
D03*
X265748Y307086D02*
D03*
X259842Y295275D02*
D03*
X265748Y283465D02*
D03*
X259842Y200787D02*
D03*
Y35433D02*
D03*
X265748Y23622D02*
D03*
X259842Y11811D02*
D03*
X248031Y318898D02*
D03*
X253937Y307086D02*
D03*
X248031Y295275D02*
D03*
X253937Y283465D02*
D03*
X248031Y271654D02*
D03*
Y59055D02*
D03*
X253937Y47244D02*
D03*
X248031Y35433D02*
D03*
X253937Y23622D02*
D03*
X248031Y11811D02*
D03*
X236220Y318898D02*
D03*
X242126Y307086D02*
D03*
X236220Y295275D02*
D03*
X242126Y283465D02*
D03*
Y236220D02*
D03*
Y212598D02*
D03*
X236220Y59055D02*
D03*
X242126Y47244D02*
D03*
X236220Y35433D02*
D03*
X242126Y23622D02*
D03*
X236220Y11811D02*
D03*
X224409Y318898D02*
D03*
X230315Y307086D02*
D03*
X224409Y295275D02*
D03*
X230315Y283465D02*
D03*
Y188976D02*
D03*
X224409Y177165D02*
D03*
Y59055D02*
D03*
X230315Y47244D02*
D03*
X224409Y11811D02*
D03*
X218504Y307086D02*
D03*
X212598Y295275D02*
D03*
Y271654D02*
D03*
Y248031D02*
D03*
X218504Y236220D02*
D03*
Y188976D02*
D03*
X212598Y177165D02*
D03*
Y59055D02*
D03*
X218504Y47244D02*
D03*
X212598Y11811D02*
D03*
X200787Y295275D02*
D03*
X206693Y236220D02*
D03*
X200787Y224409D02*
D03*
X206693Y212598D02*
D03*
X200787Y200787D02*
D03*
X206693Y188976D02*
D03*
X200787Y177165D02*
D03*
X206693Y165354D02*
D03*
X200787Y153543D02*
D03*
Y82677D02*
D03*
X206693Y70866D02*
D03*
X200787Y59055D02*
D03*
X206693Y47244D02*
D03*
X200787Y35433D02*
D03*
X206693Y23622D02*
D03*
X200787Y11811D02*
D03*
X188976Y318898D02*
D03*
X194882Y307086D02*
D03*
X188976Y295275D02*
D03*
Y271654D02*
D03*
Y248031D02*
D03*
X194882Y212598D02*
D03*
X188976Y200787D02*
D03*
X194882Y188976D02*
D03*
X188976Y177165D02*
D03*
X194882Y165354D02*
D03*
X188976Y153543D02*
D03*
Y82677D02*
D03*
X194882Y70866D02*
D03*
X188976Y59055D02*
D03*
X194882Y47244D02*
D03*
X188976Y35433D02*
D03*
X194882Y23622D02*
D03*
X188976Y11811D02*
D03*
X177165Y318898D02*
D03*
X183071Y307086D02*
D03*
X177165Y295275D02*
D03*
X183071Y236220D02*
D03*
X177165Y224409D02*
D03*
X183071Y212598D02*
D03*
X177165Y200787D02*
D03*
X183071Y47244D02*
D03*
X177165Y35433D02*
D03*
X183071Y23622D02*
D03*
X177165Y11811D02*
D03*
X165354Y318898D02*
D03*
Y295275D02*
D03*
X171260Y283465D02*
D03*
X165354Y271654D02*
D03*
X171260Y259842D02*
D03*
X165354Y248031D02*
D03*
Y200787D02*
D03*
X171260Y47244D02*
D03*
X165354Y35433D02*
D03*
X171260Y23622D02*
D03*
X165354Y11811D02*
D03*
X153543Y318898D02*
D03*
X159449Y283465D02*
D03*
X153543Y271654D02*
D03*
X159449Y259842D02*
D03*
Y236220D02*
D03*
Y47244D02*
D03*
X153543Y35433D02*
D03*
X159449Y23622D02*
D03*
X147638Y283465D02*
D03*
X141732Y271654D02*
D03*
X147638Y259842D02*
D03*
X141732Y248031D02*
D03*
X147638Y236220D02*
D03*
Y165354D02*
D03*
X141732Y153543D02*
D03*
X147638Y47244D02*
D03*
X141732Y35433D02*
D03*
X129921Y318898D02*
D03*
X135827Y236220D02*
D03*
Y47244D02*
D03*
X129921Y35433D02*
D03*
X118110Y200787D02*
D03*
X124016Y188976D02*
D03*
Y70866D02*
D03*
X118110Y59055D02*
D03*
X124016Y47244D02*
D03*
X118110Y35433D02*
D03*
X112205Y212598D02*
D03*
X106299Y59055D02*
D03*
X112205Y47244D02*
D03*
X106299Y35433D02*
D03*
X94488Y295275D02*
D03*
Y177165D02*
D03*
Y153543D02*
D03*
X100394Y47244D02*
D03*
X82677Y295275D02*
D03*
X76772Y212598D02*
D03*
X70866Y200787D02*
D03*
X76772Y188976D02*
D03*
Y141732D02*
D03*
X70866Y129921D02*
D03*
Y106299D02*
D03*
Y82677D02*
D03*
X76772Y70866D02*
D03*
X59055Y295275D02*
D03*
Y271654D02*
D03*
X64961Y188976D02*
D03*
Y165354D02*
D03*
X59055Y129921D02*
D03*
X64961Y118110D02*
D03*
X59055Y106299D02*
D03*
X64961Y94488D02*
D03*
X59055Y82677D02*
D03*
X64961Y70866D02*
D03*
X59055Y59055D02*
D03*
X53150Y307086D02*
D03*
Y188976D02*
D03*
Y165354D02*
D03*
Y141732D02*
D03*
Y118110D02*
D03*
X47244Y106299D02*
D03*
X53150Y94488D02*
D03*
X47244Y82677D02*
D03*
Y59055D02*
D03*
X53150Y47244D02*
D03*
X29528Y307086D02*
D03*
X23622Y295275D02*
D03*
X29528Y283465D02*
D03*
X23622Y271654D02*
D03*
X29528Y259842D02*
D03*
X23622Y248031D02*
D03*
X29528Y236220D02*
D03*
X17717Y307086D02*
D03*
X11811Y295275D02*
D03*
X17717Y283465D02*
D03*
X11811Y271654D02*
D03*
X17717Y259842D02*
D03*
X11811Y248031D02*
D03*
X17717Y236220D02*
D03*
X50098Y277658D02*
D03*
X86614Y88976D02*
D03*
X94500Y79150D02*
D03*
X63779Y214961D02*
D03*
Y204724D02*
D03*
X72047Y247835D02*
D03*
X74410Y245768D02*
D03*
X88583Y270866D02*
D03*
X114567Y93307D02*
D03*
X113779Y97638D02*
D03*
X129921Y139370D02*
D03*
X44587Y207185D02*
D03*
X53937Y226772D02*
D03*
X78740Y304724D02*
D03*
Y295276D02*
D03*
X69685Y315945D02*
D03*
X79921Y314173D02*
D03*
X111417Y317323D02*
D03*
X326378Y159449D02*
D03*
X312340Y151814D02*
D03*
X308009D02*
D03*
X303678D02*
D03*
X299385Y151248D02*
D03*
X295581Y149177D02*
D03*
X292754Y145896D02*
D03*
X291273Y141826D02*
D03*
X291099Y137499D02*
D03*
Y133168D02*
D03*
X291122Y128838D02*
D03*
X292283Y124666D02*
D03*
X294851Y121178D02*
D03*
X298479Y118813D02*
D03*
X302706Y117871D02*
D03*
X307036D02*
D03*
X311367D02*
D03*
X315698D02*
D03*
X320028D02*
D03*
X324359D02*
D03*
X328690Y117871D02*
D03*
X332955Y118624D02*
D03*
X336685Y120824D02*
D03*
X339375Y124218D02*
D03*
X340711Y128337D02*
D03*
X340790Y132667D02*
D03*
X340790Y136998D02*
D03*
X341641Y141244D02*
D03*
X344626Y144382D02*
D03*
X348819Y145669D02*
D03*
X353150D02*
D03*
X357874D02*
D03*
X361820Y145430D02*
D03*
X366041Y146397D02*
D03*
X369181Y149380D02*
D03*
X370318Y153559D02*
D03*
Y157889D02*
D03*
Y162220D02*
D03*
X370239Y166550D02*
D03*
X368471Y170503D02*
D03*
X364936Y173005D02*
D03*
X360630Y173468D02*
D03*
X356299D02*
D03*
X351968D02*
D03*
X347638D02*
D03*
X343307D02*
D03*
X338976D02*
D03*
X323516Y114412D02*
D03*
X319185D02*
D03*
X314854Y114412D02*
D03*
X310524D02*
D03*
X306193D02*
D03*
X301862Y114370D02*
D03*
X297707Y113151D02*
D03*
X294266Y110521D02*
D03*
X291966Y106851D02*
D03*
X291099Y102608D02*
D03*
X291099Y98278D02*
D03*
Y93947D02*
D03*
X291438Y89630D02*
D03*
X293224Y85684D02*
D03*
X296281Y82616D02*
D03*
X300219Y80816D02*
D03*
X304536Y80469D02*
D03*
X308867D02*
D03*
X326378Y72835D02*
D03*
X338936Y58816D02*
D03*
X343267D02*
D03*
X347638Y59055D02*
D03*
X351969D02*
D03*
X356299D02*
D03*
X360590Y58816D02*
D03*
X364897Y59263D02*
D03*
X368447Y61744D02*
D03*
X370231Y65690D02*
D03*
X370318Y70020D02*
D03*
Y74351D02*
D03*
Y78682D02*
D03*
X369205Y82867D02*
D03*
X366084Y85869D02*
D03*
X361867Y86853D02*
D03*
X357874Y86614D02*
D03*
X353150D02*
D03*
X348819D02*
D03*
X344666Y87875D02*
D03*
X341660Y90993D02*
D03*
X340790Y95235D02*
D03*
X340790Y99566D02*
D03*
X340721Y103896D02*
D03*
X339401Y108021D02*
D03*
X336721Y111423D02*
D03*
X333001Y113640D02*
D03*
X328740Y114412D02*
D03*
X309482Y65200D02*
D03*
X305151D02*
D03*
X300826Y64979D02*
D03*
X296788Y63413D02*
D03*
X293551Y60536D02*
D03*
X291527Y56708D02*
D03*
X290942Y52417D02*
D03*
Y48086D02*
D03*
Y43755D02*
D03*
Y39424D02*
D03*
Y35094D02*
D03*
Y30763D02*
D03*
Y26432D02*
D03*
Y22102D02*
D03*
Y17771D02*
D03*
X291175Y13446D02*
D03*
X292770Y9420D02*
D03*
X295677Y6211D02*
D03*
X299526Y4226D02*
D03*
X303825Y3698D02*
D03*
X308155D02*
D03*
X312486D02*
D03*
X316817D02*
D03*
X321147D02*
D03*
X325478D02*
D03*
X329809D02*
D03*
X334140D02*
D03*
X338470D02*
D03*
X342801D02*
D03*
X347132D02*
D03*
X351462D02*
D03*
X355793D02*
D03*
X360124D02*
D03*
X364443Y4011D02*
D03*
X368131Y6281D02*
D03*
X370140Y10118D02*
D03*
X370318Y14445D02*
D03*
X370318Y18776D02*
D03*
Y23106D02*
D03*
X369416Y27342D02*
D03*
X366470Y30516D02*
D03*
X362314Y31733D02*
D03*
X358268Y31496D02*
D03*
X353543D02*
D03*
X349213D02*
D03*
X344991Y31735D02*
D03*
X340770Y32706D02*
D03*
X337742Y35802D02*
D03*
X336853Y40040D02*
D03*
X336853Y44371D02*
D03*
X336697Y48699D02*
D03*
X335651Y52901D02*
D03*
X333679Y56757D02*
D03*
X330883Y60064D02*
D03*
X327409Y62650D02*
D03*
X297921Y227438D02*
D03*
X294390Y224931D02*
D03*
X291967Y221341D02*
D03*
X290960Y217129D02*
D03*
X290942Y212799D02*
D03*
Y208468D02*
D03*
Y204137D02*
D03*
Y199806D02*
D03*
Y195476D02*
D03*
Y191145D02*
D03*
Y186814D02*
D03*
Y182484D02*
D03*
X290993Y178153D02*
D03*
X292157Y173982D02*
D03*
X294700Y170477D02*
D03*
X298309Y168083D02*
D03*
X302526Y167099D02*
D03*
X306857Y167084D02*
D03*
X311188D02*
D03*
X327999Y169991D02*
D03*
X331377Y172701D02*
D03*
X334050Y176108D02*
D03*
X335881Y180033D02*
D03*
X336774Y184270D02*
D03*
X336853Y188600D02*
D03*
X336854Y192931D02*
D03*
X338094Y197080D02*
D03*
X341390Y199890D02*
D03*
X345276Y200787D02*
D03*
X350000D02*
D03*
X354331D02*
D03*
X358662Y200548D02*
D03*
X362993Y200595D02*
D03*
X367038Y202143D02*
D03*
X369701Y205558D02*
D03*
X370318Y209844D02*
D03*
Y214175D02*
D03*
X370318Y218506D02*
D03*
X369960Y222822D02*
D03*
X367652Y226486D02*
D03*
X363783Y228431D02*
D03*
X359455Y228586D02*
D03*
X355124D02*
D03*
X350794D02*
D03*
X346463D02*
D03*
X342132D02*
D03*
X337801D02*
D03*
X333471D02*
D03*
X329140Y228586D02*
D03*
X324809D02*
D03*
X320479D02*
D03*
X316148D02*
D03*
X311817D02*
D03*
X307487D02*
D03*
X303156D02*
D03*
X134646Y230709D02*
D03*
X123228Y124015D02*
D03*
X88189Y123228D02*
D03*
X66929Y246063D02*
D03*
X131496Y220472D02*
D03*
X133858Y211024D02*
D03*
X139764D02*
D03*
X166339Y226378D02*
D03*
X163386Y223425D02*
D03*
X166339D02*
D03*
X200787Y288386D02*
D03*
X163386Y226378D02*
D03*
X197835Y285433D02*
D03*
X200787D02*
D03*
X197835Y288386D02*
D03*
X127165Y316929D02*
D03*
X153150Y191732D02*
D03*
X111417Y322441D02*
D03*
X120866Y219291D02*
D03*
X99000Y134500D02*
D03*
X144095Y297244D02*
D03*
X123622Y100787D02*
D03*
X122834Y108661D02*
D03*
X122835Y105512D02*
D03*
X113779Y109055D02*
D03*
X116141Y111417D02*
D03*
X126378Y118110D02*
D03*
X131496Y201181D02*
D03*
X99213Y125591D02*
D03*
X111811Y125984D02*
D03*
X88976Y129528D02*
D03*
X112992Y140157D02*
D03*
X91732Y272047D02*
D03*
X182283Y156693D02*
D03*
X185039Y158268D02*
D03*
Y74410D02*
D03*
X182283Y75984D02*
D03*
X185827Y116142D02*
D03*
X156693Y202756D02*
D03*
X146457Y225590D02*
D03*
X123228Y232677D02*
D03*
X111024Y278740D02*
D03*
X121260Y301575D02*
D03*
X101476Y277165D02*
D03*
X79528Y285827D02*
D03*
X69685Y282677D02*
D03*
X39209Y206791D02*
D03*
X108268Y258622D02*
D03*
Y261575D02*
D03*
X112598Y268504D02*
D03*
X33000Y203500D02*
D03*
X100000Y285433D02*
D03*
X85000Y249500D02*
D03*
X111024Y82284D02*
D03*
X130976Y19685D02*
D03*
X133858Y22567D02*
D03*
X137795Y23622D02*
D03*
X141732Y22567D02*
D03*
X144521Y19640D02*
D03*
X145669Y15748D02*
D03*
X144614Y11811D02*
D03*
X141732Y8929D02*
D03*
X133858D02*
D03*
X137795Y7874D02*
D03*
X130976Y11811D02*
D03*
X129921Y15748D02*
D03*
X186024Y100000D02*
D03*
X182480Y102362D02*
D03*
X184843D02*
D03*
Y112402D02*
D03*
X155500Y100810D02*
D03*
Y95691D02*
D03*
X141732Y150000D02*
D03*
X150787Y189370D02*
D03*
X232677Y152362D02*
D03*
Y79921D02*
D03*
X259842Y169291D02*
D03*
X262795D02*
D03*
X265748D02*
D03*
X268701D02*
D03*
Y172244D02*
D03*
X265748D02*
D03*
X262795D02*
D03*
X259842D02*
D03*
X271654D02*
D03*
Y169291D02*
D03*
X259842Y62992D02*
D03*
Y60039D02*
D03*
X271654D02*
D03*
X268701D02*
D03*
X265748D02*
D03*
X262795D02*
D03*
Y62992D02*
D03*
X265748D02*
D03*
X268701D02*
D03*
X271654D02*
D03*
Y106299D02*
D03*
X268701D02*
D03*
X265748D02*
D03*
X262795D02*
D03*
Y103347D02*
D03*
X265748D02*
D03*
X268701D02*
D03*
X271654D02*
D03*
X259842D02*
D03*
Y106299D02*
D03*
X271654Y125984D02*
D03*
Y128937D02*
D03*
X259842D02*
D03*
X262795D02*
D03*
X265748D02*
D03*
X268701D02*
D03*
Y125984D02*
D03*
X265748D02*
D03*
X262795D02*
D03*
X259842D02*
D03*
X183071Y116142D02*
D03*
X137205Y82185D02*
D03*
X141240Y78150D02*
D03*
X129909Y59865D02*
D03*
X135028Y64983D02*
D03*
X140146Y70101D02*
D03*
X145264Y75219D02*
D03*
X145276Y82185D02*
D03*
X137795Y98819D02*
D03*
X137008Y95276D02*
D03*
X34547Y308268D02*
D03*
Y253150D02*
D03*
Y244882D02*
D03*
Y247638D02*
D03*
Y250394D02*
D03*
Y264173D02*
D03*
Y266929D02*
D03*
Y277953D02*
D03*
Y280709D02*
D03*
X52756Y283071D02*
D03*
X150787Y207480D02*
D03*
X153150Y189370D02*
D03*
X150787Y191732D02*
D03*
X181091Y70101D02*
D03*
X129909Y54747D02*
D03*
X135028Y59865D02*
D03*
X181091Y54747D02*
D03*
X175972D02*
D03*
X170854D02*
D03*
X165736D02*
D03*
X160618D02*
D03*
X155500D02*
D03*
X150382D02*
D03*
X145264D02*
D03*
X140146D02*
D03*
X135028D02*
D03*
X181091Y59865D02*
D03*
X175972D02*
D03*
X170854D02*
D03*
X165736D02*
D03*
X160618D02*
D03*
X140146D02*
D03*
X145264D02*
D03*
X150382D02*
D03*
X155500D02*
D03*
Y177581D02*
D03*
X160618D02*
D03*
X165736D02*
D03*
X170854D02*
D03*
X175972D02*
D03*
X181091D02*
D03*
X140146Y64983D02*
D03*
X145264D02*
D03*
Y70101D02*
D03*
X150382Y75219D02*
D03*
Y80337D02*
D03*
Y85455D02*
D03*
Y64983D02*
D03*
X155500D02*
D03*
X160618D02*
D03*
X165736D02*
D03*
X170854D02*
D03*
X175972D02*
D03*
X181091D02*
D03*
X175972Y70101D02*
D03*
X170854D02*
D03*
X165736D02*
D03*
X160618D02*
D03*
X150382D02*
D03*
X155500D02*
D03*
Y172463D02*
D03*
X160618D02*
D03*
X165736D02*
D03*
X170854D02*
D03*
X175972D02*
D03*
X181091D02*
D03*
Y167345D02*
D03*
X175972D02*
D03*
X170854D02*
D03*
X165736D02*
D03*
X160618D02*
D03*
X155500D02*
D03*
Y162227D02*
D03*
X160618D02*
D03*
X165736D02*
D03*
X170854D02*
D03*
X175972D02*
D03*
X170854Y75219D02*
D03*
X165736D02*
D03*
X160618D02*
D03*
X155500D02*
D03*
Y80337D02*
D03*
X160618D02*
D03*
X165736D02*
D03*
X170854D02*
D03*
Y85455D02*
D03*
X165736D02*
D03*
X160618D02*
D03*
X155500D02*
D03*
Y157109D02*
D03*
X160618D02*
D03*
X165736D02*
D03*
X170854D02*
D03*
Y151991D02*
D03*
X165736D02*
D03*
X160618D02*
D03*
X155500D02*
D03*
Y146872D02*
D03*
X160618D02*
D03*
X165736D02*
D03*
X170854D02*
D03*
Y141754D02*
D03*
X165736D02*
D03*
X160618D02*
D03*
X155500D02*
D03*
Y136636D02*
D03*
X160618D02*
D03*
X165736D02*
D03*
X170854D02*
D03*
Y90573D02*
D03*
X165736D02*
D03*
X160618D02*
D03*
X155500D02*
D03*
X160618Y95691D02*
D03*
X165736D02*
D03*
X170854D02*
D03*
Y100810D02*
D03*
X165736D02*
D03*
X160618D02*
D03*
X170854Y131518D02*
D03*
X165736D02*
D03*
X160618D02*
D03*
X155500D02*
D03*
X101181Y267323D02*
D03*
X57087Y251969D02*
D03*
X105905Y268898D02*
D03*
X112992Y119685D02*
D03*
X57087Y248031D02*
D03*
X113779Y278740D02*
D03*
X88000Y43000D02*
D03*
X84000D02*
D03*
X87795Y168504D02*
D03*
X83858D02*
D03*
X114567Y81398D02*
D03*
X119685Y76968D02*
D03*
X124803Y81201D02*
D03*
X100492Y78740D02*
D03*
X83071Y83465D02*
D03*
X87500Y78642D02*
D03*
X33000Y209000D02*
D03*
X111417Y327559D02*
D03*
Y332677D02*
D03*
X101181Y314173D02*
D03*
X94488D02*
D03*
X87008D02*
D03*
X69685Y301575D02*
D03*
Y288976D02*
D03*
X34547Y242126D02*
D03*
Y283465D02*
D03*
Y228937D02*
D03*
Y231693D02*
D03*
X50098Y244882D02*
D03*
Y247638D02*
D03*
Y250394D02*
D03*
Y253150D02*
D03*
Y308268D02*
D03*
X34547Y288976D02*
D03*
X50098Y280217D02*
D03*
X134252Y113386D02*
D03*
X144882Y146850D02*
D03*
X187205Y119882D02*
D03*
X184843D02*
D03*
X182480D02*
D03*
X187205Y112402D02*
D03*
X182480D02*
D03*
X183661Y100000D02*
D03*
X186024Y132283D02*
D03*
X184843Y129921D02*
D03*
X183661Y132283D02*
D03*
X182480Y129921D02*
D03*
D137*
X137795Y15748D02*
D03*
D138*
X182579Y286910D02*
X198819D01*
X166339Y223425D02*
Y226378D01*
X134843Y144685D02*
Y162402D01*
X137205Y164567D02*
X145669Y173031D01*
X134843Y144685D02*
X138779Y140748D01*
X145669Y185039D02*
X150591Y189961D01*
X145669Y173031D02*
Y185039D01*
X177165Y237205D02*
Y281496D01*
X166339Y226378D02*
X177165Y237205D01*
Y281496D02*
X182579Y286910D01*
X133858Y103347D02*
X138779Y108268D01*
Y140748D01*
X133858Y97441D02*
Y103347D01*
M02*
