M48
;Layer_Color=9474304
;FILE_FORMAT=2:5
INCH,TZ
;TYPE=PLATED
T1F00S00C0.01181
T3F00S00C0.03937
T4F00S00C0.04724
T5F00S00C0.06299
T7F00S00C0.12598
;TYPE=NON_PLATED
T8F00S00C0.02559
T10F00S00C0.06693
T11F00S00C0.07087
T12F00S00C0.12598
%
T01
X53150Y47244
X59055Y59055
X47244
Y82677
X59055
X70866
X83071Y83465
X86614Y88976
X97638
X100394
X100492Y78740
X94500Y79150
X87500Y78642
X93701Y70866
X100394Y65945
X106299Y59055
X118110
X129909Y59865
Y54747
X135028
Y59865
Y64983
X140146
Y70101
X145264
Y75219
X150382
Y80337
Y85455
X155500
Y80337
Y75219
Y70101
Y64983
Y59865
Y54747
X150382
X145264
X140146
Y59865
X145264
X150382
Y64983
X145264
X150382Y70101
X141240Y78150
X145276Y82185
X137205
X132677Y87402
X137008Y95276
X137795Y98819
X129528Y100787
X123622
X122835Y105512
X122834Y108661
X126969Y113189
X126378Y118110
X123228Y124015
X122047Y132677
Y145276
X119291Y146850
X112992Y140157
X111811Y125984
X112992Y119685
X116141Y111417
X113779Y109055
X106398Y111260
X102402
Y115256
X97441
Y111260
X92480
Y115256
X88484Y111260
Y106299
X92480
Y101339
X88484
X92480Y97342
X97441
Y101339
X102402
Y97342
X106398Y101339
Y106299
X102402
X97441
X98854Y122638
X99213Y125591
X101968Y122441
Y134645
X99000Y134500
X95669Y134645
X88976Y129528
X88189Y123228
X70866Y129921
X59055
X64961Y118110
X53150
X59055Y106299
X70866
X80709Y103543
X64961Y94488
X53150
X47244Y106299
X53150Y141732
X76772
X94488Y153543
X141732
X141732Y150000
X144882Y146850
X155500Y146872
Y151991
Y141754
Y136636
Y131518
X155512Y126378
Y121260
Y116142
Y111024
Y105905
X155500Y100810
Y95691
Y90573
X143701Y118504
X134645Y116535
X134252Y113386
X129921Y139370
X113779Y97638
X114567Y93307
Y81398
X111024Y82284
X119685Y76968
X124803Y81201
X124016Y70866
Y47244
X135827
X147638
X153543Y35433
X141732
X129921
X118110
X106299
X107185Y27362
X107283Y18504
X111417Y18110
X117028Y23425
X130976Y19685
X129921Y15748
X130976Y11811
X133858Y8929
X137795Y7874
X141732Y8929
X144614Y11811
X145669Y15748
X144521Y19640
X141732Y22567
X137795Y23622
X133858Y22567
X112205Y47244
X100394
X92913Y53150
X88000Y43000
X84000
X92913Y36614
X70866Y35433
X76772Y70866
X64961
X160618Y70101
Y64983
Y59865
Y54747
X165736
X170854
X175972
X181091
Y59865
X175972
X170854
X165736
Y64983
X170854
X175972
X181091
Y70101
X175972
X170854
X165736
Y75219
X170854
Y80337
X165736
X160618
Y75219
Y85455
X165736
X170854
Y90573
X165736
X160618
Y95691
X165736
X170854
Y100810
X170866Y105905
Y111024
Y116142
X165748
Y111024
Y105905
X165736Y100810
X160618
X160630Y105905
Y111024
Y116142
Y121260
Y126378
X165748
Y121260
X170866
Y126378
X170854Y131518
Y136636
Y141754
Y146872
Y151991
X165736
X160618
Y146872
X165736
Y141754
X160618
Y136636
X165736
Y131518
X160618
X182480Y129921
X184843
X186024Y132283
X183661
X187008Y140157
X191732Y144882
X196850Y140157
X200787Y153543
X188976
X187205Y119882
X184843
X182480
X183071Y116142
X185827
X184843Y112402
X187205
X182480
Y102362
X184843
X186024Y100000
X183661
X187008Y92126
X191929Y87795
X188976Y82677
X200787
X196850Y92126
X194882Y70866
X206693
X212598Y59055
X224409
X236220
X248031
X259842Y60039
Y62992
X262795
Y60039
X265748
X268701
Y62992
X265748
X271654
Y60039
X283465Y59055
X291527Y56708
X290942Y52417
Y48086
Y43755
Y39424
Y35094
Y30763
Y26432
Y22102
Y17771
X291175Y13446
X292770Y9420
X295677Y6211
X299526Y4226
X303825Y3698
X308155
X312486
X283465Y11811
X277559Y23622
X265748
X253937
X242126
X230315Y27756
X236220Y35433
X248031
X259842
X271654
X283465
X277559Y47244
Y70866
X289370
X301181
X300826Y64979
X305151Y65200
X309482
X296788Y63413
X293551Y60536
X296281Y82616
X300219Y80816
X304536Y80469
X308867
X293224Y85684
X291438Y89630
X291099Y93947
Y98278
X291099Y102608
X291966Y106851
X294266Y110521
X297707Y113151
X301862Y114370
X302706Y117871
X307036
X306193Y114412
X310524
X311367Y117871
X298479Y118813
X294851Y121178
X292283Y124666
X291122Y128838
X291099Y133168
Y137499
X291273Y141826
X292754Y145896
X295581Y149177
X295275Y153543
X299385Y151248
X303678Y151814
X308009
X312340
X283465Y153543
X271654
X277559Y141732
X283465Y129921
X271654Y128937
Y125984
X268701
Y128937
X265748
X262795
Y125984
X265748
X259842
Y128937
Y106299
X262795
Y103347
X259842
X265748
Y106299
X268701
Y103347
X271654
Y106299
X283465Y106299
X289370Y118110
X277559
Y94488
X283465Y82677
X271654
X232677Y79921
Y87402
X230315Y47244
X242126
X253937
X218504
X221358Y43307
X206693Y47244
X194882
X183071
X171260
X159449
X165354Y35433
X177165
X188976
X200787
X206693Y23622
X212598Y27756
X212598Y11811
X219488
X224409
X236220
X248031
X259842
X200787
X188976
X177165
X165354
X171260Y23622
X183071
X194882
X159449
X188976Y59055
X200787
X185039Y74410
X182283Y75984
X232677Y145669
Y152362
X315748Y155118
X320472Y155512
X344626Y144382
X348819Y145669
X353150
X357874
X361820Y145430
X366041Y146397
X369181Y149380
X370318Y153559
X360236Y141732
X359252Y131890
X366142Y129921
X360236Y118110
X351575Y117717
Y114567
X342520Y106299
X340721Y103896
X340790Y99566
X340790Y95235
X341660Y90993
X344666Y87875
X348819Y86614
X353150
X357874
X361867Y86853
X366084Y85869
X369205Y82867
X370318Y78682
Y74351
Y70020
X370231Y65690
X368447Y61744
X364897Y59263
X360590Y58816
X356299Y59055
X351969
X347638
X343267Y58816
X338936
X333679Y56757
X335651Y52901
X336697Y48699
X336853Y44371
X336853Y40040
X337742Y35802
X342520Y35433
X340770Y32706
X344991Y31735
X349213Y31496
X353543
X358268
X362314Y31733
X366470Y30516
X366142Y35433
X369416Y27342
X370318Y23106
Y18776
X370318Y14445
X370140Y10118
X368131Y6281
X364443Y4011
X360124Y3698
X355793
X351462
X347132
X342801
X338470
X334140
X329809
X325478
X321147
X316817
X315748Y68504
X320472Y68898
Y76772
X315748Y77165
X312992Y70866
X326378Y72835
X327409Y62650
X330883Y60064
X344488Y45276
X360236Y44291
X360236Y47244
Y94488
X359252Y100394
X366142Y106299
X344488Y100394
X339401Y108021
X336721Y111423
X333001Y113640
X332955Y118624
X328690Y117871
X328740Y114412
X323516
X324359Y117871
X320028
X319185Y114412
X314854Y114412
X315698Y117871
X336685Y120824
X339375Y124218
X340711Y128337
X340790Y132667
X340790Y136998
X341641Y141244
X344488Y131890
X343307Y173468
X347638
X351968
X356299
X360630
X364936Y173005
X366142Y177165
X368471Y170503
X370239Y166550
X370318Y162220
Y157889
X360236Y185039
X360236Y188976
X358662Y200548
X362993Y200595
X367038Y202143
X369701Y205558
X370318Y209844
Y214175
X370318Y218506
X369960Y222822
X367652Y226486
X363783Y228431
X359455Y228586
X355124
X350794
X346463
X342132
X337801
X333471
X329140Y228586
X324809
X320479
X316148
X312992Y236220
X324803
X336614
X330709Y248031
X318898
X324803Y259842
X336614
X342520Y271654
X330709
X318898
Y295275
X330709
X342520
X354331
X366142
X360236Y307086
X348425
X324803
X366142Y271654
X368110Y261811
X364173Y254921
Y243110
X368110Y236221
X360236Y236220
X354331Y200787
X350000
X345276
X341390Y199890
X338094Y197080
X336854Y192931
X336853Y188600
X336774Y184270
X335881Y180033
X334050Y176108
X331377Y172701
X327999Y169991
X326378Y159449
X320472Y163386
X315748Y163779
X338976Y173468
X342520Y177165
X344488Y187008
X366142Y196850
X290942Y195476
Y199806
Y204137
Y208468
Y212799
X290960Y217129
X291967Y221341
X294390Y224931
X297921Y227438
X303156Y228586
X307487
X311817
X301181Y236220
X289370
X277559Y237008
X283465Y227559
X283465Y224409
X277559Y215748
X277559Y212598
X283465Y200787
X271654
X259842
X259842Y172244
Y169291
X262795
X265748
Y172244
X262795
X268701
Y169291
X271654
Y172244
X277559Y165354
X289370
X294700Y170477
X298309Y168083
X302526Y167099
X306857Y167084
X311188
X292157Y173982
X290993Y178153
X290942Y182484
Y186814
Y191145
X277559Y188976
X283465Y177165
X224409
X212598
X200787
X188976
X181091Y177581
X175972
X170854
X165736
X160618
Y172463
X165736
X170854
X175972
X181091
Y167345
X175972
X170854
X165736
X160618
Y162227
X165736
X170854
X175972
X170854Y157109
X165736
X160618
X182283Y156693
X185039Y158268
X194882Y165354
X206693
Y188976
X218504
X223425Y188976
X230315Y188976
X231299Y204724
X242126Y212598
X248031Y219488
Y226378
X251969Y223425
X242126Y236220
X244488Y253937
X248819Y256693
Y264567
X248031Y271654
X241732Y260630
X240158Y258268
X242126Y283465
X235433Y285433
X230315Y283465
X222835Y287008
X214961
X217520Y279528
X212598Y271654
Y295275
X218898Y294094
X224409Y295275
X236220
X248031
X259842
X271654
X271654Y299213
X283465
X283465Y295275
X277559Y288386
X277559Y283465
X289370
X301181
X300197Y303150
X297244
X294291
X294094Y298031
X291929Y308071
X289370Y307086
X277559Y310039
X265748Y307086
X253937
X242126
X230315
X218504
X194882
X183071
X188976Y295275
X200787
X200787Y288386
Y285433
X197835
Y288386
X188976Y271654
Y248031
X183071Y236220
X177165Y224409
X166339Y223425
Y226378
X163386
Y223425
Y216929
X165354Y200787
X156693Y202756
X177165Y200787
X188976
X200787
X211614Y204724
X206693Y212598
X194882
X183071
X200787Y224409
X206693Y236220
X218504
X212598Y248031
X221457Y220472
X194882Y188976
X159449Y236220
X165354Y248031
X171260Y259842
X159449
X165354Y271654
X171260Y283465
X159449
X165354Y295275
X177165
X253937Y283465
X265748
X303150Y303150
X306102
X151575Y308267
Y311417
X140500Y306000
X140945Y297244
X144095
X130315Y295276
X125500Y296500
X121260Y301575
X118898Y303543
X115748
X111417Y305906
X102756
X100787Y303543
X98425Y307087
Y299213
X100787Y297244
X102756Y299606
X102362Y292126
X102371Y287804
X100000Y285433
X95669Y285039
X97244Y287795
X98425Y291339
X94488Y295275
X90551Y291339
X90551Y287795
X88976Y285039
X83000Y285000
X79528Y285827
X84646Y287795
X82677Y291339
X82677Y295275
X78740Y295276
X82677Y299213
X90551
Y307087
X82677
X78740Y304724
X69685Y301575
X63484Y300394
X63779Y304724
Y307874
X63484Y312205
X53150Y307086
X50098Y308268
X34547
X29528Y307086
X17717
X3937Y307087
Y295276
X11811Y295275
X23622
X34547Y288976
Y283465
Y280709
Y277953
X29528Y283465
X17717
X3937Y283465
Y271654
X11811Y271654
X23622
X34547Y266929
Y264173
X29528Y259842
X34547Y253150
Y250394
Y247638
Y244882
Y242126
Y231693
Y228937
X29528Y236220
X17717
X3937Y236221
Y248031
X11811Y248031
X23622
X17717Y259842
X3937Y259842
X50098Y253150
Y250394
Y247638
Y244882
X57087Y248031
Y251969
X60039Y242618
X64272Y237795
X64370Y231102
X60039Y226279
X53937Y226772
X52067Y222638
Y217717
X55315Y213681
X63779Y214961
Y204724
X70866Y200787
X64961Y194095
X64961Y188976
X61614Y190551
X57284Y190453
X53150Y188976
X46457Y186614
X40551Y186516
X39370Y181102
X59055
X64961Y165354
X53150
X83858Y168504
X87795
X94488Y177165
X82677Y181102
X76772Y188976
Y212598
X112205
X114075Y206496
X118110Y200787
X131496Y201181
X134843Y192913
X124016Y188976
X128937Y182087
X140748
X134843Y171260
Y164567
X137205
X132480
X147638Y165354
X155500Y167345
Y172463
Y177581
X153150Y189370
Y191732
X150787
Y189370
Y207480
X146850
X140551
X139764Y211024
X133858
X131496Y220472
X120866Y219291
X123228Y232677
X117913Y232579
X114075Y228543
X134646Y230709
X135827Y236220
X147638
X151969Y236221
X146457Y225590
X145669Y218110
X148819
X151969
Y214961
X148819
X145669
X141732Y248031
X147638Y259842
X153543Y271654
X141732
X147638Y283465
X111024Y282453
Y285433
Y278740
X113779
X112598Y268504
X109055Y268503
X105905Y268898
X101181Y267323
X100393Y264173
X103543Y264960
X108268Y261575
Y258622
X101476Y277165
X96457Y276772
X91732Y272047
Y268897
X88583Y270866
X85039Y268898
Y265748
X81496Y272441
X79134Y276378
X69685Y279528
Y282677
Y288976
X62598Y286417
X58563Y290354
X59055Y295275
X66732Y296949
X58563Y282480
X52756Y283071
X50098Y280217
Y277658
X51968Y273031
X59055Y271654
X59744Y265256
X60827Y277362
X76378Y261024
X74410Y245768
X72047Y247835
X66929Y246063
X85000Y249500
X91339Y250000
X89370Y238976
X48031Y225984
X39500Y213000
X39209Y206791
X44587Y207185
X33000Y209000
Y203500
X26378Y208661
X111500Y294000
X114173Y295669
X155500Y162227
Y157109
X153543Y318898
X129921
X127165Y316929
X129528Y314173
X111417Y317323
Y322441
Y327559
Y332677
X118110Y334646
X137795
X101181Y314173
X94488
X87008
X79921
X69685Y315945
X63976
X54134
X44291
X34449
X24606
X14764
X4921
X165354Y318898
X177165
X188976
X196850Y334646
X216535
X236221
X236220Y318898
X248031
X259842
X255906Y334646
X275590
X283465Y318898
X224409
X177165Y334646
X157480
X330709Y318898
X342520
X354331
X366142
T03
X185039Y258661
Y278346
X127953
Y268504
Y258661
T04
X67500Y51279
Y141831
T05
X14980Y36279
X49980
X52480Y66280
X34980
X49980Y126831
X14980
X34980Y156831
X52480
T07
X137795Y15748
T08
X33661Y219685
T10
X354331Y307087
T11
X336614Y307087
T12
X275590Y15748
X185039Y228346
X137795Y321850
X275590
M30
